%TF.GenerationSoftware,KiCad,Pcbnew,(6.0.11)*%
%TF.CreationDate,2023-02-24T20:03:43+09:00*%
%TF.ProjectId,Underside,556e6465-7273-4696-9465-2e6b69636164,rev?*%
%TF.SameCoordinates,Original*%
%TF.FileFunction,Legend,Bot*%
%TF.FilePolarity,Positive*%
%FSLAX46Y46*%
G04 Gerber Fmt 4.6, Leading zero omitted, Abs format (unit mm)*
G04 Created by KiCad (PCBNEW (6.0.11)) date 2023-02-24 20:03:43*
%MOMM*%
%LPD*%
G01*
G04 APERTURE LIST*
%ADD10C,0.150000*%
%ADD11C,0.120000*%
G04 APERTURE END LIST*
D10*
%TO.C,U2*%
X111558571Y-112482380D02*
X111558571Y-113291904D01*
X111510952Y-113387142D01*
X111463333Y-113434761D01*
X111368095Y-113482380D01*
X111177619Y-113482380D01*
X111082380Y-113434761D01*
X111034761Y-113387142D01*
X110987142Y-113291904D01*
X110987142Y-112482380D01*
X109939523Y-113482380D02*
X110272857Y-113006190D01*
X110510952Y-113482380D02*
X110510952Y-112482380D01*
X110130000Y-112482380D01*
X110034761Y-112530000D01*
X109987142Y-112577619D01*
X109939523Y-112672857D01*
X109939523Y-112815714D01*
X109987142Y-112910952D01*
X110034761Y-112958571D01*
X110130000Y-113006190D01*
X110510952Y-113006190D01*
X109510952Y-113482380D02*
X109510952Y-112482380D01*
X109177619Y-113196666D01*
X108844285Y-112482380D01*
X108844285Y-113482380D01*
X108368095Y-113101428D02*
X107606190Y-113101428D01*
X107225238Y-112482380D02*
X106606190Y-112482380D01*
X106939523Y-112863333D01*
X106796666Y-112863333D01*
X106701428Y-112910952D01*
X106653809Y-112958571D01*
X106606190Y-113053809D01*
X106606190Y-113291904D01*
X106653809Y-113387142D01*
X106701428Y-113434761D01*
X106796666Y-113482380D01*
X107082380Y-113482380D01*
X107177619Y-113434761D01*
X107225238Y-113387142D01*
X106272857Y-112482380D02*
X105606190Y-112482380D01*
X106034761Y-113482380D01*
D11*
X97100000Y-116840000D02*
X120160000Y-116840000D01*
X120160000Y-116840000D02*
X120160000Y-114300000D01*
X120160000Y-114300000D02*
X97100000Y-114300000D01*
X97100000Y-114300000D02*
X97100000Y-116840000D01*
%TD*%
M02*
