%TF.GenerationSoftware,KiCad,Pcbnew,(6.0.7)*%
%TF.CreationDate,2023-03-01T00:46:33+09:00*%
%TF.ProjectId,Underside,556e6465-7273-4696-9465-2e6b69636164,rev?*%
%TF.SameCoordinates,Original*%
%TF.FileFunction,Copper,L1,Top*%
%TF.FilePolarity,Positive*%
%FSLAX46Y46*%
G04 Gerber Fmt 4.6, Leading zero omitted, Abs format (unit mm)*
G04 Created by KiCad (PCBNEW (6.0.7)) date 2023-03-01 00:46:33*
%MOMM*%
%LPD*%
G01*
G04 APERTURE LIST*
G04 Aperture macros list*
%AMRoundRect*
0 Rectangle with rounded corners*
0 $1 Rounding radius*
0 $2 $3 $4 $5 $6 $7 $8 $9 X,Y pos of 4 corners*
0 Add a 4 corners polygon primitive as box body*
4,1,4,$2,$3,$4,$5,$6,$7,$8,$9,$2,$3,0*
0 Add four circle primitives for the rounded corners*
1,1,$1+$1,$2,$3*
1,1,$1+$1,$4,$5*
1,1,$1+$1,$6,$7*
1,1,$1+$1,$8,$9*
0 Add four rect primitives between the rounded corners*
20,1,$1+$1,$2,$3,$4,$5,0*
20,1,$1+$1,$4,$5,$6,$7,0*
20,1,$1+$1,$6,$7,$8,$9,0*
20,1,$1+$1,$8,$9,$2,$3,0*%
G04 Aperture macros list end*
%TA.AperFunction,ComponentPad*%
%ADD10RoundRect,0.250000X0.600000X0.725000X-0.600000X0.725000X-0.600000X-0.725000X0.600000X-0.725000X0*%
%TD*%
%TA.AperFunction,ComponentPad*%
%ADD11O,1.700000X1.950000*%
%TD*%
%TA.AperFunction,ComponentPad*%
%ADD12C,1.400000*%
%TD*%
%TA.AperFunction,ComponentPad*%
%ADD13C,1.600000*%
%TD*%
%TA.AperFunction,SMDPad,CuDef*%
%ADD14O,1.998980X2.748280*%
%TD*%
%TA.AperFunction,SMDPad,CuDef*%
%ADD15O,2.032000X1.016000*%
%TD*%
%TA.AperFunction,SMDPad,CuDef*%
%ADD16C,1.143000*%
%TD*%
%TA.AperFunction,ComponentPad*%
%ADD17R,2.000000X2.000000*%
%TD*%
%TA.AperFunction,ComponentPad*%
%ADD18C,2.000000*%
%TD*%
%TA.AperFunction,ViaPad*%
%ADD19C,0.800000*%
%TD*%
%TA.AperFunction,Conductor*%
%ADD20C,0.250000*%
%TD*%
G04 APERTURE END LIST*
D10*
%TO.P,TORICA-UART1,1,Pin_1*%
%TO.N,GND*%
X111270000Y-54670000D03*
D11*
%TO.P,TORICA-UART1,2,Pin_2*%
%TO.N,+5V*%
X108770000Y-54670000D03*
%TO.P,TORICA-UART1,3,Pin_3*%
%TO.N,/DTXR*%
X106270000Y-54670000D03*
%TO.P,TORICA-UART1,4,Pin_4*%
%TO.N,/DRXT*%
X103770000Y-54670000D03*
%TD*%
D12*
%TO.P,J1,1,DAT2*%
%TO.N,unconnected-(J1-Pad1)*%
X112440000Y-86360000D03*
%TO.P,J1,2,DAT3/CD*%
%TO.N,/CS*%
X112440000Y-88900000D03*
%TO.P,J1,3,CMD*%
%TO.N,Net-(J1-Pad3)*%
X112440000Y-91440000D03*
%TO.P,J1,4,VDD*%
%TO.N,+3.3V*%
X112440000Y-93980000D03*
%TO.P,J1,5,CLK*%
%TO.N,Net-(J1-Pad5)*%
X112440000Y-96520000D03*
%TO.P,J1,6,VSS*%
%TO.N,GND*%
X112440000Y-99060000D03*
%TO.P,J1,7,DAT0*%
%TO.N,Net-(J1-Pad7)*%
X112440000Y-101600000D03*
%TO.P,J1,8,DAT1*%
%TO.N,unconnected-(J1-Pad8)*%
X112440000Y-104140000D03*
%TO.P,J1,9,DET_B*%
%TO.N,unconnected-(J1-Pad9)*%
X112440000Y-106680000D03*
%TO.P,J1,10,DET_A*%
%TO.N,unconnected-(J1-Pad10)*%
X112440000Y-109220000D03*
%TO.P,J1,11,SHIELD*%
%TO.N,unconnected-(J1-Pad11)*%
X125140000Y-106680000D03*
%TO.P,J1,13*%
%TO.N,N/C*%
X125140000Y-88900000D03*
%TD*%
D13*
%TO.P,U1,1,VCC*%
%TO.N,+3.3V*%
X103550000Y-103290000D03*
%TO.P,U1,2,SDI*%
%TO.N,Net-(U1-Pad2)*%
X101010000Y-103290000D03*
%TO.P,U1,3,GND*%
%TO.N,GND*%
X98470000Y-103290000D03*
%TO.P,U1,4,SDO*%
%TO.N,unconnected-(U1-Pad4)*%
X95930000Y-103290000D03*
%TO.P,U1,5,CSK*%
%TO.N,Net-(U1-Pad5)*%
X93390000Y-103290000D03*
%TO.P,U1,6,CS*%
%TO.N,unconnected-(U1-Pad6)*%
X90850000Y-103290000D03*
%TD*%
D14*
%TO.P,U3,1,PA02_A0_D0*%
%TO.N,Net-(U2-Pad4)*%
X127000020Y-63500020D03*
%TO.P,U3,2,PA4_A1_D1*%
%TO.N,Net-(U2-Pad6)*%
X124460020Y-63500020D03*
%TO.P,U3,3,PA10_A2_D2*%
%TO.N,/CS*%
X121920020Y-63500020D03*
%TO.P,U3,4,PA11_A3_D3*%
%TO.N,unconnected-(U3-Pad4)*%
X119380020Y-63500020D03*
%TO.P,U3,5,PA8_A4_D4_SDA*%
%TO.N,Net-(U1-Pad2)*%
X116840020Y-63500020D03*
%TO.P,U3,6,PA9_A5_D5_SCL*%
%TO.N,Net-(U1-Pad5)*%
X114300020Y-63500020D03*
%TO.P,U3,7,PB08_A6_D6_TX*%
%TO.N,/DRXT*%
X111760020Y-63500020D03*
%TO.P,U3,8,PB09_A7_D7_RX*%
%TO.N,/DTXR*%
X111760020Y-79664580D03*
%TO.P,U3,9,PA7_A8_D8_SCK*%
%TO.N,Net-(J1-Pad5)*%
X114300020Y-79664580D03*
%TO.P,U3,10,PA5_A9_D9_MISO*%
%TO.N,Net-(J1-Pad7)*%
X116840020Y-79664580D03*
%TO.P,U3,11,PA6_A10_D10_MOSI*%
%TO.N,Net-(J1-Pad3)*%
X119380020Y-79664580D03*
%TO.P,U3,12,3V3*%
%TO.N,+3.3V*%
X121920020Y-79664580D03*
%TO.P,U3,13,GND*%
%TO.N,GND*%
X124460020Y-79664580D03*
%TO.P,U3,14,5V*%
%TO.N,+5V*%
X127000020Y-79664580D03*
D15*
%TO.P,U3,15,5V*%
%TO.N,unconnected-(U3-Pad15)*%
X110682200Y-70366900D03*
%TO.P,U3,16,GND*%
%TO.N,unconnected-(U3-Pad16)*%
X110682200Y-72916900D03*
D16*
%TO.P,U3,17,PA31_SWDIO*%
%TO.N,unconnected-(U3-Pad17)*%
X127686387Y-70365703D03*
%TO.P,U3,18,PA30_SWCLK*%
%TO.N,unconnected-(U3-Pad18)*%
X127686387Y-72905703D03*
%TO.P,U3,19,RESET*%
%TO.N,unconnected-(U3-Pad19)*%
X125146387Y-70365703D03*
%TO.P,U3,20,GND*%
%TO.N,unconnected-(U3-Pad20)*%
X125146387Y-72905703D03*
%TD*%
D17*
%TO.P,U2,1,VCC*%
%TO.N,+3.3V*%
X98470000Y-115570000D03*
D18*
%TO.P,U2,2,GND*%
%TO.N,GND*%
X101010000Y-115570000D03*
%TO.P,U2,3,NRST*%
%TO.N,unconnected-(U2-Pad3)*%
X103550000Y-115570000D03*
%TO.P,U2,4,ECHO*%
%TO.N,Net-(U2-Pad4)*%
X106090000Y-115570000D03*
%TO.P,U2,5,SERVO*%
%TO.N,unconnected-(U2-Pad5)*%
X108630000Y-115570000D03*
%TO.P,U2,6,COMP/TRIG*%
%TO.N,Net-(U2-Pad6)*%
X111170000Y-115570000D03*
%TO.P,U2,7,DAC_OUT*%
%TO.N,unconnected-(U2-Pad7)*%
X113710000Y-115570000D03*
%TO.P,U2,8,RXD*%
%TO.N,unconnected-(U2-Pad8)*%
X116250000Y-115570000D03*
%TO.P,U2,9,TXD*%
%TO.N,unconnected-(U2-Pad9)*%
X118790000Y-115570000D03*
%TD*%
D19*
%TO.N,+5V*%
X122376500Y-66894598D03*
%TO.N,/DTXR*%
X111760000Y-76668800D03*
%TD*%
D20*
%TO.N,+5V*%
X122378700Y-73344000D02*
X127000000Y-77965300D01*
X127000000Y-77965300D02*
X127000000Y-79664600D01*
X122376500Y-66894598D02*
X122378700Y-66896798D01*
X122378700Y-66896798D02*
X122378700Y-73344000D01*
%TO.N,/DRXT*%
X104945100Y-55845100D02*
X103770000Y-54670000D01*
X104945100Y-58009700D02*
X104945100Y-55845100D01*
X110435400Y-63500000D02*
X104945100Y-58009700D01*
X111760000Y-63500000D02*
X110435400Y-63500000D01*
%TO.N,/CS*%
X112440000Y-88900000D02*
X110425400Y-86885400D01*
X110425400Y-86885400D02*
X110425400Y-76693900D01*
X121920000Y-63500000D02*
X121920000Y-65199300D01*
X110425400Y-76693900D02*
X121920000Y-65199300D01*
%TO.N,Net-(J1-Pad3)*%
X112440000Y-91440000D02*
X119380000Y-84500000D01*
X119380000Y-84500000D02*
X119380000Y-79664600D01*
%TO.N,+3.3V*%
X121920000Y-84500000D02*
X112440000Y-93980000D01*
X121920000Y-79664600D02*
X121920000Y-84500000D01*
%TO.N,Net-(J1-Pad5)*%
X114300000Y-79664600D02*
X114300000Y-81363900D01*
X111396300Y-91024300D02*
X111396300Y-95476300D01*
X114300000Y-88500600D02*
X112630600Y-90170000D01*
X112630600Y-90170000D02*
X112250600Y-90170000D01*
X112250600Y-90170000D02*
X111396300Y-91024300D01*
X111396300Y-95476300D02*
X112440000Y-96520000D01*
X114300000Y-81363900D02*
X114300000Y-88500600D01*
%TO.N,GND*%
X105670000Y-105830000D02*
X112440000Y-99060000D01*
X101010000Y-105830000D02*
X98470000Y-103290000D01*
X124460000Y-87040000D02*
X112440000Y-99060000D01*
X101010000Y-105830000D02*
X105670000Y-105830000D01*
X124460000Y-79664600D02*
X124460000Y-87040000D01*
X101010000Y-115570000D02*
X101010000Y-105830000D01*
%TO.N,Net-(J1-Pad7)*%
X116840000Y-79664600D02*
X116840000Y-71406500D01*
X116840000Y-71406500D02*
X122089000Y-66157500D01*
X122664000Y-66157500D02*
X126789700Y-70283200D01*
X128378300Y-83758300D02*
X113954800Y-98181800D01*
X126789700Y-70283200D02*
X126789700Y-76751500D01*
X113954800Y-98181800D02*
X113954800Y-100085200D01*
X126789700Y-76751500D02*
X128378300Y-78340100D01*
X122089000Y-66157500D02*
X122664000Y-66157500D01*
X128378300Y-78340100D02*
X128378300Y-83758300D01*
X113954800Y-100085200D02*
X112440000Y-101600000D01*
%TO.N,/DTXR*%
X111760000Y-77965300D02*
X111760000Y-76668800D01*
X111760000Y-79664600D02*
X111760000Y-77965300D01*
%TO.N,Net-(U1-Pad2)*%
X116840000Y-63500000D02*
X116840000Y-68974100D01*
X116840000Y-68974100D02*
X101010000Y-84804100D01*
X101010000Y-84804100D02*
X101010000Y-103290000D01*
%TO.N,Net-(U1-Pad5)*%
X114300000Y-63500000D02*
X93390000Y-84410000D01*
X93390000Y-84410000D02*
X93390000Y-103290000D01*
%TO.N,Net-(U2-Pad6)*%
X127603200Y-61780700D02*
X126179300Y-61780700D01*
X129321700Y-97418300D02*
X129321700Y-63499200D01*
X111170000Y-115570000D02*
X129321700Y-97418300D01*
X126179300Y-61780700D02*
X124460000Y-63500000D01*
X129321700Y-63499200D02*
X127603200Y-61780700D01*
%TO.N,Net-(U2-Pad4)*%
X106090000Y-115570000D02*
X106090000Y-109008000D01*
X128855700Y-64031100D02*
X128324600Y-63500000D01*
X112228000Y-102870000D02*
X112645300Y-102870000D01*
X127000000Y-63500000D02*
X128324600Y-63500000D01*
X128855700Y-86659600D02*
X128855700Y-64031100D01*
X112645300Y-102870000D02*
X128855700Y-86659600D01*
X106090000Y-109008000D02*
X112228000Y-102870000D01*
%TD*%
%TA.AperFunction,Conductor*%
%TO.N,GND*%
G36*
X131513621Y-50888502D02*
G01*
X131560114Y-50942158D01*
X131571500Y-50994500D01*
X131571500Y-121725500D01*
X131551498Y-121793621D01*
X131497842Y-121840114D01*
X131445500Y-121851500D01*
X85214500Y-121851500D01*
X85146379Y-121831498D01*
X85099886Y-121777842D01*
X85088500Y-121725500D01*
X85088500Y-119492703D01*
X85470743Y-119492703D01*
X85508268Y-119777734D01*
X85584129Y-120055036D01*
X85696923Y-120319476D01*
X85844561Y-120566161D01*
X86024313Y-120790528D01*
X86232851Y-120988423D01*
X86466317Y-121156186D01*
X86470112Y-121158195D01*
X86470113Y-121158196D01*
X86491869Y-121169715D01*
X86720392Y-121290712D01*
X86990373Y-121389511D01*
X87271264Y-121450755D01*
X87299841Y-121453004D01*
X87494282Y-121468307D01*
X87494291Y-121468307D01*
X87496739Y-121468500D01*
X87652271Y-121468500D01*
X87654407Y-121468354D01*
X87654418Y-121468354D01*
X87862548Y-121454165D01*
X87862554Y-121454164D01*
X87866825Y-121453873D01*
X87871020Y-121453004D01*
X87871022Y-121453004D01*
X88007584Y-121424723D01*
X88148342Y-121395574D01*
X88419343Y-121299607D01*
X88674812Y-121167750D01*
X88678313Y-121165289D01*
X88678317Y-121165287D01*
X88792417Y-121085096D01*
X88910023Y-121002441D01*
X89120622Y-120806740D01*
X89302713Y-120584268D01*
X89452927Y-120339142D01*
X89568483Y-120075898D01*
X89647244Y-119799406D01*
X89687751Y-119514784D01*
X89687845Y-119496951D01*
X89687867Y-119492703D01*
X126970743Y-119492703D01*
X127008268Y-119777734D01*
X127084129Y-120055036D01*
X127196923Y-120319476D01*
X127344561Y-120566161D01*
X127524313Y-120790528D01*
X127732851Y-120988423D01*
X127966317Y-121156186D01*
X127970112Y-121158195D01*
X127970113Y-121158196D01*
X127991869Y-121169715D01*
X128220392Y-121290712D01*
X128490373Y-121389511D01*
X128771264Y-121450755D01*
X128799841Y-121453004D01*
X128994282Y-121468307D01*
X128994291Y-121468307D01*
X128996739Y-121468500D01*
X129152271Y-121468500D01*
X129154407Y-121468354D01*
X129154418Y-121468354D01*
X129362548Y-121454165D01*
X129362554Y-121454164D01*
X129366825Y-121453873D01*
X129371020Y-121453004D01*
X129371022Y-121453004D01*
X129507584Y-121424723D01*
X129648342Y-121395574D01*
X129919343Y-121299607D01*
X130174812Y-121167750D01*
X130178313Y-121165289D01*
X130178317Y-121165287D01*
X130292417Y-121085096D01*
X130410023Y-121002441D01*
X130620622Y-120806740D01*
X130802713Y-120584268D01*
X130952927Y-120339142D01*
X131068483Y-120075898D01*
X131147244Y-119799406D01*
X131187751Y-119514784D01*
X131187845Y-119496951D01*
X131189235Y-119231583D01*
X131189235Y-119231576D01*
X131189257Y-119227297D01*
X131151732Y-118942266D01*
X131075871Y-118664964D01*
X130963077Y-118400524D01*
X130815439Y-118153839D01*
X130635687Y-117929472D01*
X130427149Y-117731577D01*
X130193683Y-117563814D01*
X130171843Y-117552250D01*
X130148654Y-117539972D01*
X129939608Y-117429288D01*
X129669627Y-117330489D01*
X129388736Y-117269245D01*
X129357685Y-117266801D01*
X129165718Y-117251693D01*
X129165709Y-117251693D01*
X129163261Y-117251500D01*
X129007729Y-117251500D01*
X129005593Y-117251646D01*
X129005582Y-117251646D01*
X128797452Y-117265835D01*
X128797446Y-117265836D01*
X128793175Y-117266127D01*
X128788980Y-117266996D01*
X128788978Y-117266996D01*
X128652417Y-117295276D01*
X128511658Y-117324426D01*
X128240657Y-117420393D01*
X127985188Y-117552250D01*
X127981687Y-117554711D01*
X127981683Y-117554713D01*
X127971594Y-117561804D01*
X127749977Y-117717559D01*
X127539378Y-117913260D01*
X127357287Y-118135732D01*
X127207073Y-118380858D01*
X127091517Y-118644102D01*
X127012756Y-118920594D01*
X126972249Y-119205216D01*
X126972227Y-119209505D01*
X126972226Y-119209512D01*
X126970765Y-119488417D01*
X126970743Y-119492703D01*
X89687867Y-119492703D01*
X89689235Y-119231583D01*
X89689235Y-119231576D01*
X89689257Y-119227297D01*
X89651732Y-118942266D01*
X89575871Y-118664964D01*
X89463077Y-118400524D01*
X89315439Y-118153839D01*
X89135687Y-117929472D01*
X88927149Y-117731577D01*
X88693683Y-117563814D01*
X88671843Y-117552250D01*
X88648654Y-117539972D01*
X88439608Y-117429288D01*
X88169627Y-117330489D01*
X87888736Y-117269245D01*
X87857685Y-117266801D01*
X87665718Y-117251693D01*
X87665709Y-117251693D01*
X87663261Y-117251500D01*
X87507729Y-117251500D01*
X87505593Y-117251646D01*
X87505582Y-117251646D01*
X87297452Y-117265835D01*
X87297446Y-117265836D01*
X87293175Y-117266127D01*
X87288980Y-117266996D01*
X87288978Y-117266996D01*
X87152417Y-117295276D01*
X87011658Y-117324426D01*
X86740657Y-117420393D01*
X86485188Y-117552250D01*
X86481687Y-117554711D01*
X86481683Y-117554713D01*
X86471594Y-117561804D01*
X86249977Y-117717559D01*
X86039378Y-117913260D01*
X85857287Y-118135732D01*
X85707073Y-118380858D01*
X85591517Y-118644102D01*
X85512756Y-118920594D01*
X85472249Y-119205216D01*
X85472227Y-119209505D01*
X85472226Y-119209512D01*
X85470765Y-119488417D01*
X85470743Y-119492703D01*
X85088500Y-119492703D01*
X85088500Y-116618134D01*
X96961500Y-116618134D01*
X96968255Y-116680316D01*
X97019385Y-116816705D01*
X97106739Y-116933261D01*
X97223295Y-117020615D01*
X97359684Y-117071745D01*
X97421866Y-117078500D01*
X99518134Y-117078500D01*
X99580316Y-117071745D01*
X99716705Y-117020615D01*
X99833261Y-116933261D01*
X99915230Y-116823891D01*
X99915230Y-116823890D01*
X99920615Y-116816705D01*
X99920673Y-116816550D01*
X99967791Y-116769537D01*
X100037182Y-116754522D01*
X100103675Y-116779406D01*
X100109886Y-116784381D01*
X100117117Y-116790557D01*
X100125101Y-116796357D01*
X100319042Y-116915205D01*
X100327837Y-116919687D01*
X100537988Y-117006734D01*
X100547373Y-117009783D01*
X100768554Y-117062885D01*
X100778301Y-117064428D01*
X101005070Y-117082275D01*
X101014930Y-117082275D01*
X101241699Y-117064428D01*
X101251446Y-117062885D01*
X101472627Y-117009783D01*
X101482012Y-117006734D01*
X101692163Y-116919687D01*
X101700958Y-116915205D01*
X101868445Y-116812568D01*
X101877907Y-116802110D01*
X101874124Y-116793334D01*
X100739885Y-115659095D01*
X100705859Y-115596783D01*
X100710924Y-115525968D01*
X100739885Y-115480905D01*
X101871080Y-114349710D01*
X101877840Y-114337330D01*
X101872113Y-114329680D01*
X101700958Y-114224795D01*
X101692163Y-114220313D01*
X101482012Y-114133266D01*
X101472627Y-114130217D01*
X101251446Y-114077115D01*
X101241699Y-114075572D01*
X101014930Y-114057725D01*
X101005070Y-114057725D01*
X100778301Y-114075572D01*
X100768554Y-114077115D01*
X100547373Y-114130217D01*
X100537988Y-114133266D01*
X100327837Y-114220313D01*
X100319042Y-114224795D01*
X100125101Y-114343643D01*
X100117117Y-114349443D01*
X100109886Y-114355619D01*
X100045096Y-114384651D01*
X99974896Y-114374047D01*
X99922312Y-114327823D01*
X99920615Y-114323295D01*
X99915230Y-114316110D01*
X99915229Y-114316108D01*
X99838642Y-114213919D01*
X99833261Y-114206739D01*
X99716705Y-114119385D01*
X99580316Y-114068255D01*
X99518134Y-114061500D01*
X97421866Y-114061500D01*
X97359684Y-114068255D01*
X97223295Y-114119385D01*
X97106739Y-114206739D01*
X97019385Y-114323295D01*
X96968255Y-114459684D01*
X96961500Y-114521866D01*
X96961500Y-116618134D01*
X85088500Y-116618134D01*
X85088500Y-103290000D01*
X89536502Y-103290000D01*
X89556457Y-103518087D01*
X89557881Y-103523400D01*
X89557881Y-103523402D01*
X89613347Y-103730400D01*
X89615716Y-103739243D01*
X89618039Y-103744224D01*
X89618039Y-103744225D01*
X89710151Y-103941762D01*
X89710154Y-103941767D01*
X89712477Y-103946749D01*
X89843802Y-104134300D01*
X90005700Y-104296198D01*
X90010208Y-104299355D01*
X90010211Y-104299357D01*
X90075646Y-104345175D01*
X90193251Y-104427523D01*
X90198233Y-104429846D01*
X90198238Y-104429849D01*
X90394765Y-104521490D01*
X90400757Y-104524284D01*
X90406065Y-104525706D01*
X90406067Y-104525707D01*
X90616598Y-104582119D01*
X90616600Y-104582119D01*
X90621913Y-104583543D01*
X90850000Y-104603498D01*
X91078087Y-104583543D01*
X91083400Y-104582119D01*
X91083402Y-104582119D01*
X91293933Y-104525707D01*
X91293935Y-104525706D01*
X91299243Y-104524284D01*
X91305235Y-104521490D01*
X91501762Y-104429849D01*
X91501767Y-104429846D01*
X91506749Y-104427523D01*
X91624354Y-104345175D01*
X91689789Y-104299357D01*
X91689792Y-104299355D01*
X91694300Y-104296198D01*
X91856198Y-104134300D01*
X91987523Y-103946749D01*
X91989846Y-103941767D01*
X91989849Y-103941762D01*
X92005805Y-103907543D01*
X92052722Y-103854258D01*
X92120999Y-103834797D01*
X92188959Y-103855339D01*
X92234195Y-103907543D01*
X92250151Y-103941762D01*
X92250154Y-103941767D01*
X92252477Y-103946749D01*
X92383802Y-104134300D01*
X92545700Y-104296198D01*
X92550208Y-104299355D01*
X92550211Y-104299357D01*
X92615646Y-104345175D01*
X92733251Y-104427523D01*
X92738233Y-104429846D01*
X92738238Y-104429849D01*
X92934765Y-104521490D01*
X92940757Y-104524284D01*
X92946065Y-104525706D01*
X92946067Y-104525707D01*
X93156598Y-104582119D01*
X93156600Y-104582119D01*
X93161913Y-104583543D01*
X93390000Y-104603498D01*
X93618087Y-104583543D01*
X93623400Y-104582119D01*
X93623402Y-104582119D01*
X93833933Y-104525707D01*
X93833935Y-104525706D01*
X93839243Y-104524284D01*
X93845235Y-104521490D01*
X94041762Y-104429849D01*
X94041767Y-104429846D01*
X94046749Y-104427523D01*
X94164354Y-104345175D01*
X94229789Y-104299357D01*
X94229792Y-104299355D01*
X94234300Y-104296198D01*
X94396198Y-104134300D01*
X94527523Y-103946749D01*
X94529846Y-103941767D01*
X94529849Y-103941762D01*
X94545805Y-103907543D01*
X94592722Y-103854258D01*
X94660999Y-103834797D01*
X94728959Y-103855339D01*
X94774195Y-103907543D01*
X94790151Y-103941762D01*
X94790154Y-103941767D01*
X94792477Y-103946749D01*
X94923802Y-104134300D01*
X95085700Y-104296198D01*
X95090208Y-104299355D01*
X95090211Y-104299357D01*
X95155646Y-104345175D01*
X95273251Y-104427523D01*
X95278233Y-104429846D01*
X95278238Y-104429849D01*
X95474765Y-104521490D01*
X95480757Y-104524284D01*
X95486065Y-104525706D01*
X95486067Y-104525707D01*
X95696598Y-104582119D01*
X95696600Y-104582119D01*
X95701913Y-104583543D01*
X95930000Y-104603498D01*
X96158087Y-104583543D01*
X96163400Y-104582119D01*
X96163402Y-104582119D01*
X96373933Y-104525707D01*
X96373935Y-104525706D01*
X96379243Y-104524284D01*
X96385235Y-104521490D01*
X96581762Y-104429849D01*
X96581767Y-104429846D01*
X96586749Y-104427523D01*
X96660243Y-104376062D01*
X97748493Y-104376062D01*
X97757789Y-104388077D01*
X97808994Y-104423931D01*
X97818489Y-104429414D01*
X98015947Y-104521490D01*
X98026239Y-104525236D01*
X98236688Y-104581625D01*
X98247481Y-104583528D01*
X98464525Y-104602517D01*
X98475475Y-104602517D01*
X98692519Y-104583528D01*
X98703312Y-104581625D01*
X98913761Y-104525236D01*
X98924053Y-104521490D01*
X99121511Y-104429414D01*
X99131006Y-104423931D01*
X99183048Y-104387491D01*
X99191424Y-104377012D01*
X99184356Y-104363566D01*
X98482812Y-103662022D01*
X98468868Y-103654408D01*
X98467035Y-103654539D01*
X98460420Y-103658790D01*
X97754923Y-104364287D01*
X97748493Y-104376062D01*
X96660243Y-104376062D01*
X96704354Y-104345175D01*
X96769789Y-104299357D01*
X96769792Y-104299355D01*
X96774300Y-104296198D01*
X96936198Y-104134300D01*
X97067523Y-103946749D01*
X97069846Y-103941767D01*
X97069849Y-103941762D01*
X97086081Y-103906951D01*
X97132998Y-103853666D01*
X97201275Y-103834205D01*
X97269235Y-103854747D01*
X97314471Y-103906951D01*
X97330586Y-103941511D01*
X97336069Y-103951006D01*
X97372509Y-104003048D01*
X97382988Y-104011424D01*
X97396434Y-104004356D01*
X98097978Y-103302812D01*
X98105592Y-103288868D01*
X98105461Y-103287035D01*
X98101210Y-103280420D01*
X97395713Y-102574923D01*
X97383938Y-102568493D01*
X97371923Y-102577789D01*
X97336069Y-102628994D01*
X97330586Y-102638489D01*
X97314471Y-102673049D01*
X97267554Y-102726334D01*
X97199277Y-102745795D01*
X97131317Y-102725253D01*
X97086081Y-102673049D01*
X97069849Y-102638238D01*
X97069846Y-102638233D01*
X97067523Y-102633251D01*
X96936198Y-102445700D01*
X96774300Y-102283802D01*
X96769792Y-102280645D01*
X96769789Y-102280643D01*
X96658886Y-102202988D01*
X97748576Y-102202988D01*
X97755644Y-102216434D01*
X98457188Y-102917978D01*
X98471132Y-102925592D01*
X98472965Y-102925461D01*
X98479580Y-102921210D01*
X99185077Y-102215713D01*
X99191507Y-102203938D01*
X99182211Y-102191923D01*
X99131006Y-102156069D01*
X99121511Y-102150586D01*
X98924053Y-102058510D01*
X98913761Y-102054764D01*
X98703312Y-101998375D01*
X98692519Y-101996472D01*
X98475475Y-101977483D01*
X98464525Y-101977483D01*
X98247481Y-101996472D01*
X98236688Y-101998375D01*
X98026239Y-102054764D01*
X98015947Y-102058510D01*
X97818489Y-102150586D01*
X97808994Y-102156069D01*
X97756952Y-102192509D01*
X97748576Y-102202988D01*
X96658886Y-102202988D01*
X96643920Y-102192509D01*
X96586749Y-102152477D01*
X96581767Y-102150154D01*
X96581762Y-102150151D01*
X96384225Y-102058039D01*
X96384224Y-102058039D01*
X96379243Y-102055716D01*
X96373935Y-102054294D01*
X96373933Y-102054293D01*
X96163402Y-101997881D01*
X96163400Y-101997881D01*
X96158087Y-101996457D01*
X95930000Y-101976502D01*
X95701913Y-101996457D01*
X95696600Y-101997881D01*
X95696598Y-101997881D01*
X95486067Y-102054293D01*
X95486065Y-102054294D01*
X95480757Y-102055716D01*
X95475776Y-102058039D01*
X95475775Y-102058039D01*
X95278238Y-102150151D01*
X95278233Y-102150154D01*
X95273251Y-102152477D01*
X95216080Y-102192509D01*
X95090211Y-102280643D01*
X95090208Y-102280645D01*
X95085700Y-102283802D01*
X94923802Y-102445700D01*
X94792477Y-102633251D01*
X94790154Y-102638233D01*
X94790151Y-102638238D01*
X94774195Y-102672457D01*
X94727278Y-102725742D01*
X94659001Y-102745203D01*
X94591041Y-102724661D01*
X94545805Y-102672457D01*
X94529849Y-102638238D01*
X94529846Y-102638233D01*
X94527523Y-102633251D01*
X94396198Y-102445700D01*
X94234300Y-102283802D01*
X94229792Y-102280645D01*
X94229789Y-102280643D01*
X94077229Y-102173819D01*
X94032901Y-102118362D01*
X94023500Y-102070606D01*
X94023500Y-84724594D01*
X94043502Y-84656473D01*
X94060405Y-84635499D01*
X108336135Y-70359769D01*
X109152807Y-70359769D01*
X109170874Y-70558295D01*
X109172615Y-70564209D01*
X109172615Y-70564211D01*
X109210921Y-70694361D01*
X109227158Y-70749530D01*
X109319514Y-70926191D01*
X109444425Y-71081549D01*
X109597133Y-71209686D01*
X109771821Y-71305721D01*
X109777688Y-71307582D01*
X109777690Y-71307583D01*
X109955958Y-71364134D01*
X109955961Y-71364135D01*
X109961835Y-71365998D01*
X110116984Y-71383400D01*
X111240357Y-71383400D01*
X111243413Y-71383100D01*
X111243420Y-71383100D01*
X111302441Y-71377313D01*
X111388594Y-71368865D01*
X111394493Y-71367084D01*
X111394498Y-71367083D01*
X111573533Y-71313029D01*
X111579432Y-71311248D01*
X111683561Y-71255882D01*
X111750002Y-71220555D01*
X111750005Y-71220553D01*
X111755444Y-71217661D01*
X111760214Y-71213771D01*
X111760218Y-71213768D01*
X111905151Y-71095563D01*
X111905154Y-71095560D01*
X111909926Y-71091668D01*
X111929845Y-71067591D01*
X111973460Y-71014869D01*
X112036994Y-70938070D01*
X112131808Y-70762715D01*
X112190756Y-70572285D01*
X112191605Y-70564211D01*
X112210949Y-70380160D01*
X112210949Y-70380158D01*
X112211593Y-70374031D01*
X112193526Y-70175505D01*
X112191212Y-70167641D01*
X112138984Y-69990189D01*
X112137242Y-69984270D01*
X112044886Y-69807609D01*
X111919975Y-69652251D01*
X111767267Y-69524114D01*
X111592579Y-69428079D01*
X111586712Y-69426218D01*
X111586710Y-69426217D01*
X111408442Y-69369666D01*
X111408439Y-69369665D01*
X111402565Y-69367802D01*
X111247416Y-69350400D01*
X110124043Y-69350400D01*
X110120987Y-69350700D01*
X110120980Y-69350700D01*
X110061959Y-69356487D01*
X109975806Y-69364935D01*
X109969907Y-69366716D01*
X109969902Y-69366717D01*
X109791243Y-69420658D01*
X109784968Y-69422552D01*
X109696962Y-69469345D01*
X109614398Y-69513245D01*
X109614395Y-69513247D01*
X109608956Y-69516139D01*
X109604186Y-69520029D01*
X109604182Y-69520032D01*
X109459249Y-69638237D01*
X109459246Y-69638240D01*
X109454474Y-69642132D01*
X109327406Y-69795730D01*
X109232592Y-69971085D01*
X109173644Y-70161515D01*
X109173000Y-70167640D01*
X109173000Y-70167641D01*
X109172174Y-70175505D01*
X109152807Y-70359769D01*
X108336135Y-70359769D01*
X113457945Y-65237959D01*
X113520257Y-65203933D01*
X113591072Y-65208998D01*
X113610419Y-65218154D01*
X113646319Y-65239049D01*
X113651045Y-65240863D01*
X113651049Y-65240865D01*
X113868138Y-65324197D01*
X113868141Y-65324198D01*
X113872867Y-65326012D01*
X114110404Y-65375636D01*
X114115453Y-65375865D01*
X114115459Y-65375866D01*
X114226078Y-65380889D01*
X114352819Y-65386644D01*
X114357839Y-65386063D01*
X114357843Y-65386063D01*
X114465698Y-65373584D01*
X114593876Y-65358753D01*
X114598750Y-65357374D01*
X114598754Y-65357373D01*
X114822504Y-65294058D01*
X114822506Y-65294057D01*
X114827373Y-65292680D01*
X114831948Y-65290546D01*
X114831955Y-65290544D01*
X115042721Y-65192262D01*
X115042725Y-65192260D01*
X115047303Y-65190125D01*
X115060854Y-65180916D01*
X115243819Y-65056573D01*
X115243823Y-65056570D01*
X115248006Y-65053727D01*
X115424321Y-64886995D01*
X115469459Y-64827957D01*
X115526721Y-64785991D01*
X115597585Y-64781646D01*
X115664067Y-64821163D01*
X115785726Y-64959159D01*
X115785729Y-64959162D01*
X115789074Y-64962956D01*
X115976590Y-65116983D01*
X116143884Y-65214351D01*
X116192694Y-65265902D01*
X116206500Y-65323247D01*
X116206500Y-68659506D01*
X116186498Y-68727627D01*
X116169595Y-68748601D01*
X112342375Y-72575821D01*
X112280063Y-72609847D01*
X112209248Y-72604782D01*
X112152412Y-72562235D01*
X112137890Y-72536472D01*
X112137242Y-72534270D01*
X112044886Y-72357609D01*
X111919975Y-72202251D01*
X111767267Y-72074114D01*
X111592579Y-71978079D01*
X111586712Y-71976218D01*
X111586710Y-71976217D01*
X111408442Y-71919666D01*
X111408439Y-71919665D01*
X111402565Y-71917802D01*
X111247416Y-71900400D01*
X110124043Y-71900400D01*
X110120987Y-71900700D01*
X110120980Y-71900700D01*
X110061959Y-71906487D01*
X109975806Y-71914935D01*
X109969907Y-71916716D01*
X109969902Y-71916717D01*
X109804424Y-71966678D01*
X109784968Y-71972552D01*
X109752580Y-71989773D01*
X109614398Y-72063245D01*
X109614395Y-72063247D01*
X109608956Y-72066139D01*
X109604186Y-72070029D01*
X109604182Y-72070032D01*
X109459249Y-72188237D01*
X109459246Y-72188240D01*
X109454474Y-72192132D01*
X109327406Y-72345730D01*
X109232592Y-72521085D01*
X109173644Y-72711515D01*
X109152807Y-72909769D01*
X109170874Y-73108295D01*
X109172615Y-73114209D01*
X109172615Y-73114211D01*
X109210921Y-73244361D01*
X109227158Y-73299530D01*
X109319514Y-73476191D01*
X109323374Y-73480991D01*
X109323374Y-73480992D01*
X109340906Y-73502797D01*
X109444425Y-73631549D01*
X109597133Y-73759686D01*
X109771821Y-73855721D01*
X109777688Y-73857582D01*
X109777690Y-73857583D01*
X109955958Y-73914134D01*
X109955961Y-73914135D01*
X109961835Y-73915998D01*
X110116984Y-73933400D01*
X110680606Y-73933400D01*
X110748727Y-73953402D01*
X110795220Y-74007058D01*
X110805324Y-74077332D01*
X110775830Y-74141912D01*
X110769701Y-74148495D01*
X105689242Y-79228953D01*
X100617747Y-84300448D01*
X100609461Y-84307988D01*
X100602982Y-84312100D01*
X100597557Y-84317877D01*
X100556357Y-84361751D01*
X100553602Y-84364593D01*
X100533865Y-84384330D01*
X100531385Y-84387527D01*
X100523682Y-84396547D01*
X100493414Y-84428779D01*
X100489595Y-84435725D01*
X100489593Y-84435728D01*
X100483652Y-84446534D01*
X100472801Y-84463053D01*
X100460386Y-84479059D01*
X100457241Y-84486328D01*
X100457238Y-84486332D01*
X100442826Y-84519637D01*
X100437609Y-84530287D01*
X100416305Y-84569040D01*
X100414334Y-84576715D01*
X100414334Y-84576716D01*
X100411267Y-84588662D01*
X100404863Y-84607366D01*
X100396819Y-84625955D01*
X100395580Y-84633778D01*
X100395577Y-84633788D01*
X100389901Y-84669624D01*
X100387495Y-84681244D01*
X100376500Y-84724070D01*
X100376500Y-84744324D01*
X100374949Y-84764034D01*
X100371780Y-84784043D01*
X100375656Y-84825041D01*
X100375941Y-84828061D01*
X100376500Y-84839919D01*
X100376500Y-102070606D01*
X100356498Y-102138727D01*
X100322771Y-102173819D01*
X100170211Y-102280643D01*
X100170208Y-102280645D01*
X100165700Y-102283802D01*
X100003802Y-102445700D01*
X99872477Y-102633251D01*
X99870154Y-102638233D01*
X99870151Y-102638238D01*
X99853919Y-102673049D01*
X99807002Y-102726334D01*
X99738725Y-102745795D01*
X99670765Y-102725253D01*
X99625529Y-102673049D01*
X99609414Y-102638489D01*
X99603931Y-102628994D01*
X99567491Y-102576952D01*
X99557012Y-102568576D01*
X99543566Y-102575644D01*
X98842022Y-103277188D01*
X98834408Y-103291132D01*
X98834539Y-103292965D01*
X98838790Y-103299580D01*
X99544287Y-104005077D01*
X99556062Y-104011507D01*
X99568077Y-104002211D01*
X99603931Y-103951006D01*
X99609414Y-103941511D01*
X99625529Y-103906951D01*
X99672446Y-103853666D01*
X99740723Y-103834205D01*
X99808683Y-103854747D01*
X99853919Y-103906951D01*
X99870151Y-103941762D01*
X99870154Y-103941767D01*
X99872477Y-103946749D01*
X100003802Y-104134300D01*
X100165700Y-104296198D01*
X100170208Y-104299355D01*
X100170211Y-104299357D01*
X100235646Y-104345175D01*
X100353251Y-104427523D01*
X100358233Y-104429846D01*
X100358238Y-104429849D01*
X100554765Y-104521490D01*
X100560757Y-104524284D01*
X100566065Y-104525706D01*
X100566067Y-104525707D01*
X100776598Y-104582119D01*
X100776600Y-104582119D01*
X100781913Y-104583543D01*
X101010000Y-104603498D01*
X101238087Y-104583543D01*
X101243400Y-104582119D01*
X101243402Y-104582119D01*
X101453933Y-104525707D01*
X101453935Y-104525706D01*
X101459243Y-104524284D01*
X101465235Y-104521490D01*
X101661762Y-104429849D01*
X101661767Y-104429846D01*
X101666749Y-104427523D01*
X101784354Y-104345175D01*
X101849789Y-104299357D01*
X101849792Y-104299355D01*
X101854300Y-104296198D01*
X102016198Y-104134300D01*
X102147523Y-103946749D01*
X102149846Y-103941767D01*
X102149849Y-103941762D01*
X102165805Y-103907543D01*
X102212722Y-103854258D01*
X102280999Y-103834797D01*
X102348959Y-103855339D01*
X102394195Y-103907543D01*
X102410151Y-103941762D01*
X102410154Y-103941767D01*
X102412477Y-103946749D01*
X102543802Y-104134300D01*
X102705700Y-104296198D01*
X102710208Y-104299355D01*
X102710211Y-104299357D01*
X102775646Y-104345175D01*
X102893251Y-104427523D01*
X102898233Y-104429846D01*
X102898238Y-104429849D01*
X103094765Y-104521490D01*
X103100757Y-104524284D01*
X103106065Y-104525706D01*
X103106067Y-104525707D01*
X103316598Y-104582119D01*
X103316600Y-104582119D01*
X103321913Y-104583543D01*
X103550000Y-104603498D01*
X103778087Y-104583543D01*
X103783400Y-104582119D01*
X103783402Y-104582119D01*
X103993933Y-104525707D01*
X103993935Y-104525706D01*
X103999243Y-104524284D01*
X104005235Y-104521490D01*
X104201762Y-104429849D01*
X104201767Y-104429846D01*
X104206749Y-104427523D01*
X104324354Y-104345175D01*
X104389789Y-104299357D01*
X104389792Y-104299355D01*
X104394300Y-104296198D01*
X104556198Y-104134300D01*
X104687523Y-103946749D01*
X104689846Y-103941767D01*
X104689849Y-103941762D01*
X104781961Y-103744225D01*
X104781961Y-103744224D01*
X104784284Y-103739243D01*
X104786654Y-103730400D01*
X104842119Y-103523402D01*
X104842119Y-103523400D01*
X104843543Y-103518087D01*
X104863498Y-103290000D01*
X104843543Y-103061913D01*
X104806981Y-102925461D01*
X104785707Y-102846067D01*
X104785706Y-102846065D01*
X104784284Y-102840757D01*
X104689966Y-102638489D01*
X104689849Y-102638238D01*
X104689846Y-102638233D01*
X104687523Y-102633251D01*
X104556198Y-102445700D01*
X104394300Y-102283802D01*
X104389792Y-102280645D01*
X104389789Y-102280643D01*
X104263920Y-102192509D01*
X104206749Y-102152477D01*
X104201767Y-102150154D01*
X104201762Y-102150151D01*
X104004225Y-102058039D01*
X104004224Y-102058039D01*
X103999243Y-102055716D01*
X103993935Y-102054294D01*
X103993933Y-102054293D01*
X103783402Y-101997881D01*
X103783400Y-101997881D01*
X103778087Y-101996457D01*
X103550000Y-101976502D01*
X103321913Y-101996457D01*
X103316600Y-101997881D01*
X103316598Y-101997881D01*
X103106067Y-102054293D01*
X103106065Y-102054294D01*
X103100757Y-102055716D01*
X103095776Y-102058039D01*
X103095775Y-102058039D01*
X102898238Y-102150151D01*
X102898233Y-102150154D01*
X102893251Y-102152477D01*
X102836080Y-102192509D01*
X102710211Y-102280643D01*
X102710208Y-102280645D01*
X102705700Y-102283802D01*
X102543802Y-102445700D01*
X102412477Y-102633251D01*
X102410154Y-102638233D01*
X102410151Y-102638238D01*
X102394195Y-102672457D01*
X102347278Y-102725742D01*
X102279001Y-102745203D01*
X102211041Y-102724661D01*
X102165805Y-102672457D01*
X102149849Y-102638238D01*
X102149846Y-102638233D01*
X102147523Y-102633251D01*
X102016198Y-102445700D01*
X101854300Y-102283802D01*
X101849792Y-102280645D01*
X101849789Y-102280643D01*
X101697229Y-102173819D01*
X101652901Y-102118362D01*
X101643500Y-102070606D01*
X101643500Y-99065475D01*
X111227865Y-99065475D01*
X111245329Y-99265091D01*
X111247231Y-99275878D01*
X111299093Y-99469429D01*
X111302841Y-99479723D01*
X111387521Y-99661323D01*
X111392999Y-99670811D01*
X111414311Y-99701248D01*
X111424788Y-99709623D01*
X111438236Y-99702554D01*
X112067978Y-99072812D01*
X112075592Y-99058868D01*
X112075461Y-99057035D01*
X112071210Y-99050420D01*
X111437514Y-98416724D01*
X111425739Y-98410294D01*
X111413724Y-98419590D01*
X111392999Y-98449189D01*
X111387521Y-98458677D01*
X111302841Y-98640277D01*
X111299093Y-98650571D01*
X111247231Y-98844122D01*
X111245329Y-98854909D01*
X111227865Y-99054525D01*
X111227865Y-99065475D01*
X101643500Y-99065475D01*
X101643500Y-85118694D01*
X101663502Y-85050573D01*
X101680405Y-85029599D01*
X109576805Y-77133199D01*
X109639117Y-77099173D01*
X109709932Y-77104238D01*
X109766768Y-77146785D01*
X109791579Y-77213305D01*
X109791900Y-77222294D01*
X109791900Y-86806633D01*
X109791373Y-86817816D01*
X109789698Y-86825309D01*
X109789947Y-86833235D01*
X109789947Y-86833236D01*
X109791838Y-86893386D01*
X109791900Y-86897345D01*
X109791900Y-86925256D01*
X109792397Y-86929190D01*
X109792397Y-86929191D01*
X109792405Y-86929256D01*
X109793338Y-86941093D01*
X109794727Y-86985289D01*
X109800378Y-87004739D01*
X109804387Y-87024100D01*
X109806926Y-87044197D01*
X109809845Y-87051568D01*
X109809845Y-87051570D01*
X109823204Y-87085312D01*
X109827049Y-87096542D01*
X109839382Y-87138993D01*
X109843415Y-87145812D01*
X109843417Y-87145817D01*
X109849693Y-87156428D01*
X109858388Y-87174176D01*
X109865848Y-87193017D01*
X109870510Y-87199433D01*
X109870510Y-87199434D01*
X109891836Y-87228787D01*
X109898352Y-87238707D01*
X109920858Y-87276762D01*
X109935179Y-87291083D01*
X109948019Y-87306116D01*
X109959928Y-87322507D01*
X109966034Y-87327558D01*
X109994005Y-87350698D01*
X110002784Y-87358688D01*
X111212557Y-88568461D01*
X111246583Y-88630773D01*
X111247548Y-88679437D01*
X111246738Y-88684029D01*
X111245314Y-88689345D01*
X111226884Y-88900000D01*
X111245314Y-89110655D01*
X111246738Y-89115968D01*
X111246738Y-89115970D01*
X111273945Y-89217506D01*
X111300044Y-89314910D01*
X111389411Y-89506558D01*
X111510699Y-89679776D01*
X111588714Y-89757791D01*
X111622740Y-89820103D01*
X111617675Y-89890918D01*
X111588714Y-89935982D01*
X111004042Y-90520653D01*
X110995763Y-90528187D01*
X110989282Y-90532300D01*
X110942657Y-90581951D01*
X110939902Y-90584793D01*
X110920165Y-90604530D01*
X110917685Y-90607727D01*
X110909982Y-90616747D01*
X110879714Y-90648979D01*
X110875895Y-90655925D01*
X110875893Y-90655928D01*
X110869952Y-90666734D01*
X110859101Y-90683253D01*
X110846686Y-90699259D01*
X110843541Y-90706528D01*
X110843538Y-90706532D01*
X110829126Y-90739837D01*
X110823909Y-90750487D01*
X110802605Y-90789240D01*
X110800634Y-90796915D01*
X110800634Y-90796916D01*
X110797567Y-90808862D01*
X110791163Y-90827566D01*
X110783119Y-90846155D01*
X110781880Y-90853978D01*
X110781877Y-90853988D01*
X110776201Y-90889824D01*
X110773795Y-90901444D01*
X110762800Y-90944270D01*
X110762800Y-90964524D01*
X110761249Y-90984234D01*
X110758080Y-91004243D01*
X110758826Y-91012135D01*
X110762241Y-91048261D01*
X110762800Y-91060119D01*
X110762800Y-95397533D01*
X110762273Y-95408716D01*
X110760598Y-95416209D01*
X110760847Y-95424135D01*
X110760847Y-95424136D01*
X110762738Y-95484286D01*
X110762800Y-95488245D01*
X110762800Y-95516156D01*
X110763297Y-95520090D01*
X110763297Y-95520091D01*
X110763305Y-95520156D01*
X110764238Y-95531993D01*
X110765627Y-95576189D01*
X110770974Y-95594594D01*
X110771278Y-95595639D01*
X110775287Y-95615000D01*
X110777826Y-95635097D01*
X110780745Y-95642468D01*
X110780745Y-95642470D01*
X110794104Y-95676212D01*
X110797949Y-95687442D01*
X110810282Y-95729893D01*
X110814315Y-95736712D01*
X110814317Y-95736717D01*
X110820593Y-95747328D01*
X110829288Y-95765076D01*
X110836748Y-95783917D01*
X110841410Y-95790333D01*
X110841410Y-95790334D01*
X110862736Y-95819687D01*
X110869252Y-95829607D01*
X110891758Y-95867662D01*
X110906079Y-95881983D01*
X110918919Y-95897016D01*
X110930828Y-95913407D01*
X110936934Y-95918458D01*
X110964905Y-95941598D01*
X110973684Y-95949588D01*
X111212557Y-96188461D01*
X111246583Y-96250773D01*
X111247548Y-96299437D01*
X111246738Y-96304029D01*
X111245314Y-96309345D01*
X111226884Y-96520000D01*
X111245314Y-96730655D01*
X111300044Y-96934910D01*
X111389411Y-97126558D01*
X111510699Y-97299776D01*
X111660224Y-97449301D01*
X111833442Y-97570589D01*
X111838420Y-97572910D01*
X111838423Y-97572912D01*
X112010945Y-97653360D01*
X112025090Y-97659956D01*
X112030397Y-97661378D01*
X112030408Y-97661382D01*
X112057171Y-97668553D01*
X112117793Y-97705504D01*
X112148815Y-97769365D01*
X112140386Y-97839860D01*
X112095182Y-97894606D01*
X112057170Y-97911966D01*
X112030574Y-97919092D01*
X112020277Y-97922841D01*
X111838677Y-98007521D01*
X111829189Y-98012999D01*
X111798752Y-98034311D01*
X111790377Y-98044788D01*
X111797446Y-98058236D01*
X112710115Y-98970905D01*
X112744141Y-99033217D01*
X112739076Y-99104032D01*
X112710115Y-99149095D01*
X111796724Y-100062486D01*
X111790294Y-100074261D01*
X111799590Y-100086276D01*
X111829189Y-100107001D01*
X111838677Y-100112479D01*
X112020277Y-100197159D01*
X112030574Y-100200908D01*
X112057170Y-100208034D01*
X112117793Y-100244986D01*
X112148814Y-100308846D01*
X112140386Y-100379341D01*
X112095183Y-100434088D01*
X112057171Y-100451447D01*
X112030408Y-100458618D01*
X112030397Y-100458622D01*
X112025090Y-100460044D01*
X112020109Y-100462366D01*
X112020108Y-100462367D01*
X111838423Y-100547088D01*
X111838420Y-100547090D01*
X111833442Y-100549411D01*
X111660224Y-100670699D01*
X111510699Y-100820224D01*
X111389411Y-100993442D01*
X111300044Y-101185090D01*
X111245314Y-101389345D01*
X111226884Y-101600000D01*
X111245314Y-101810655D01*
X111246738Y-101815968D01*
X111246738Y-101815970D01*
X111295104Y-101996472D01*
X111300044Y-102014910D01*
X111302366Y-102019891D01*
X111302367Y-102019892D01*
X111382587Y-102191923D01*
X111389411Y-102206558D01*
X111510699Y-102379776D01*
X111577414Y-102446491D01*
X111611440Y-102508803D01*
X111606375Y-102579618D01*
X111577414Y-102624681D01*
X105697747Y-108504348D01*
X105689461Y-108511888D01*
X105682982Y-108516000D01*
X105677557Y-108521777D01*
X105636357Y-108565651D01*
X105633602Y-108568493D01*
X105613865Y-108588230D01*
X105611385Y-108591427D01*
X105603682Y-108600447D01*
X105573414Y-108632679D01*
X105569595Y-108639625D01*
X105569593Y-108639628D01*
X105563652Y-108650434D01*
X105552801Y-108666953D01*
X105540386Y-108682959D01*
X105537241Y-108690228D01*
X105537238Y-108690232D01*
X105522826Y-108723537D01*
X105517609Y-108734187D01*
X105496305Y-108772940D01*
X105494334Y-108780615D01*
X105494334Y-108780616D01*
X105491267Y-108792562D01*
X105484863Y-108811266D01*
X105476819Y-108829855D01*
X105475580Y-108837678D01*
X105475577Y-108837688D01*
X105469901Y-108873524D01*
X105467495Y-108885144D01*
X105456500Y-108927970D01*
X105456500Y-108948224D01*
X105454949Y-108967934D01*
X105451780Y-108987943D01*
X105452526Y-108995835D01*
X105455941Y-109031961D01*
X105456500Y-109043819D01*
X105456500Y-114118434D01*
X105436498Y-114186555D01*
X105396335Y-114225867D01*
X105204798Y-114343241D01*
X105204792Y-114343245D01*
X105200584Y-114345824D01*
X105020031Y-114500031D01*
X105016823Y-114503787D01*
X105016818Y-114503792D01*
X104915811Y-114622056D01*
X104856361Y-114660866D01*
X104785366Y-114661372D01*
X104724189Y-114622056D01*
X104623182Y-114503792D01*
X104623177Y-114503787D01*
X104619969Y-114500031D01*
X104439416Y-114345824D01*
X104435208Y-114343245D01*
X104435202Y-114343241D01*
X104241183Y-114224346D01*
X104236963Y-114221760D01*
X104232393Y-114219867D01*
X104232389Y-114219865D01*
X104022167Y-114132789D01*
X104022165Y-114132788D01*
X104017594Y-114130895D01*
X103937391Y-114111640D01*
X103791524Y-114076620D01*
X103791518Y-114076619D01*
X103786711Y-114075465D01*
X103550000Y-114056835D01*
X103313289Y-114075465D01*
X103308482Y-114076619D01*
X103308476Y-114076620D01*
X103162609Y-114111640D01*
X103082406Y-114130895D01*
X103077835Y-114132788D01*
X103077833Y-114132789D01*
X102867611Y-114219865D01*
X102867607Y-114219867D01*
X102863037Y-114221760D01*
X102858817Y-114224346D01*
X102664798Y-114343241D01*
X102664792Y-114343245D01*
X102660584Y-114345824D01*
X102480031Y-114500031D01*
X102476823Y-114503787D01*
X102476818Y-114503792D01*
X102346294Y-114656616D01*
X102286844Y-114695426D01*
X102252442Y-114697640D01*
X102233333Y-114705877D01*
X101382022Y-115557188D01*
X101374408Y-115571132D01*
X101374539Y-115572965D01*
X101378790Y-115579580D01*
X102230290Y-116431080D01*
X102247102Y-116440260D01*
X102310350Y-116454020D01*
X102345775Y-116482776D01*
X102458464Y-116614717D01*
X102480031Y-116639969D01*
X102660584Y-116794176D01*
X102664792Y-116796755D01*
X102664798Y-116796759D01*
X102858084Y-116915205D01*
X102863037Y-116918240D01*
X102867607Y-116920133D01*
X102867611Y-116920135D01*
X103077833Y-117007211D01*
X103082406Y-117009105D01*
X103130349Y-117020615D01*
X103308476Y-117063380D01*
X103308482Y-117063381D01*
X103313289Y-117064535D01*
X103550000Y-117083165D01*
X103786711Y-117064535D01*
X103791518Y-117063381D01*
X103791524Y-117063380D01*
X103969651Y-117020615D01*
X104017594Y-117009105D01*
X104022167Y-117007211D01*
X104232389Y-116920135D01*
X104232393Y-116920133D01*
X104236963Y-116918240D01*
X104241916Y-116915205D01*
X104435202Y-116796759D01*
X104435208Y-116796755D01*
X104439416Y-116794176D01*
X104619969Y-116639969D01*
X104623177Y-116636213D01*
X104623182Y-116636208D01*
X104724189Y-116517944D01*
X104783639Y-116479134D01*
X104854634Y-116478628D01*
X104915811Y-116517944D01*
X105016818Y-116636208D01*
X105016823Y-116636213D01*
X105020031Y-116639969D01*
X105200584Y-116794176D01*
X105204792Y-116796755D01*
X105204798Y-116796759D01*
X105398084Y-116915205D01*
X105403037Y-116918240D01*
X105407607Y-116920133D01*
X105407611Y-116920135D01*
X105617833Y-117007211D01*
X105622406Y-117009105D01*
X105670349Y-117020615D01*
X105848476Y-117063380D01*
X105848482Y-117063381D01*
X105853289Y-117064535D01*
X106090000Y-117083165D01*
X106326711Y-117064535D01*
X106331518Y-117063381D01*
X106331524Y-117063380D01*
X106509651Y-117020615D01*
X106557594Y-117009105D01*
X106562167Y-117007211D01*
X106772389Y-116920135D01*
X106772393Y-116920133D01*
X106776963Y-116918240D01*
X106781916Y-116915205D01*
X106975202Y-116796759D01*
X106975208Y-116796755D01*
X106979416Y-116794176D01*
X107159969Y-116639969D01*
X107163177Y-116636213D01*
X107163182Y-116636208D01*
X107264189Y-116517944D01*
X107323639Y-116479134D01*
X107394634Y-116478628D01*
X107455811Y-116517944D01*
X107556818Y-116636208D01*
X107556823Y-116636213D01*
X107560031Y-116639969D01*
X107740584Y-116794176D01*
X107744792Y-116796755D01*
X107744798Y-116796759D01*
X107938084Y-116915205D01*
X107943037Y-116918240D01*
X107947607Y-116920133D01*
X107947611Y-116920135D01*
X108157833Y-117007211D01*
X108162406Y-117009105D01*
X108210349Y-117020615D01*
X108388476Y-117063380D01*
X108388482Y-117063381D01*
X108393289Y-117064535D01*
X108630000Y-117083165D01*
X108866711Y-117064535D01*
X108871518Y-117063381D01*
X108871524Y-117063380D01*
X109049651Y-117020615D01*
X109097594Y-117009105D01*
X109102167Y-117007211D01*
X109312389Y-116920135D01*
X109312393Y-116920133D01*
X109316963Y-116918240D01*
X109321916Y-116915205D01*
X109515202Y-116796759D01*
X109515208Y-116796755D01*
X109519416Y-116794176D01*
X109699969Y-116639969D01*
X109703177Y-116636213D01*
X109703182Y-116636208D01*
X109804189Y-116517944D01*
X109863639Y-116479134D01*
X109934634Y-116478628D01*
X109995811Y-116517944D01*
X110096818Y-116636208D01*
X110096823Y-116636213D01*
X110100031Y-116639969D01*
X110280584Y-116794176D01*
X110284792Y-116796755D01*
X110284798Y-116796759D01*
X110478084Y-116915205D01*
X110483037Y-116918240D01*
X110487607Y-116920133D01*
X110487611Y-116920135D01*
X110697833Y-117007211D01*
X110702406Y-117009105D01*
X110750349Y-117020615D01*
X110928476Y-117063380D01*
X110928482Y-117063381D01*
X110933289Y-117064535D01*
X111170000Y-117083165D01*
X111406711Y-117064535D01*
X111411518Y-117063381D01*
X111411524Y-117063380D01*
X111589651Y-117020615D01*
X111637594Y-117009105D01*
X111642167Y-117007211D01*
X111852389Y-116920135D01*
X111852393Y-116920133D01*
X111856963Y-116918240D01*
X111861916Y-116915205D01*
X112055202Y-116796759D01*
X112055208Y-116796755D01*
X112059416Y-116794176D01*
X112239969Y-116639969D01*
X112243177Y-116636213D01*
X112243182Y-116636208D01*
X112344189Y-116517944D01*
X112403639Y-116479134D01*
X112474634Y-116478628D01*
X112535811Y-116517944D01*
X112636818Y-116636208D01*
X112636823Y-116636213D01*
X112640031Y-116639969D01*
X112820584Y-116794176D01*
X112824792Y-116796755D01*
X112824798Y-116796759D01*
X113018084Y-116915205D01*
X113023037Y-116918240D01*
X113027607Y-116920133D01*
X113027611Y-116920135D01*
X113237833Y-117007211D01*
X113242406Y-117009105D01*
X113290349Y-117020615D01*
X113468476Y-117063380D01*
X113468482Y-117063381D01*
X113473289Y-117064535D01*
X113710000Y-117083165D01*
X113946711Y-117064535D01*
X113951518Y-117063381D01*
X113951524Y-117063380D01*
X114129651Y-117020615D01*
X114177594Y-117009105D01*
X114182167Y-117007211D01*
X114392389Y-116920135D01*
X114392393Y-116920133D01*
X114396963Y-116918240D01*
X114401916Y-116915205D01*
X114595202Y-116796759D01*
X114595208Y-116796755D01*
X114599416Y-116794176D01*
X114779969Y-116639969D01*
X114783177Y-116636213D01*
X114783182Y-116636208D01*
X114884189Y-116517944D01*
X114943639Y-116479134D01*
X115014634Y-116478628D01*
X115075811Y-116517944D01*
X115176818Y-116636208D01*
X115176823Y-116636213D01*
X115180031Y-116639969D01*
X115360584Y-116794176D01*
X115364792Y-116796755D01*
X115364798Y-116796759D01*
X115558084Y-116915205D01*
X115563037Y-116918240D01*
X115567607Y-116920133D01*
X115567611Y-116920135D01*
X115777833Y-117007211D01*
X115782406Y-117009105D01*
X115830349Y-117020615D01*
X116008476Y-117063380D01*
X116008482Y-117063381D01*
X116013289Y-117064535D01*
X116250000Y-117083165D01*
X116486711Y-117064535D01*
X116491518Y-117063381D01*
X116491524Y-117063380D01*
X116669651Y-117020615D01*
X116717594Y-117009105D01*
X116722167Y-117007211D01*
X116932389Y-116920135D01*
X116932393Y-116920133D01*
X116936963Y-116918240D01*
X116941916Y-116915205D01*
X117135202Y-116796759D01*
X117135208Y-116796755D01*
X117139416Y-116794176D01*
X117319969Y-116639969D01*
X117323177Y-116636213D01*
X117323182Y-116636208D01*
X117424189Y-116517944D01*
X117483639Y-116479134D01*
X117554634Y-116478628D01*
X117615811Y-116517944D01*
X117716818Y-116636208D01*
X117716823Y-116636213D01*
X117720031Y-116639969D01*
X117900584Y-116794176D01*
X117904792Y-116796755D01*
X117904798Y-116796759D01*
X118098084Y-116915205D01*
X118103037Y-116918240D01*
X118107607Y-116920133D01*
X118107611Y-116920135D01*
X118317833Y-117007211D01*
X118322406Y-117009105D01*
X118370349Y-117020615D01*
X118548476Y-117063380D01*
X118548482Y-117063381D01*
X118553289Y-117064535D01*
X118790000Y-117083165D01*
X119026711Y-117064535D01*
X119031518Y-117063381D01*
X119031524Y-117063380D01*
X119209651Y-117020615D01*
X119257594Y-117009105D01*
X119262167Y-117007211D01*
X119472389Y-116920135D01*
X119472393Y-116920133D01*
X119476963Y-116918240D01*
X119481916Y-116915205D01*
X119675202Y-116796759D01*
X119675208Y-116796755D01*
X119679416Y-116794176D01*
X119859969Y-116639969D01*
X120014176Y-116459416D01*
X120016755Y-116455208D01*
X120016759Y-116455202D01*
X120135654Y-116261183D01*
X120138240Y-116256963D01*
X120229105Y-116037594D01*
X120284535Y-115806711D01*
X120303165Y-115570000D01*
X120284535Y-115333289D01*
X120229105Y-115102406D01*
X120138240Y-114883037D01*
X120135654Y-114878817D01*
X120016759Y-114684798D01*
X120016755Y-114684792D01*
X120014176Y-114680584D01*
X119859969Y-114500031D01*
X119679416Y-114345824D01*
X119675208Y-114343245D01*
X119675202Y-114343241D01*
X119481183Y-114224346D01*
X119476963Y-114221760D01*
X119472393Y-114219867D01*
X119472389Y-114219865D01*
X119262167Y-114132789D01*
X119262165Y-114132788D01*
X119257594Y-114130895D01*
X119177391Y-114111640D01*
X119031524Y-114076620D01*
X119031518Y-114076619D01*
X119026711Y-114075465D01*
X118790000Y-114056835D01*
X118553289Y-114075465D01*
X118548482Y-114076619D01*
X118548476Y-114076620D01*
X118402609Y-114111640D01*
X118322406Y-114130895D01*
X118317835Y-114132788D01*
X118317833Y-114132789D01*
X118107611Y-114219865D01*
X118107607Y-114219867D01*
X118103037Y-114221760D01*
X118098817Y-114224346D01*
X117904798Y-114343241D01*
X117904792Y-114343245D01*
X117900584Y-114345824D01*
X117720031Y-114500031D01*
X117716823Y-114503787D01*
X117716818Y-114503792D01*
X117615811Y-114622056D01*
X117556361Y-114660866D01*
X117485366Y-114661372D01*
X117424189Y-114622056D01*
X117323182Y-114503792D01*
X117323177Y-114503787D01*
X117319969Y-114500031D01*
X117139416Y-114345824D01*
X117135208Y-114343245D01*
X117135202Y-114343241D01*
X116941183Y-114224346D01*
X116936963Y-114221760D01*
X116932393Y-114219867D01*
X116932389Y-114219865D01*
X116722167Y-114132789D01*
X116722165Y-114132788D01*
X116717594Y-114130895D01*
X116637391Y-114111640D01*
X116491524Y-114076620D01*
X116491518Y-114076619D01*
X116486711Y-114075465D01*
X116250000Y-114056835D01*
X116013289Y-114075465D01*
X116008482Y-114076619D01*
X116008476Y-114076620D01*
X115862609Y-114111640D01*
X115782406Y-114130895D01*
X115777835Y-114132788D01*
X115777833Y-114132789D01*
X115567611Y-114219865D01*
X115567607Y-114219867D01*
X115563037Y-114221760D01*
X115558817Y-114224346D01*
X115364798Y-114343241D01*
X115364792Y-114343245D01*
X115360584Y-114345824D01*
X115180031Y-114500031D01*
X115176823Y-114503787D01*
X115176818Y-114503792D01*
X115075811Y-114622056D01*
X115016361Y-114660866D01*
X114945366Y-114661372D01*
X114884189Y-114622056D01*
X114783182Y-114503792D01*
X114783177Y-114503787D01*
X114779969Y-114500031D01*
X114599416Y-114345824D01*
X114595208Y-114343245D01*
X114595202Y-114343241D01*
X114401183Y-114224346D01*
X114396963Y-114221760D01*
X114392393Y-114219867D01*
X114392389Y-114219865D01*
X114182167Y-114132789D01*
X114182165Y-114132788D01*
X114177594Y-114130895D01*
X114097391Y-114111640D01*
X113951524Y-114076620D01*
X113951518Y-114076619D01*
X113946711Y-114075465D01*
X113861093Y-114068727D01*
X113794752Y-114043442D01*
X113752612Y-113986304D01*
X113748053Y-113915454D01*
X113781884Y-113854020D01*
X120955904Y-106680000D01*
X123926884Y-106680000D01*
X123945314Y-106890655D01*
X124000044Y-107094910D01*
X124089411Y-107286558D01*
X124210699Y-107459776D01*
X124360224Y-107609301D01*
X124533442Y-107730589D01*
X124538420Y-107732910D01*
X124538423Y-107732912D01*
X124720108Y-107817633D01*
X124725090Y-107819956D01*
X124730398Y-107821378D01*
X124730400Y-107821379D01*
X124924030Y-107873262D01*
X124924032Y-107873262D01*
X124929345Y-107874686D01*
X125140000Y-107893116D01*
X125350655Y-107874686D01*
X125355968Y-107873262D01*
X125355970Y-107873262D01*
X125549600Y-107821379D01*
X125549602Y-107821378D01*
X125554910Y-107819956D01*
X125559892Y-107817633D01*
X125741577Y-107732912D01*
X125741580Y-107732910D01*
X125746558Y-107730589D01*
X125919776Y-107609301D01*
X126069301Y-107459776D01*
X126190589Y-107286558D01*
X126279956Y-107094910D01*
X126334686Y-106890655D01*
X126353116Y-106680000D01*
X126334686Y-106469345D01*
X126279956Y-106265090D01*
X126190589Y-106073442D01*
X126069301Y-105900224D01*
X125919776Y-105750699D01*
X125746558Y-105629411D01*
X125741580Y-105627090D01*
X125741577Y-105627088D01*
X125559892Y-105542367D01*
X125559891Y-105542366D01*
X125554910Y-105540044D01*
X125549602Y-105538622D01*
X125549600Y-105538621D01*
X125355970Y-105486738D01*
X125355968Y-105486738D01*
X125350655Y-105485314D01*
X125140000Y-105466884D01*
X124929345Y-105485314D01*
X124924032Y-105486738D01*
X124924030Y-105486738D01*
X124730400Y-105538621D01*
X124730398Y-105538622D01*
X124725090Y-105540044D01*
X124720109Y-105542366D01*
X124720108Y-105542367D01*
X124538423Y-105627088D01*
X124538420Y-105627090D01*
X124533442Y-105629411D01*
X124360224Y-105750699D01*
X124210699Y-105900224D01*
X124089411Y-106073442D01*
X124000044Y-106265090D01*
X123945314Y-106469345D01*
X123926884Y-106680000D01*
X120955904Y-106680000D01*
X129713947Y-97921957D01*
X129722237Y-97914413D01*
X129728718Y-97910300D01*
X129775359Y-97860632D01*
X129778113Y-97857791D01*
X129797834Y-97838070D01*
X129800312Y-97834875D01*
X129808018Y-97825853D01*
X129832858Y-97799401D01*
X129838286Y-97793621D01*
X129848046Y-97775868D01*
X129858899Y-97759345D01*
X129866453Y-97749606D01*
X129871313Y-97743341D01*
X129888876Y-97702757D01*
X129894083Y-97692127D01*
X129915395Y-97653360D01*
X129917366Y-97645683D01*
X129917368Y-97645678D01*
X129920432Y-97633742D01*
X129926838Y-97615030D01*
X129931733Y-97603719D01*
X129934881Y-97596445D01*
X129936121Y-97588617D01*
X129936123Y-97588610D01*
X129941799Y-97552776D01*
X129944205Y-97541156D01*
X129953228Y-97506011D01*
X129953228Y-97506010D01*
X129955200Y-97498330D01*
X129955200Y-97478076D01*
X129956751Y-97458365D01*
X129958680Y-97446186D01*
X129959920Y-97438357D01*
X129955759Y-97394338D01*
X129955200Y-97382481D01*
X129955200Y-63577967D01*
X129955727Y-63566784D01*
X129957402Y-63559291D01*
X129955262Y-63491214D01*
X129955200Y-63487255D01*
X129955200Y-63459344D01*
X129954695Y-63455344D01*
X129953762Y-63443501D01*
X129952622Y-63407230D01*
X129952373Y-63399311D01*
X129946721Y-63379857D01*
X129942713Y-63360500D01*
X129941168Y-63348270D01*
X129941168Y-63348269D01*
X129940174Y-63340403D01*
X129937255Y-63333030D01*
X129923896Y-63299288D01*
X129920051Y-63288058D01*
X129909929Y-63253217D01*
X129909929Y-63253216D01*
X129907718Y-63245607D01*
X129903685Y-63238788D01*
X129903683Y-63238783D01*
X129897407Y-63228172D01*
X129888712Y-63210424D01*
X129881252Y-63191583D01*
X129855264Y-63155813D01*
X129848748Y-63145893D01*
X129830280Y-63114665D01*
X129830278Y-63114662D01*
X129826242Y-63107838D01*
X129811921Y-63093517D01*
X129799080Y-63078483D01*
X129791831Y-63068506D01*
X129787172Y-63062093D01*
X129753095Y-63033902D01*
X129744316Y-63025912D01*
X128106852Y-61388447D01*
X128099312Y-61380161D01*
X128095200Y-61373682D01*
X128045548Y-61327056D01*
X128042707Y-61324302D01*
X128022970Y-61304565D01*
X128019773Y-61302085D01*
X128010751Y-61294380D01*
X127997316Y-61281764D01*
X127978521Y-61264114D01*
X127971575Y-61260295D01*
X127971572Y-61260293D01*
X127960766Y-61254352D01*
X127944247Y-61243501D01*
X127943783Y-61243141D01*
X127928241Y-61231086D01*
X127920972Y-61227941D01*
X127920968Y-61227938D01*
X127887663Y-61213526D01*
X127877013Y-61208309D01*
X127838260Y-61187005D01*
X127818637Y-61181967D01*
X127799934Y-61175563D01*
X127788620Y-61170667D01*
X127788619Y-61170667D01*
X127781345Y-61167519D01*
X127773522Y-61166280D01*
X127773512Y-61166277D01*
X127737676Y-61160601D01*
X127726056Y-61158195D01*
X127690911Y-61149172D01*
X127690910Y-61149172D01*
X127683230Y-61147200D01*
X127662976Y-61147200D01*
X127643265Y-61145649D01*
X127640734Y-61145248D01*
X127623257Y-61142480D01*
X127615365Y-61143226D01*
X127579239Y-61146641D01*
X127567381Y-61147200D01*
X126258063Y-61147200D01*
X126246879Y-61146673D01*
X126239391Y-61144999D01*
X126231468Y-61145248D01*
X126171333Y-61147138D01*
X126167375Y-61147200D01*
X126139444Y-61147200D01*
X126135529Y-61147695D01*
X126135525Y-61147695D01*
X126135467Y-61147703D01*
X126135438Y-61147706D01*
X126123596Y-61148639D01*
X126079410Y-61150027D01*
X126062044Y-61155072D01*
X126059958Y-61155678D01*
X126040606Y-61159686D01*
X126028368Y-61161232D01*
X126028366Y-61161233D01*
X126020503Y-61162226D01*
X125979386Y-61178506D01*
X125968185Y-61182341D01*
X125925706Y-61194682D01*
X125918887Y-61198715D01*
X125918882Y-61198717D01*
X125908271Y-61204993D01*
X125890521Y-61213690D01*
X125871683Y-61221148D01*
X125865267Y-61225809D01*
X125865266Y-61225810D01*
X125835925Y-61247128D01*
X125826001Y-61253647D01*
X125794760Y-61272122D01*
X125794755Y-61272126D01*
X125787937Y-61276158D01*
X125773613Y-61290482D01*
X125758581Y-61303321D01*
X125742193Y-61315228D01*
X125714012Y-61349293D01*
X125706022Y-61358073D01*
X125302044Y-61762051D01*
X125239732Y-61796077D01*
X125168917Y-61791012D01*
X125149567Y-61781854D01*
X125118093Y-61763535D01*
X125118087Y-61763532D01*
X125113721Y-61760991D01*
X124979571Y-61709496D01*
X124891902Y-61675843D01*
X124891899Y-61675842D01*
X124887173Y-61674028D01*
X124649636Y-61624404D01*
X124644587Y-61624175D01*
X124644581Y-61624174D01*
X124533962Y-61619151D01*
X124407221Y-61613396D01*
X124402201Y-61613977D01*
X124402197Y-61613977D01*
X124303135Y-61625439D01*
X124166164Y-61641287D01*
X124161290Y-61642666D01*
X124161286Y-61642667D01*
X123937536Y-61705982D01*
X123937534Y-61705983D01*
X123932667Y-61707360D01*
X123928092Y-61709494D01*
X123928085Y-61709496D01*
X123717319Y-61807778D01*
X123717315Y-61807780D01*
X123712737Y-61809915D01*
X123708556Y-61812757D01*
X123708555Y-61812757D01*
X123516221Y-61943467D01*
X123516217Y-61943470D01*
X123512034Y-61946313D01*
X123335719Y-62113045D01*
X123290581Y-62172083D01*
X123233319Y-62214049D01*
X123162455Y-62218394D01*
X123095973Y-62178877D01*
X122974314Y-62040881D01*
X122974311Y-62040878D01*
X122970966Y-62037084D01*
X122783450Y-61883057D01*
X122573721Y-61760991D01*
X122568995Y-61759177D01*
X122568991Y-61759175D01*
X122351902Y-61675843D01*
X122351899Y-61675842D01*
X122347173Y-61674028D01*
X122109636Y-61624404D01*
X122104587Y-61624175D01*
X122104581Y-61624174D01*
X121993962Y-61619151D01*
X121867221Y-61613396D01*
X121862201Y-61613977D01*
X121862197Y-61613977D01*
X121763135Y-61625439D01*
X121626164Y-61641287D01*
X121621290Y-61642666D01*
X121621286Y-61642667D01*
X121397536Y-61705982D01*
X121397534Y-61705983D01*
X121392667Y-61707360D01*
X121388092Y-61709494D01*
X121388085Y-61709496D01*
X121177319Y-61807778D01*
X121177315Y-61807780D01*
X121172737Y-61809915D01*
X121168556Y-61812757D01*
X121168555Y-61812757D01*
X120976221Y-61943467D01*
X120976217Y-61943470D01*
X120972034Y-61946313D01*
X120795719Y-62113045D01*
X120750581Y-62172083D01*
X120693319Y-62214049D01*
X120622455Y-62218394D01*
X120555973Y-62178877D01*
X120434314Y-62040881D01*
X120434311Y-62040878D01*
X120430966Y-62037084D01*
X120243450Y-61883057D01*
X120033721Y-61760991D01*
X120028995Y-61759177D01*
X120028991Y-61759175D01*
X119811902Y-61675843D01*
X119811899Y-61675842D01*
X119807173Y-61674028D01*
X119569636Y-61624404D01*
X119564587Y-61624175D01*
X119564581Y-61624174D01*
X119453962Y-61619151D01*
X119327221Y-61613396D01*
X119322201Y-61613977D01*
X119322197Y-61613977D01*
X119223135Y-61625439D01*
X119086164Y-61641287D01*
X119081290Y-61642666D01*
X119081286Y-61642667D01*
X118857536Y-61705982D01*
X118857534Y-61705983D01*
X118852667Y-61707360D01*
X118848092Y-61709494D01*
X118848085Y-61709496D01*
X118637319Y-61807778D01*
X118637315Y-61807780D01*
X118632737Y-61809915D01*
X118628556Y-61812757D01*
X118628555Y-61812757D01*
X118436221Y-61943467D01*
X118436217Y-61943470D01*
X118432034Y-61946313D01*
X118255719Y-62113045D01*
X118210581Y-62172083D01*
X118153319Y-62214049D01*
X118082455Y-62218394D01*
X118015973Y-62178877D01*
X117894314Y-62040881D01*
X117894311Y-62040878D01*
X117890966Y-62037084D01*
X117703450Y-61883057D01*
X117493721Y-61760991D01*
X117488995Y-61759177D01*
X117488991Y-61759175D01*
X117271902Y-61675843D01*
X117271899Y-61675842D01*
X117267173Y-61674028D01*
X117029636Y-61624404D01*
X117024587Y-61624175D01*
X117024581Y-61624174D01*
X116913962Y-61619151D01*
X116787221Y-61613396D01*
X116782201Y-61613977D01*
X116782197Y-61613977D01*
X116683135Y-61625439D01*
X116546164Y-61641287D01*
X116541290Y-61642666D01*
X116541286Y-61642667D01*
X116317536Y-61705982D01*
X116317534Y-61705983D01*
X116312667Y-61707360D01*
X116308092Y-61709494D01*
X116308085Y-61709496D01*
X116097319Y-61807778D01*
X116097315Y-61807780D01*
X116092737Y-61809915D01*
X116088556Y-61812757D01*
X116088555Y-61812757D01*
X115896221Y-61943467D01*
X115896217Y-61943470D01*
X115892034Y-61946313D01*
X115715719Y-62113045D01*
X115670581Y-62172083D01*
X115613319Y-62214049D01*
X115542455Y-62218394D01*
X115475973Y-62178877D01*
X115354314Y-62040881D01*
X115354311Y-62040878D01*
X115350966Y-62037084D01*
X115163450Y-61883057D01*
X114953721Y-61760991D01*
X114948995Y-61759177D01*
X114948991Y-61759175D01*
X114731902Y-61675843D01*
X114731899Y-61675842D01*
X114727173Y-61674028D01*
X114489636Y-61624404D01*
X114484587Y-61624175D01*
X114484581Y-61624174D01*
X114373962Y-61619151D01*
X114247221Y-61613396D01*
X114242201Y-61613977D01*
X114242197Y-61613977D01*
X114143135Y-61625439D01*
X114006164Y-61641287D01*
X114001290Y-61642666D01*
X114001286Y-61642667D01*
X113777536Y-61705982D01*
X113777534Y-61705983D01*
X113772667Y-61707360D01*
X113768092Y-61709494D01*
X113768085Y-61709496D01*
X113557319Y-61807778D01*
X113557315Y-61807780D01*
X113552737Y-61809915D01*
X113548556Y-61812757D01*
X113548555Y-61812757D01*
X113356221Y-61943467D01*
X113356217Y-61943470D01*
X113352034Y-61946313D01*
X113175719Y-62113045D01*
X113130581Y-62172083D01*
X113073319Y-62214049D01*
X113002455Y-62218394D01*
X112935973Y-62178877D01*
X112814314Y-62040881D01*
X112814311Y-62040878D01*
X112810966Y-62037084D01*
X112623450Y-61883057D01*
X112413721Y-61760991D01*
X112408995Y-61759177D01*
X112408991Y-61759175D01*
X112191902Y-61675843D01*
X112191899Y-61675842D01*
X112187173Y-61674028D01*
X111949636Y-61624404D01*
X111944587Y-61624175D01*
X111944581Y-61624174D01*
X111833962Y-61619151D01*
X111707221Y-61613396D01*
X111702201Y-61613977D01*
X111702197Y-61613977D01*
X111603135Y-61625439D01*
X111466164Y-61641287D01*
X111461290Y-61642666D01*
X111461286Y-61642667D01*
X111237536Y-61705982D01*
X111237534Y-61705983D01*
X111232667Y-61707360D01*
X111228092Y-61709494D01*
X111228085Y-61709496D01*
X111017319Y-61807778D01*
X111017315Y-61807780D01*
X111012737Y-61809915D01*
X111008556Y-61812757D01*
X111008555Y-61812757D01*
X110816221Y-61943467D01*
X110816217Y-61943470D01*
X110812034Y-61946313D01*
X110635719Y-62113045D01*
X110632641Y-62117071D01*
X110632640Y-62117072D01*
X110491403Y-62301802D01*
X110491400Y-62301806D01*
X110488330Y-62305822D01*
X110445916Y-62384925D01*
X110396100Y-62435504D01*
X110326843Y-62451124D01*
X110260136Y-62426821D01*
X110245779Y-62414475D01*
X105615505Y-57784200D01*
X105581479Y-57721888D01*
X105578600Y-57695105D01*
X105578600Y-56172447D01*
X105598602Y-56104326D01*
X105652258Y-56057833D01*
X105722532Y-56047729D01*
X105751999Y-56055702D01*
X105752295Y-56055822D01*
X105757051Y-56058240D01*
X105977227Y-56126607D01*
X105982516Y-56127308D01*
X106200489Y-56156198D01*
X106200494Y-56156198D01*
X106205774Y-56156898D01*
X106211103Y-56156698D01*
X106211105Y-56156698D01*
X106320966Y-56152574D01*
X106436158Y-56148249D01*
X106441468Y-56147135D01*
X106548974Y-56124578D01*
X106661791Y-56100907D01*
X106666750Y-56098949D01*
X106666752Y-56098948D01*
X106871256Y-56018185D01*
X106871258Y-56018184D01*
X106876221Y-56016224D01*
X106956498Y-55967511D01*
X107068757Y-55899390D01*
X107068756Y-55899390D01*
X107073317Y-55896623D01*
X107113493Y-55861760D01*
X107243412Y-55749023D01*
X107243414Y-55749021D01*
X107247445Y-55745523D01*
X107311383Y-55667545D01*
X107390240Y-55571373D01*
X107390244Y-55571367D01*
X107393624Y-55567245D01*
X107411552Y-55535750D01*
X107462632Y-55486445D01*
X107532262Y-55472583D01*
X107598333Y-55498566D01*
X107625573Y-55527716D01*
X107707441Y-55649319D01*
X107866576Y-55816135D01*
X108051542Y-55953754D01*
X108056293Y-55956170D01*
X108056297Y-55956172D01*
X108118704Y-55987901D01*
X108257051Y-56058240D01*
X108262145Y-56059822D01*
X108262148Y-56059823D01*
X108405471Y-56104326D01*
X108477227Y-56126607D01*
X108482516Y-56127308D01*
X108700489Y-56156198D01*
X108700494Y-56156198D01*
X108705774Y-56156898D01*
X108711103Y-56156698D01*
X108711105Y-56156698D01*
X108820966Y-56152574D01*
X108936158Y-56148249D01*
X108941468Y-56147135D01*
X109048974Y-56124578D01*
X109161791Y-56100907D01*
X109166750Y-56098949D01*
X109166752Y-56098948D01*
X109371256Y-56018185D01*
X109371258Y-56018184D01*
X109376221Y-56016224D01*
X109456498Y-55967511D01*
X109568757Y-55899390D01*
X109568756Y-55899390D01*
X109573317Y-55896623D01*
X109613493Y-55861760D01*
X109743412Y-55749023D01*
X109743414Y-55749021D01*
X109747445Y-55745523D01*
X109777006Y-55709471D01*
X109835666Y-55669476D01*
X109906636Y-55667545D01*
X109967384Y-55704290D01*
X109981584Y-55723059D01*
X110068063Y-55862807D01*
X110077099Y-55874208D01*
X110191829Y-55988739D01*
X110203240Y-55997751D01*
X110341243Y-56082816D01*
X110354424Y-56088963D01*
X110508710Y-56140138D01*
X110522086Y-56143005D01*
X110616438Y-56152672D01*
X110622854Y-56153000D01*
X110997885Y-56153000D01*
X111013124Y-56148525D01*
X111014329Y-56147135D01*
X111016000Y-56139452D01*
X111016000Y-56134884D01*
X111524000Y-56134884D01*
X111528475Y-56150123D01*
X111529865Y-56151328D01*
X111537548Y-56152999D01*
X111917095Y-56152999D01*
X111923614Y-56152662D01*
X112019206Y-56142743D01*
X112032600Y-56139851D01*
X112186784Y-56088412D01*
X112199962Y-56082239D01*
X112337807Y-55996937D01*
X112349208Y-55987901D01*
X112463739Y-55873171D01*
X112472751Y-55861760D01*
X112557816Y-55723757D01*
X112563963Y-55710576D01*
X112615138Y-55556290D01*
X112618005Y-55542914D01*
X112627672Y-55448562D01*
X112628000Y-55442146D01*
X112628000Y-54942115D01*
X112623525Y-54926876D01*
X112622135Y-54925671D01*
X112614452Y-54924000D01*
X111542115Y-54924000D01*
X111526876Y-54928475D01*
X111525671Y-54929865D01*
X111524000Y-54937548D01*
X111524000Y-56134884D01*
X111016000Y-56134884D01*
X111016000Y-54397885D01*
X111524000Y-54397885D01*
X111528475Y-54413124D01*
X111529865Y-54414329D01*
X111537548Y-54416000D01*
X112609884Y-54416000D01*
X112625123Y-54411525D01*
X112626328Y-54410135D01*
X112627999Y-54402452D01*
X112627999Y-53897905D01*
X112627662Y-53891386D01*
X112617743Y-53795794D01*
X112614851Y-53782400D01*
X112563412Y-53628216D01*
X112557239Y-53615038D01*
X112481535Y-53492703D01*
X126970743Y-53492703D01*
X126971302Y-53496947D01*
X126971302Y-53496951D01*
X126975353Y-53527722D01*
X127008268Y-53777734D01*
X127084129Y-54055036D01*
X127196923Y-54319476D01*
X127344561Y-54566161D01*
X127524313Y-54790528D01*
X127638783Y-54899156D01*
X127684053Y-54942115D01*
X127732851Y-54988423D01*
X127966317Y-55156186D01*
X127970112Y-55158195D01*
X127970113Y-55158196D01*
X127991869Y-55169715D01*
X128220392Y-55290712D01*
X128490373Y-55389511D01*
X128771264Y-55450755D01*
X128799841Y-55453004D01*
X128994282Y-55468307D01*
X128994291Y-55468307D01*
X128996739Y-55468500D01*
X129152271Y-55468500D01*
X129154407Y-55468354D01*
X129154418Y-55468354D01*
X129362548Y-55454165D01*
X129362554Y-55454164D01*
X129366825Y-55453873D01*
X129371020Y-55453004D01*
X129371022Y-55453004D01*
X129507584Y-55424723D01*
X129648342Y-55395574D01*
X129919343Y-55299607D01*
X130174812Y-55167750D01*
X130178313Y-55165289D01*
X130178317Y-55165287D01*
X130292418Y-55085095D01*
X130410023Y-55002441D01*
X130570959Y-54852890D01*
X130617479Y-54809661D01*
X130617481Y-54809658D01*
X130620622Y-54806740D01*
X130802713Y-54584268D01*
X130952927Y-54339142D01*
X131068483Y-54075898D01*
X131147244Y-53799406D01*
X131187751Y-53514784D01*
X131187845Y-53496951D01*
X131189235Y-53231583D01*
X131189235Y-53231576D01*
X131189257Y-53227297D01*
X131185736Y-53200548D01*
X131152292Y-52946522D01*
X131151732Y-52942266D01*
X131075871Y-52664964D01*
X130963077Y-52400524D01*
X130815439Y-52153839D01*
X130635687Y-51929472D01*
X130427149Y-51731577D01*
X130193683Y-51563814D01*
X130171843Y-51552250D01*
X130148654Y-51539972D01*
X129939608Y-51429288D01*
X129669627Y-51330489D01*
X129388736Y-51269245D01*
X129357685Y-51266801D01*
X129165718Y-51251693D01*
X129165709Y-51251693D01*
X129163261Y-51251500D01*
X129007729Y-51251500D01*
X129005593Y-51251646D01*
X129005582Y-51251646D01*
X128797452Y-51265835D01*
X128797446Y-51265836D01*
X128793175Y-51266127D01*
X128788980Y-51266996D01*
X128788978Y-51266996D01*
X128652417Y-51295276D01*
X128511658Y-51324426D01*
X128240657Y-51420393D01*
X127985188Y-51552250D01*
X127981687Y-51554711D01*
X127981683Y-51554713D01*
X127971594Y-51561804D01*
X127749977Y-51717559D01*
X127539378Y-51913260D01*
X127357287Y-52135732D01*
X127207073Y-52380858D01*
X127091517Y-52644102D01*
X127012756Y-52920594D01*
X127009672Y-52942266D01*
X126974205Y-53191475D01*
X126972249Y-53205216D01*
X126972227Y-53209505D01*
X126972226Y-53209512D01*
X126970765Y-53488417D01*
X126970743Y-53492703D01*
X112481535Y-53492703D01*
X112471937Y-53477193D01*
X112462901Y-53465792D01*
X112348171Y-53351261D01*
X112336760Y-53342249D01*
X112198757Y-53257184D01*
X112185576Y-53251037D01*
X112031290Y-53199862D01*
X112017914Y-53196995D01*
X111923562Y-53187328D01*
X111917145Y-53187000D01*
X111542115Y-53187000D01*
X111526876Y-53191475D01*
X111525671Y-53192865D01*
X111524000Y-53200548D01*
X111524000Y-54397885D01*
X111016000Y-54397885D01*
X111016000Y-53205116D01*
X111011525Y-53189877D01*
X111010135Y-53188672D01*
X111002452Y-53187001D01*
X110622905Y-53187001D01*
X110616386Y-53187338D01*
X110520794Y-53197257D01*
X110507400Y-53200149D01*
X110353216Y-53251588D01*
X110340038Y-53257761D01*
X110202193Y-53343063D01*
X110190792Y-53352099D01*
X110076261Y-53466829D01*
X110067247Y-53478243D01*
X109981277Y-53617713D01*
X109928505Y-53665207D01*
X109858434Y-53676631D01*
X109793310Y-53648357D01*
X109782847Y-53638570D01*
X109762951Y-53617713D01*
X109673424Y-53523865D01*
X109488458Y-53386246D01*
X109483707Y-53383830D01*
X109483703Y-53383828D01*
X109361731Y-53321815D01*
X109282949Y-53281760D01*
X109277855Y-53280178D01*
X109277852Y-53280177D01*
X109067871Y-53214976D01*
X109062773Y-53213393D01*
X109033491Y-53209512D01*
X108839511Y-53183802D01*
X108839506Y-53183802D01*
X108834226Y-53183102D01*
X108828897Y-53183302D01*
X108828895Y-53183302D01*
X108730368Y-53187001D01*
X108603842Y-53191751D01*
X108598623Y-53192846D01*
X108519193Y-53209512D01*
X108378209Y-53239093D01*
X108373250Y-53241051D01*
X108373248Y-53241052D01*
X108168744Y-53321815D01*
X108168742Y-53321816D01*
X108163779Y-53323776D01*
X108159220Y-53326543D01*
X108159217Y-53326544D01*
X108060832Y-53386246D01*
X107966683Y-53443377D01*
X107962653Y-53446874D01*
X107869484Y-53527722D01*
X107792555Y-53594477D01*
X107789168Y-53598608D01*
X107649760Y-53768627D01*
X107649756Y-53768633D01*
X107646376Y-53772755D01*
X107628448Y-53804250D01*
X107577368Y-53853555D01*
X107507738Y-53867417D01*
X107441667Y-53841434D01*
X107414427Y-53812284D01*
X107393955Y-53781876D01*
X107332559Y-53690681D01*
X107282848Y-53638570D01*
X107177103Y-53527722D01*
X107173424Y-53523865D01*
X106988458Y-53386246D01*
X106983707Y-53383830D01*
X106983703Y-53383828D01*
X106861731Y-53321815D01*
X106782949Y-53281760D01*
X106777855Y-53280178D01*
X106777852Y-53280177D01*
X106567871Y-53214976D01*
X106562773Y-53213393D01*
X106533491Y-53209512D01*
X106339511Y-53183802D01*
X106339506Y-53183802D01*
X106334226Y-53183102D01*
X106328897Y-53183302D01*
X106328895Y-53183302D01*
X106230368Y-53187001D01*
X106103842Y-53191751D01*
X106098623Y-53192846D01*
X106019193Y-53209512D01*
X105878209Y-53239093D01*
X105873250Y-53241051D01*
X105873248Y-53241052D01*
X105668744Y-53321815D01*
X105668742Y-53321816D01*
X105663779Y-53323776D01*
X105659220Y-53326543D01*
X105659217Y-53326544D01*
X105560832Y-53386246D01*
X105466683Y-53443377D01*
X105462653Y-53446874D01*
X105369484Y-53527722D01*
X105292555Y-53594477D01*
X105289168Y-53598608D01*
X105149760Y-53768627D01*
X105149756Y-53768633D01*
X105146376Y-53772755D01*
X105128448Y-53804250D01*
X105077368Y-53853555D01*
X105007738Y-53867417D01*
X104941667Y-53841434D01*
X104914427Y-53812284D01*
X104893955Y-53781876D01*
X104832559Y-53690681D01*
X104782848Y-53638570D01*
X104677103Y-53527722D01*
X104673424Y-53523865D01*
X104488458Y-53386246D01*
X104483707Y-53383830D01*
X104483703Y-53383828D01*
X104361731Y-53321815D01*
X104282949Y-53281760D01*
X104277855Y-53280178D01*
X104277852Y-53280177D01*
X104067871Y-53214976D01*
X104062773Y-53213393D01*
X104033491Y-53209512D01*
X103839511Y-53183802D01*
X103839506Y-53183802D01*
X103834226Y-53183102D01*
X103828897Y-53183302D01*
X103828895Y-53183302D01*
X103730368Y-53187001D01*
X103603842Y-53191751D01*
X103598623Y-53192846D01*
X103519193Y-53209512D01*
X103378209Y-53239093D01*
X103373250Y-53241051D01*
X103373248Y-53241052D01*
X103168744Y-53321815D01*
X103168742Y-53321816D01*
X103163779Y-53323776D01*
X103159220Y-53326543D01*
X103159217Y-53326544D01*
X103060832Y-53386246D01*
X102966683Y-53443377D01*
X102962653Y-53446874D01*
X102869484Y-53527722D01*
X102792555Y-53594477D01*
X102789168Y-53598608D01*
X102649760Y-53768627D01*
X102649756Y-53768633D01*
X102646376Y-53772755D01*
X102643738Y-53777390D01*
X102643735Y-53777394D01*
X102600382Y-53853555D01*
X102532325Y-53973114D01*
X102453663Y-54189825D01*
X102452714Y-54195074D01*
X102452713Y-54195077D01*
X102413377Y-54412608D01*
X102413376Y-54412615D01*
X102412639Y-54416692D01*
X102411500Y-54440844D01*
X102411500Y-54852890D01*
X102411725Y-54855539D01*
X102424399Y-55004904D01*
X102426080Y-55024720D01*
X102427418Y-55029875D01*
X102427419Y-55029881D01*
X102462564Y-55165287D01*
X102483999Y-55247872D01*
X102578688Y-55458075D01*
X102707441Y-55649319D01*
X102866576Y-55816135D01*
X103051542Y-55953754D01*
X103056293Y-55956170D01*
X103056297Y-55956172D01*
X103118704Y-55987901D01*
X103257051Y-56058240D01*
X103262145Y-56059822D01*
X103262148Y-56059823D01*
X103405471Y-56104326D01*
X103477227Y-56126607D01*
X103482516Y-56127308D01*
X103700489Y-56156198D01*
X103700494Y-56156198D01*
X103705774Y-56156898D01*
X103711103Y-56156698D01*
X103711105Y-56156698D01*
X103820966Y-56152574D01*
X103936158Y-56148249D01*
X104159727Y-56101340D01*
X104230503Y-56106928D01*
X104287023Y-56149892D01*
X104311342Y-56216594D01*
X104311600Y-56224655D01*
X104311600Y-57930933D01*
X104311073Y-57942116D01*
X104309398Y-57949609D01*
X104309647Y-57957535D01*
X104309647Y-57957536D01*
X104311538Y-58017686D01*
X104311600Y-58021645D01*
X104311600Y-58049556D01*
X104312097Y-58053490D01*
X104312097Y-58053491D01*
X104312105Y-58053556D01*
X104313038Y-58065393D01*
X104314427Y-58109589D01*
X104320078Y-58129039D01*
X104324087Y-58148400D01*
X104326626Y-58168497D01*
X104329545Y-58175868D01*
X104329545Y-58175870D01*
X104342904Y-58209612D01*
X104346749Y-58220842D01*
X104359082Y-58263293D01*
X104363115Y-58270112D01*
X104363117Y-58270117D01*
X104369393Y-58280728D01*
X104378088Y-58298476D01*
X104385548Y-58317317D01*
X104390210Y-58323733D01*
X104390210Y-58323734D01*
X104411536Y-58353087D01*
X104418052Y-58363007D01*
X104440558Y-58401062D01*
X104454879Y-58415383D01*
X104467719Y-58430416D01*
X104479628Y-58446807D01*
X104485734Y-58451858D01*
X104513705Y-58474998D01*
X104522484Y-58482988D01*
X109931748Y-63892253D01*
X109939288Y-63900539D01*
X109943400Y-63907018D01*
X109949177Y-63912443D01*
X109993051Y-63953643D01*
X109995893Y-63956398D01*
X110015630Y-63976135D01*
X110018827Y-63978615D01*
X110027847Y-63986318D01*
X110060079Y-64016586D01*
X110067025Y-64020405D01*
X110067028Y-64020407D01*
X110077834Y-64026348D01*
X110094353Y-64037199D01*
X110110359Y-64049614D01*
X110117628Y-64052759D01*
X110117632Y-64052762D01*
X110150937Y-64067174D01*
X110161587Y-64072391D01*
X110200340Y-64093695D01*
X110207084Y-64095427D01*
X110262718Y-64138836D01*
X110282724Y-64182258D01*
X110324469Y-64352214D01*
X110419286Y-64575589D01*
X110548597Y-64780930D01*
X110551942Y-64784724D01*
X110705726Y-64959159D01*
X110705729Y-64959162D01*
X110709074Y-64962956D01*
X110896590Y-65116983D01*
X111106319Y-65239049D01*
X111111045Y-65240863D01*
X111111049Y-65240865D01*
X111176274Y-65265902D01*
X111328930Y-65324501D01*
X111385357Y-65367585D01*
X111409534Y-65434339D01*
X111393783Y-65503566D01*
X111372870Y-65531226D01*
X92997747Y-83906348D01*
X92989461Y-83913888D01*
X92982982Y-83918000D01*
X92977557Y-83923777D01*
X92936357Y-83967651D01*
X92933602Y-83970493D01*
X92913865Y-83990230D01*
X92911385Y-83993427D01*
X92903682Y-84002447D01*
X92873414Y-84034679D01*
X92869595Y-84041625D01*
X92869593Y-84041628D01*
X92863652Y-84052434D01*
X92852801Y-84068953D01*
X92840386Y-84084959D01*
X92837241Y-84092228D01*
X92837238Y-84092232D01*
X92822826Y-84125537D01*
X92817609Y-84136187D01*
X92796305Y-84174940D01*
X92794334Y-84182615D01*
X92794334Y-84182616D01*
X92791267Y-84194562D01*
X92784863Y-84213266D01*
X92776819Y-84231855D01*
X92775580Y-84239678D01*
X92775577Y-84239688D01*
X92769901Y-84275524D01*
X92767495Y-84287144D01*
X92761088Y-84312100D01*
X92756500Y-84329970D01*
X92756500Y-84350224D01*
X92754949Y-84369934D01*
X92751780Y-84389943D01*
X92752526Y-84397835D01*
X92755941Y-84433961D01*
X92756500Y-84445819D01*
X92756500Y-102070606D01*
X92736498Y-102138727D01*
X92702771Y-102173819D01*
X92550211Y-102280643D01*
X92550208Y-102280645D01*
X92545700Y-102283802D01*
X92383802Y-102445700D01*
X92252477Y-102633251D01*
X92250154Y-102638233D01*
X92250151Y-102638238D01*
X92234195Y-102672457D01*
X92187278Y-102725742D01*
X92119001Y-102745203D01*
X92051041Y-102724661D01*
X92005805Y-102672457D01*
X91989849Y-102638238D01*
X91989846Y-102638233D01*
X91987523Y-102633251D01*
X91856198Y-102445700D01*
X91694300Y-102283802D01*
X91689792Y-102280645D01*
X91689789Y-102280643D01*
X91563920Y-102192509D01*
X91506749Y-102152477D01*
X91501767Y-102150154D01*
X91501762Y-102150151D01*
X91304225Y-102058039D01*
X91304224Y-102058039D01*
X91299243Y-102055716D01*
X91293935Y-102054294D01*
X91293933Y-102054293D01*
X91083402Y-101997881D01*
X91083400Y-101997881D01*
X91078087Y-101996457D01*
X90850000Y-101976502D01*
X90621913Y-101996457D01*
X90616600Y-101997881D01*
X90616598Y-101997881D01*
X90406067Y-102054293D01*
X90406065Y-102054294D01*
X90400757Y-102055716D01*
X90395776Y-102058039D01*
X90395775Y-102058039D01*
X90198238Y-102150151D01*
X90198233Y-102150154D01*
X90193251Y-102152477D01*
X90136080Y-102192509D01*
X90010211Y-102280643D01*
X90010208Y-102280645D01*
X90005700Y-102283802D01*
X89843802Y-102445700D01*
X89712477Y-102633251D01*
X89710154Y-102638233D01*
X89710151Y-102638238D01*
X89710034Y-102638489D01*
X89615716Y-102840757D01*
X89614294Y-102846065D01*
X89614293Y-102846067D01*
X89593019Y-102925461D01*
X89556457Y-103061913D01*
X89536502Y-103290000D01*
X85088500Y-103290000D01*
X85088500Y-53492703D01*
X85470743Y-53492703D01*
X85471302Y-53496947D01*
X85471302Y-53496951D01*
X85475353Y-53527722D01*
X85508268Y-53777734D01*
X85584129Y-54055036D01*
X85696923Y-54319476D01*
X85844561Y-54566161D01*
X86024313Y-54790528D01*
X86138783Y-54899156D01*
X86184053Y-54942115D01*
X86232851Y-54988423D01*
X86466317Y-55156186D01*
X86470112Y-55158195D01*
X86470113Y-55158196D01*
X86491869Y-55169715D01*
X86720392Y-55290712D01*
X86990373Y-55389511D01*
X87271264Y-55450755D01*
X87299841Y-55453004D01*
X87494282Y-55468307D01*
X87494291Y-55468307D01*
X87496739Y-55468500D01*
X87652271Y-55468500D01*
X87654407Y-55468354D01*
X87654418Y-55468354D01*
X87862548Y-55454165D01*
X87862554Y-55454164D01*
X87866825Y-55453873D01*
X87871020Y-55453004D01*
X87871022Y-55453004D01*
X88007584Y-55424723D01*
X88148342Y-55395574D01*
X88419343Y-55299607D01*
X88674812Y-55167750D01*
X88678313Y-55165289D01*
X88678317Y-55165287D01*
X88792418Y-55085095D01*
X88910023Y-55002441D01*
X89070959Y-54852890D01*
X89117479Y-54809661D01*
X89117481Y-54809658D01*
X89120622Y-54806740D01*
X89302713Y-54584268D01*
X89452927Y-54339142D01*
X89568483Y-54075898D01*
X89647244Y-53799406D01*
X89687751Y-53514784D01*
X89687845Y-53496951D01*
X89689235Y-53231583D01*
X89689235Y-53231576D01*
X89689257Y-53227297D01*
X89685736Y-53200548D01*
X89652292Y-52946522D01*
X89651732Y-52942266D01*
X89575871Y-52664964D01*
X89463077Y-52400524D01*
X89315439Y-52153839D01*
X89135687Y-51929472D01*
X88927149Y-51731577D01*
X88693683Y-51563814D01*
X88671843Y-51552250D01*
X88648654Y-51539972D01*
X88439608Y-51429288D01*
X88169627Y-51330489D01*
X87888736Y-51269245D01*
X87857685Y-51266801D01*
X87665718Y-51251693D01*
X87665709Y-51251693D01*
X87663261Y-51251500D01*
X87507729Y-51251500D01*
X87505593Y-51251646D01*
X87505582Y-51251646D01*
X87297452Y-51265835D01*
X87297446Y-51265836D01*
X87293175Y-51266127D01*
X87288980Y-51266996D01*
X87288978Y-51266996D01*
X87152417Y-51295276D01*
X87011658Y-51324426D01*
X86740657Y-51420393D01*
X86485188Y-51552250D01*
X86481687Y-51554711D01*
X86481683Y-51554713D01*
X86471594Y-51561804D01*
X86249977Y-51717559D01*
X86039378Y-51913260D01*
X85857287Y-52135732D01*
X85707073Y-52380858D01*
X85591517Y-52644102D01*
X85512756Y-52920594D01*
X85509672Y-52942266D01*
X85474205Y-53191475D01*
X85472249Y-53205216D01*
X85472227Y-53209505D01*
X85472226Y-53209512D01*
X85470765Y-53488417D01*
X85470743Y-53492703D01*
X85088500Y-53492703D01*
X85088500Y-50994500D01*
X85108502Y-50926379D01*
X85162158Y-50879886D01*
X85214500Y-50868500D01*
X131445500Y-50868500D01*
X131513621Y-50888502D01*
G37*
%TD.AperFunction*%
%TA.AperFunction,Conductor*%
G36*
X121663233Y-67583339D02*
G01*
X121720068Y-67625886D01*
X121744879Y-67692406D01*
X121745200Y-67701395D01*
X121745200Y-73265233D01*
X121744673Y-73276416D01*
X121742998Y-73283909D01*
X121743247Y-73291835D01*
X121743247Y-73291836D01*
X121745138Y-73351986D01*
X121745200Y-73355945D01*
X121745200Y-73383856D01*
X121745697Y-73387790D01*
X121745697Y-73387791D01*
X121745705Y-73387856D01*
X121746638Y-73399693D01*
X121748027Y-73443889D01*
X121753678Y-73463339D01*
X121757687Y-73482700D01*
X121760226Y-73502797D01*
X121763145Y-73510168D01*
X121763145Y-73510170D01*
X121776504Y-73543912D01*
X121780349Y-73555142D01*
X121792682Y-73597593D01*
X121796715Y-73604412D01*
X121796717Y-73604417D01*
X121802993Y-73615028D01*
X121811688Y-73632776D01*
X121819148Y-73651617D01*
X121823810Y-73658033D01*
X121823810Y-73658034D01*
X121845136Y-73687387D01*
X121851652Y-73697307D01*
X121858408Y-73708730D01*
X121874158Y-73735362D01*
X121888479Y-73749683D01*
X121901319Y-73764716D01*
X121913228Y-73781107D01*
X121919334Y-73786158D01*
X121947305Y-73809298D01*
X121956084Y-73817288D01*
X126062577Y-77923781D01*
X126096603Y-77986093D01*
X126091538Y-78056908D01*
X126053096Y-78110151D01*
X126052034Y-78110873D01*
X125875719Y-78277605D01*
X125872641Y-78281631D01*
X125872640Y-78281632D01*
X125830273Y-78337046D01*
X125773009Y-78379014D01*
X125702145Y-78383359D01*
X125635663Y-78343842D01*
X125513961Y-78205798D01*
X125506709Y-78198795D01*
X125327074Y-78051241D01*
X125318796Y-78045487D01*
X125117875Y-77928548D01*
X125108780Y-77924191D01*
X124891752Y-77840881D01*
X124882080Y-77838034D01*
X124731756Y-77806630D01*
X124717695Y-77807753D01*
X124714020Y-77817861D01*
X124714020Y-81509306D01*
X124718156Y-81523392D01*
X124731134Y-81525441D01*
X124748747Y-81523403D01*
X124758655Y-81521441D01*
X124982329Y-81458148D01*
X124991780Y-81454634D01*
X125202473Y-81356386D01*
X125211237Y-81351407D01*
X125403501Y-81220744D01*
X125411376Y-81214412D01*
X125580266Y-81054701D01*
X125587022Y-81047198D01*
X125629120Y-80992136D01*
X125686385Y-80950169D01*
X125757249Y-80945824D01*
X125823730Y-80985341D01*
X125945726Y-81123719D01*
X125945729Y-81123722D01*
X125949074Y-81127516D01*
X126136590Y-81281543D01*
X126346319Y-81403609D01*
X126351045Y-81405423D01*
X126351049Y-81405425D01*
X126568138Y-81488757D01*
X126568141Y-81488758D01*
X126572867Y-81490572D01*
X126810404Y-81540196D01*
X126815453Y-81540425D01*
X126815459Y-81540426D01*
X126926078Y-81545449D01*
X127052819Y-81551204D01*
X127057839Y-81550623D01*
X127057843Y-81550623D01*
X127165698Y-81538144D01*
X127293876Y-81523313D01*
X127298750Y-81521934D01*
X127298754Y-81521933D01*
X127522504Y-81458618D01*
X127522506Y-81458617D01*
X127527373Y-81457240D01*
X127531950Y-81455106D01*
X127531960Y-81455102D01*
X127565551Y-81439438D01*
X127635742Y-81428777D01*
X127700555Y-81457757D01*
X127739411Y-81517177D01*
X127744800Y-81553633D01*
X127744800Y-83443705D01*
X127724798Y-83511826D01*
X127707895Y-83532800D01*
X113562547Y-97678148D01*
X113554261Y-97685688D01*
X113547782Y-97689800D01*
X113542357Y-97695577D01*
X113501157Y-97739451D01*
X113498402Y-97742293D01*
X113478665Y-97762030D01*
X113476185Y-97765227D01*
X113468482Y-97774247D01*
X113438214Y-97806479D01*
X113434395Y-97813425D01*
X113434393Y-97813428D01*
X113428452Y-97824234D01*
X113417601Y-97840753D01*
X113405186Y-97856759D01*
X113402041Y-97864028D01*
X113402038Y-97864032D01*
X113387626Y-97897337D01*
X113382409Y-97907987D01*
X113361105Y-97946740D01*
X113359134Y-97954415D01*
X113359134Y-97954416D01*
X113356067Y-97966362D01*
X113349663Y-97985066D01*
X113341619Y-98003655D01*
X113340379Y-98011483D01*
X113340164Y-98012223D01*
X113301949Y-98072057D01*
X113237452Y-98101732D01*
X113167149Y-98091827D01*
X113146897Y-98080279D01*
X113050811Y-98012999D01*
X113041323Y-98007521D01*
X112859723Y-97922841D01*
X112849426Y-97919092D01*
X112822830Y-97911966D01*
X112762207Y-97875014D01*
X112731186Y-97811154D01*
X112739614Y-97740659D01*
X112784817Y-97685912D01*
X112822829Y-97668553D01*
X112849592Y-97661382D01*
X112849603Y-97661378D01*
X112854910Y-97659956D01*
X112869055Y-97653360D01*
X113041577Y-97572912D01*
X113041580Y-97572910D01*
X113046558Y-97570589D01*
X113219776Y-97449301D01*
X113369301Y-97299776D01*
X113490589Y-97126558D01*
X113579956Y-96934910D01*
X113634686Y-96730655D01*
X113653116Y-96520000D01*
X113634686Y-96309345D01*
X113618992Y-96250773D01*
X113581379Y-96110400D01*
X113581378Y-96110398D01*
X113579956Y-96105090D01*
X113505481Y-95945377D01*
X113492912Y-95918423D01*
X113492910Y-95918420D01*
X113490589Y-95913442D01*
X113369301Y-95740224D01*
X113219776Y-95590699D01*
X113046558Y-95469411D01*
X113041580Y-95467090D01*
X113041577Y-95467088D01*
X112859892Y-95382367D01*
X112859891Y-95382366D01*
X112854910Y-95380044D01*
X112849602Y-95378622D01*
X112849600Y-95378621D01*
X112823796Y-95371707D01*
X112763173Y-95334755D01*
X112732152Y-95270894D01*
X112740580Y-95200400D01*
X112785783Y-95145653D01*
X112823796Y-95128293D01*
X112849600Y-95121379D01*
X112849602Y-95121378D01*
X112854910Y-95119956D01*
X112859892Y-95117633D01*
X113041577Y-95032912D01*
X113041580Y-95032910D01*
X113046558Y-95030589D01*
X113219776Y-94909301D01*
X113369301Y-94759776D01*
X113490589Y-94586558D01*
X113579956Y-94394910D01*
X113634686Y-94190655D01*
X113653116Y-93980000D01*
X113634686Y-93769345D01*
X113633262Y-93764029D01*
X113632452Y-93759437D01*
X113640321Y-93688877D01*
X113667443Y-93648461D01*
X122312247Y-85003657D01*
X122320537Y-84996113D01*
X122327018Y-84992000D01*
X122373659Y-84942332D01*
X122376413Y-84939491D01*
X122396135Y-84919769D01*
X122398612Y-84916576D01*
X122406317Y-84907555D01*
X122431159Y-84881100D01*
X122436586Y-84875321D01*
X122440407Y-84868371D01*
X122446346Y-84857568D01*
X122457202Y-84841041D01*
X122464757Y-84831302D01*
X122464758Y-84831300D01*
X122469614Y-84825040D01*
X122487174Y-84784460D01*
X122492391Y-84773812D01*
X122509875Y-84742009D01*
X122509876Y-84742007D01*
X122513695Y-84735060D01*
X122518733Y-84715437D01*
X122525137Y-84696734D01*
X122530033Y-84685420D01*
X122530033Y-84685419D01*
X122533181Y-84678145D01*
X122534420Y-84670322D01*
X122534423Y-84670312D01*
X122540099Y-84634476D01*
X122542505Y-84622856D01*
X122551528Y-84587711D01*
X122551528Y-84587710D01*
X122553500Y-84580030D01*
X122553500Y-84559776D01*
X122555051Y-84540065D01*
X122556980Y-84527886D01*
X122558220Y-84520057D01*
X122554059Y-84476038D01*
X122553500Y-84464181D01*
X122553500Y-81488023D01*
X122573502Y-81419902D01*
X122626251Y-81373828D01*
X122662716Y-81356824D01*
X122662720Y-81356822D01*
X122667303Y-81354685D01*
X122671485Y-81351843D01*
X122863819Y-81221133D01*
X122863823Y-81221130D01*
X122868006Y-81218287D01*
X123044321Y-81051555D01*
X123089767Y-80992114D01*
X123147031Y-80950146D01*
X123217895Y-80945801D01*
X123284377Y-80985318D01*
X123406079Y-81123362D01*
X123413331Y-81130365D01*
X123592966Y-81277919D01*
X123601244Y-81283673D01*
X123802165Y-81400612D01*
X123811260Y-81404969D01*
X124028288Y-81488279D01*
X124037960Y-81491126D01*
X124188284Y-81522530D01*
X124202345Y-81521407D01*
X124206020Y-81511299D01*
X124206020Y-77819854D01*
X124201884Y-77805768D01*
X124188906Y-77803719D01*
X124171293Y-77805757D01*
X124161385Y-77807719D01*
X123937711Y-77871012D01*
X123928260Y-77874526D01*
X123717567Y-77972774D01*
X123708803Y-77977753D01*
X123516539Y-78108416D01*
X123508664Y-78114748D01*
X123339774Y-78274459D01*
X123333018Y-78281962D01*
X123290920Y-78337024D01*
X123233655Y-78378991D01*
X123162791Y-78383336D01*
X123096310Y-78343819D01*
X122974314Y-78205441D01*
X122974311Y-78205438D01*
X122970966Y-78201644D01*
X122783450Y-78047617D01*
X122573721Y-77925551D01*
X122568995Y-77923737D01*
X122568991Y-77923735D01*
X122351902Y-77840403D01*
X122351899Y-77840402D01*
X122347173Y-77838588D01*
X122109636Y-77788964D01*
X122104587Y-77788735D01*
X122104581Y-77788734D01*
X121993962Y-77783711D01*
X121867221Y-77777956D01*
X121862201Y-77778537D01*
X121862197Y-77778537D01*
X121763135Y-77789999D01*
X121626164Y-77805847D01*
X121621290Y-77807226D01*
X121621286Y-77807227D01*
X121397536Y-77870542D01*
X121397534Y-77870543D01*
X121392667Y-77871920D01*
X121388092Y-77874054D01*
X121388085Y-77874056D01*
X121177319Y-77972338D01*
X121177315Y-77972340D01*
X121172737Y-77974475D01*
X121168556Y-77977317D01*
X121168555Y-77977317D01*
X120976221Y-78108027D01*
X120976217Y-78108030D01*
X120972034Y-78110873D01*
X120795719Y-78277605D01*
X120750581Y-78336643D01*
X120693319Y-78378609D01*
X120622455Y-78382954D01*
X120555973Y-78343437D01*
X120434314Y-78205441D01*
X120434311Y-78205438D01*
X120430966Y-78201644D01*
X120243450Y-78047617D01*
X120033721Y-77925551D01*
X120028995Y-77923737D01*
X120028991Y-77923735D01*
X119811902Y-77840403D01*
X119811899Y-77840402D01*
X119807173Y-77838588D01*
X119569636Y-77788964D01*
X119564587Y-77788735D01*
X119564581Y-77788734D01*
X119453962Y-77783711D01*
X119327221Y-77777956D01*
X119322201Y-77778537D01*
X119322197Y-77778537D01*
X119223135Y-77789999D01*
X119086164Y-77805847D01*
X119081290Y-77807226D01*
X119081286Y-77807227D01*
X118857536Y-77870542D01*
X118857534Y-77870543D01*
X118852667Y-77871920D01*
X118848092Y-77874054D01*
X118848085Y-77874056D01*
X118637319Y-77972338D01*
X118637315Y-77972340D01*
X118632737Y-77974475D01*
X118628556Y-77977317D01*
X118628555Y-77977317D01*
X118436221Y-78108027D01*
X118436217Y-78108030D01*
X118432034Y-78110873D01*
X118255719Y-78277605D01*
X118210581Y-78336643D01*
X118153319Y-78378609D01*
X118082455Y-78382954D01*
X118015973Y-78343437D01*
X117894314Y-78205441D01*
X117894311Y-78205438D01*
X117890966Y-78201644D01*
X117703450Y-78047617D01*
X117699081Y-78045074D01*
X117699080Y-78045073D01*
X117536119Y-77950227D01*
X117487306Y-77898674D01*
X117473500Y-77841329D01*
X117473500Y-71721094D01*
X117493502Y-71652973D01*
X117510405Y-71631999D01*
X121530105Y-67612300D01*
X121592417Y-67578274D01*
X121663233Y-67583339D01*
G37*
%TD.AperFunction*%
%TD*%
M02*
