%TF.GenerationSoftware,KiCad,Pcbnew,(6.0.11)*%
%TF.CreationDate,2023-02-24T20:03:43+09:00*%
%TF.ProjectId,Underside,556e6465-7273-4696-9465-2e6b69636164,rev?*%
%TF.SameCoordinates,Original*%
%TF.FileFunction,Legend,Top*%
%TF.FilePolarity,Positive*%
%FSLAX46Y46*%
G04 Gerber Fmt 4.6, Leading zero omitted, Abs format (unit mm)*
G04 Created by KiCad (PCBNEW (6.0.11)) date 2023-02-24 20:03:43*
%MOMM*%
%LPD*%
G01*
G04 APERTURE LIST*
%ADD10C,0.150000*%
%ADD11C,0.101600*%
%ADD12C,0.076200*%
%ADD13C,0.120000*%
%ADD14C,0.200000*%
%ADD15C,0.066040*%
%ADD16C,0.127000*%
%ADD17C,0.254000*%
G04 APERTURE END LIST*
D10*
%TO.C,TORICA-UART1*%
X102829523Y-57932380D02*
X103400952Y-57932380D01*
X103115238Y-58932380D02*
X103115238Y-57932380D01*
X103924761Y-57932380D02*
X104115238Y-57932380D01*
X104210476Y-57980000D01*
X104305714Y-58075238D01*
X104353333Y-58265714D01*
X104353333Y-58599047D01*
X104305714Y-58789523D01*
X104210476Y-58884761D01*
X104115238Y-58932380D01*
X103924761Y-58932380D01*
X103829523Y-58884761D01*
X103734285Y-58789523D01*
X103686666Y-58599047D01*
X103686666Y-58265714D01*
X103734285Y-58075238D01*
X103829523Y-57980000D01*
X103924761Y-57932380D01*
X105353333Y-58932380D02*
X105020000Y-58456190D01*
X104781904Y-58932380D02*
X104781904Y-57932380D01*
X105162857Y-57932380D01*
X105258095Y-57980000D01*
X105305714Y-58027619D01*
X105353333Y-58122857D01*
X105353333Y-58265714D01*
X105305714Y-58360952D01*
X105258095Y-58408571D01*
X105162857Y-58456190D01*
X104781904Y-58456190D01*
X105781904Y-58932380D02*
X105781904Y-57932380D01*
X106829523Y-58837142D02*
X106781904Y-58884761D01*
X106639047Y-58932380D01*
X106543809Y-58932380D01*
X106400952Y-58884761D01*
X106305714Y-58789523D01*
X106258095Y-58694285D01*
X106210476Y-58503809D01*
X106210476Y-58360952D01*
X106258095Y-58170476D01*
X106305714Y-58075238D01*
X106400952Y-57980000D01*
X106543809Y-57932380D01*
X106639047Y-57932380D01*
X106781904Y-57980000D01*
X106829523Y-58027619D01*
X107210476Y-58646666D02*
X107686666Y-58646666D01*
X107115238Y-58932380D02*
X107448571Y-57932380D01*
X107781904Y-58932380D01*
X107877142Y-59027619D02*
X108639047Y-59027619D01*
X108877142Y-57932380D02*
X108877142Y-58741904D01*
X108924761Y-58837142D01*
X108972380Y-58884761D01*
X109067619Y-58932380D01*
X109258095Y-58932380D01*
X109353333Y-58884761D01*
X109400952Y-58837142D01*
X109448571Y-58741904D01*
X109448571Y-57932380D01*
X109877142Y-58646666D02*
X110353333Y-58646666D01*
X109781904Y-58932380D02*
X110115238Y-57932380D01*
X110448571Y-58932380D01*
X111353333Y-58932380D02*
X111020000Y-58456190D01*
X110781904Y-58932380D02*
X110781904Y-57932380D01*
X111162857Y-57932380D01*
X111258095Y-57980000D01*
X111305714Y-58027619D01*
X111353333Y-58122857D01*
X111353333Y-58265714D01*
X111305714Y-58360952D01*
X111258095Y-58408571D01*
X111162857Y-58456190D01*
X110781904Y-58456190D01*
X111639047Y-57932380D02*
X112210476Y-57932380D01*
X111924761Y-58932380D02*
X111924761Y-57932380D01*
%TO.C,J1*%
X115146666Y-104885238D02*
X115146666Y-104409047D01*
X115432380Y-104980476D02*
X114432380Y-104647142D01*
X115432380Y-104313809D01*
X114908571Y-103980476D02*
X114908571Y-103647142D01*
X115432380Y-103504285D02*
X115432380Y-103980476D01*
X114432380Y-103980476D01*
X114432380Y-103504285D01*
X115051428Y-103075714D02*
X115051428Y-102313809D01*
X115432380Y-101837619D02*
X114432380Y-101837619D01*
X115146666Y-101504285D01*
X114432380Y-101170952D01*
X115432380Y-101170952D01*
X115432380Y-100694761D02*
X114432380Y-100694761D01*
X115337142Y-99647142D02*
X115384761Y-99694761D01*
X115432380Y-99837619D01*
X115432380Y-99932857D01*
X115384761Y-100075714D01*
X115289523Y-100170952D01*
X115194285Y-100218571D01*
X115003809Y-100266190D01*
X114860952Y-100266190D01*
X114670476Y-100218571D01*
X114575238Y-100170952D01*
X114480000Y-100075714D01*
X114432380Y-99932857D01*
X114432380Y-99837619D01*
X114480000Y-99694761D01*
X114527619Y-99647142D01*
X115432380Y-98647142D02*
X114956190Y-98980476D01*
X115432380Y-99218571D02*
X114432380Y-99218571D01*
X114432380Y-98837619D01*
X114480000Y-98742380D01*
X114527619Y-98694761D01*
X114622857Y-98647142D01*
X114765714Y-98647142D01*
X114860952Y-98694761D01*
X114908571Y-98742380D01*
X114956190Y-98837619D01*
X114956190Y-99218571D01*
X114432380Y-98028095D02*
X114432380Y-97837619D01*
X114480000Y-97742380D01*
X114575238Y-97647142D01*
X114765714Y-97599523D01*
X115099047Y-97599523D01*
X115289523Y-97647142D01*
X115384761Y-97742380D01*
X115432380Y-97837619D01*
X115432380Y-98028095D01*
X115384761Y-98123333D01*
X115289523Y-98218571D01*
X115099047Y-98266190D01*
X114765714Y-98266190D01*
X114575238Y-98218571D01*
X114480000Y-98123333D01*
X114432380Y-98028095D01*
X115051428Y-97170952D02*
X115051428Y-96409047D01*
X115384761Y-95980476D02*
X115432380Y-95837619D01*
X115432380Y-95599523D01*
X115384761Y-95504285D01*
X115337142Y-95456666D01*
X115241904Y-95409047D01*
X115146666Y-95409047D01*
X115051428Y-95456666D01*
X115003809Y-95504285D01*
X114956190Y-95599523D01*
X114908571Y-95790000D01*
X114860952Y-95885238D01*
X114813333Y-95932857D01*
X114718095Y-95980476D01*
X114622857Y-95980476D01*
X114527619Y-95932857D01*
X114480000Y-95885238D01*
X114432380Y-95790000D01*
X114432380Y-95551904D01*
X114480000Y-95409047D01*
X115432380Y-94980476D02*
X114432380Y-94980476D01*
X114432380Y-94742380D01*
X114480000Y-94599523D01*
X114575238Y-94504285D01*
X114670476Y-94456666D01*
X114860952Y-94409047D01*
X115003809Y-94409047D01*
X115194285Y-94456666D01*
X115289523Y-94504285D01*
X115384761Y-94599523D01*
X115432380Y-94742380D01*
X115432380Y-94980476D01*
X115051428Y-93980476D02*
X115051428Y-93218571D01*
X115432380Y-92742380D02*
X114432380Y-92742380D01*
X114432380Y-92504285D01*
X114480000Y-92361428D01*
X114575238Y-92266190D01*
X114670476Y-92218571D01*
X114860952Y-92170952D01*
X115003809Y-92170952D01*
X115194285Y-92218571D01*
X115289523Y-92266190D01*
X115384761Y-92361428D01*
X115432380Y-92504285D01*
X115432380Y-92742380D01*
X115432380Y-91742380D02*
X114432380Y-91742380D01*
X115432380Y-91266190D02*
X114432380Y-91266190D01*
X114432380Y-90885238D01*
X114480000Y-90790000D01*
X114527619Y-90742380D01*
X114622857Y-90694761D01*
X114765714Y-90694761D01*
X114860952Y-90742380D01*
X114908571Y-90790000D01*
X114956190Y-90885238D01*
X114956190Y-91266190D01*
%TO.C,U1*%
X94533333Y-98662380D02*
X94533333Y-97662380D01*
X94771428Y-97662380D01*
X94914285Y-97710000D01*
X95009523Y-97805238D01*
X95057142Y-97900476D01*
X95104761Y-98090952D01*
X95104761Y-98233809D01*
X95057142Y-98424285D01*
X95009523Y-98519523D01*
X94914285Y-98614761D01*
X94771428Y-98662380D01*
X94533333Y-98662380D01*
X95533333Y-98662380D02*
X95533333Y-97662380D01*
X95914285Y-97662380D01*
X96009523Y-97710000D01*
X96057142Y-97757619D01*
X96104761Y-97852857D01*
X96104761Y-97995714D01*
X96057142Y-98090952D01*
X96009523Y-98138571D01*
X95914285Y-98186190D01*
X95533333Y-98186190D01*
X96485714Y-98614761D02*
X96628571Y-98662380D01*
X96866666Y-98662380D01*
X96961904Y-98614761D01*
X97009523Y-98567142D01*
X97057142Y-98471904D01*
X97057142Y-98376666D01*
X97009523Y-98281428D01*
X96961904Y-98233809D01*
X96866666Y-98186190D01*
X96676190Y-98138571D01*
X96580952Y-98090952D01*
X96533333Y-98043333D01*
X96485714Y-97948095D01*
X96485714Y-97852857D01*
X96533333Y-97757619D01*
X96580952Y-97710000D01*
X96676190Y-97662380D01*
X96914285Y-97662380D01*
X97057142Y-97710000D01*
X97390476Y-97662380D02*
X98009523Y-97662380D01*
X97676190Y-98043333D01*
X97819047Y-98043333D01*
X97914285Y-98090952D01*
X97961904Y-98138571D01*
X98009523Y-98233809D01*
X98009523Y-98471904D01*
X97961904Y-98567142D01*
X97914285Y-98614761D01*
X97819047Y-98662380D01*
X97533333Y-98662380D01*
X97438095Y-98614761D01*
X97390476Y-98567142D01*
X98961904Y-98662380D02*
X98390476Y-98662380D01*
X98676190Y-98662380D02*
X98676190Y-97662380D01*
X98580952Y-97805238D01*
X98485714Y-97900476D01*
X98390476Y-97948095D01*
X99580952Y-97662380D02*
X99676190Y-97662380D01*
X99771428Y-97710000D01*
X99819047Y-97757619D01*
X99866666Y-97852857D01*
X99914285Y-98043333D01*
X99914285Y-98281428D01*
X99866666Y-98471904D01*
X99819047Y-98567142D01*
X99771428Y-98614761D01*
X99676190Y-98662380D01*
X99580952Y-98662380D01*
X99485714Y-98614761D01*
X99438095Y-98567142D01*
X99390476Y-98471904D01*
X99342857Y-98281428D01*
X99342857Y-98043333D01*
X99390476Y-97852857D01*
X99438095Y-97757619D01*
X99485714Y-97710000D01*
X99580952Y-97662380D01*
D11*
%TO.C,U3*%
X130175866Y-72678733D02*
X130895533Y-72678733D01*
X130980200Y-72636400D01*
X131022533Y-72594066D01*
X131064866Y-72509400D01*
X131064866Y-72340066D01*
X131022533Y-72255400D01*
X130980200Y-72213066D01*
X130895533Y-72170733D01*
X130175866Y-72170733D01*
X130175866Y-71832066D02*
X130175866Y-71281733D01*
X130514533Y-71578066D01*
X130514533Y-71451066D01*
X130556866Y-71366400D01*
X130599200Y-71324066D01*
X130683866Y-71281733D01*
X130895533Y-71281733D01*
X130980200Y-71324066D01*
X131022533Y-71366400D01*
X131064866Y-71451066D01*
X131064866Y-71705066D01*
X131022533Y-71789733D01*
X130980200Y-71832066D01*
D12*
X119923942Y-74779071D02*
X119952971Y-74691985D01*
X119952971Y-74546842D01*
X119923942Y-74488785D01*
X119894914Y-74459757D01*
X119836857Y-74430728D01*
X119778800Y-74430728D01*
X119720742Y-74459757D01*
X119691714Y-74488785D01*
X119662685Y-74546842D01*
X119633657Y-74662957D01*
X119604628Y-74721014D01*
X119575600Y-74750042D01*
X119517542Y-74779071D01*
X119459485Y-74779071D01*
X119401428Y-74750042D01*
X119372400Y-74721014D01*
X119343371Y-74662957D01*
X119343371Y-74517814D01*
X119372400Y-74430728D01*
X119923942Y-73937242D02*
X119952971Y-73995300D01*
X119952971Y-74111414D01*
X119923942Y-74169471D01*
X119865885Y-74198500D01*
X119633657Y-74198500D01*
X119575600Y-74169471D01*
X119546571Y-74111414D01*
X119546571Y-73995300D01*
X119575600Y-73937242D01*
X119633657Y-73908214D01*
X119691714Y-73908214D01*
X119749771Y-74198500D01*
X119923942Y-73414728D02*
X119952971Y-73472785D01*
X119952971Y-73588900D01*
X119923942Y-73646957D01*
X119865885Y-73675985D01*
X119633657Y-73675985D01*
X119575600Y-73646957D01*
X119546571Y-73588900D01*
X119546571Y-73472785D01*
X119575600Y-73414728D01*
X119633657Y-73385700D01*
X119691714Y-73385700D01*
X119749771Y-73675985D01*
X119923942Y-72892214D02*
X119952971Y-72950271D01*
X119952971Y-73066385D01*
X119923942Y-73124442D01*
X119865885Y-73153471D01*
X119633657Y-73153471D01*
X119575600Y-73124442D01*
X119546571Y-73066385D01*
X119546571Y-72950271D01*
X119575600Y-72892214D01*
X119633657Y-72863185D01*
X119691714Y-72863185D01*
X119749771Y-73153471D01*
X119952971Y-72340671D02*
X119343371Y-72340671D01*
X119923942Y-72340671D02*
X119952971Y-72398728D01*
X119952971Y-72514842D01*
X119923942Y-72572900D01*
X119894914Y-72601928D01*
X119836857Y-72630957D01*
X119662685Y-72630957D01*
X119604628Y-72601928D01*
X119575600Y-72572900D01*
X119546571Y-72514842D01*
X119546571Y-72398728D01*
X119575600Y-72340671D01*
X119546571Y-71789128D02*
X119952971Y-71789128D01*
X119546571Y-72050385D02*
X119865885Y-72050385D01*
X119923942Y-72021357D01*
X119952971Y-71963300D01*
X119952971Y-71876214D01*
X119923942Y-71818157D01*
X119894914Y-71789128D01*
X119952971Y-71498842D02*
X119546571Y-71498842D01*
X119343371Y-71498842D02*
X119372400Y-71527871D01*
X119401428Y-71498842D01*
X119372400Y-71469814D01*
X119343371Y-71498842D01*
X119401428Y-71498842D01*
X119546571Y-71208557D02*
X119952971Y-71208557D01*
X119604628Y-71208557D02*
X119575600Y-71179528D01*
X119546571Y-71121471D01*
X119546571Y-71034385D01*
X119575600Y-70976328D01*
X119633657Y-70947300D01*
X119952971Y-70947300D01*
X119952971Y-70569928D02*
X119923942Y-70627985D01*
X119894914Y-70657014D01*
X119836857Y-70686042D01*
X119662685Y-70686042D01*
X119604628Y-70657014D01*
X119575600Y-70627985D01*
X119546571Y-70569928D01*
X119546571Y-70482842D01*
X119575600Y-70424785D01*
X119604628Y-70395757D01*
X119662685Y-70366728D01*
X119836857Y-70366728D01*
X119894914Y-70395757D01*
X119923942Y-70424785D01*
X119952971Y-70482842D01*
X119952971Y-70569928D01*
X119343371Y-70163528D02*
X119952971Y-69757128D01*
X119343371Y-69757128D02*
X119952971Y-70163528D01*
X119952971Y-69524900D02*
X119343371Y-69524900D01*
X119778800Y-69263642D02*
X119778800Y-68973357D01*
X119952971Y-69321700D02*
X119343371Y-69118500D01*
X119952971Y-68915300D01*
X119343371Y-68595985D02*
X119343371Y-68479871D01*
X119372400Y-68421814D01*
X119430457Y-68363757D01*
X119546571Y-68334728D01*
X119749771Y-68334728D01*
X119865885Y-68363757D01*
X119923942Y-68421814D01*
X119952971Y-68479871D01*
X119952971Y-68595985D01*
X119923942Y-68654042D01*
X119865885Y-68712100D01*
X119749771Y-68741128D01*
X119546571Y-68741128D01*
X119430457Y-68712100D01*
X119372400Y-68654042D01*
X119343371Y-68595985D01*
D10*
%TO.C,REF2*%
X86532380Y-115612380D02*
X86199047Y-115136190D01*
X85960952Y-115612380D02*
X85960952Y-114612380D01*
X86341904Y-114612380D01*
X86437142Y-114660000D01*
X86484761Y-114707619D01*
X86532380Y-114802857D01*
X86532380Y-114945714D01*
X86484761Y-115040952D01*
X86437142Y-115088571D01*
X86341904Y-115136190D01*
X85960952Y-115136190D01*
X86960952Y-115088571D02*
X87294285Y-115088571D01*
X87437142Y-115612380D02*
X86960952Y-115612380D01*
X86960952Y-114612380D01*
X87437142Y-114612380D01*
X88199047Y-115088571D02*
X87865714Y-115088571D01*
X87865714Y-115612380D02*
X87865714Y-114612380D01*
X88341904Y-114612380D01*
X88675238Y-114707619D02*
X88722857Y-114660000D01*
X88818095Y-114612380D01*
X89056190Y-114612380D01*
X89151428Y-114660000D01*
X89199047Y-114707619D01*
X89246666Y-114802857D01*
X89246666Y-114898095D01*
X89199047Y-115040952D01*
X88627619Y-115612380D01*
X89246666Y-115612380D01*
%TO.C,REF3*%
X128032380Y-115612380D02*
X127699047Y-115136190D01*
X127460952Y-115612380D02*
X127460952Y-114612380D01*
X127841904Y-114612380D01*
X127937142Y-114660000D01*
X127984761Y-114707619D01*
X128032380Y-114802857D01*
X128032380Y-114945714D01*
X127984761Y-115040952D01*
X127937142Y-115088571D01*
X127841904Y-115136190D01*
X127460952Y-115136190D01*
X128460952Y-115088571D02*
X128794285Y-115088571D01*
X128937142Y-115612380D02*
X128460952Y-115612380D01*
X128460952Y-114612380D01*
X128937142Y-114612380D01*
X129699047Y-115088571D02*
X129365714Y-115088571D01*
X129365714Y-115612380D02*
X129365714Y-114612380D01*
X129841904Y-114612380D01*
X130127619Y-114612380D02*
X130746666Y-114612380D01*
X130413333Y-114993333D01*
X130556190Y-114993333D01*
X130651428Y-115040952D01*
X130699047Y-115088571D01*
X130746666Y-115183809D01*
X130746666Y-115421904D01*
X130699047Y-115517142D01*
X130651428Y-115564761D01*
X130556190Y-115612380D01*
X130270476Y-115612380D01*
X130175238Y-115564761D01*
X130127619Y-115517142D01*
%TO.C,REF4*%
X128032380Y-49612380D02*
X127699047Y-49136190D01*
X127460952Y-49612380D02*
X127460952Y-48612380D01*
X127841904Y-48612380D01*
X127937142Y-48660000D01*
X127984761Y-48707619D01*
X128032380Y-48802857D01*
X128032380Y-48945714D01*
X127984761Y-49040952D01*
X127937142Y-49088571D01*
X127841904Y-49136190D01*
X127460952Y-49136190D01*
X128460952Y-49088571D02*
X128794285Y-49088571D01*
X128937142Y-49612380D02*
X128460952Y-49612380D01*
X128460952Y-48612380D01*
X128937142Y-48612380D01*
X129699047Y-49088571D02*
X129365714Y-49088571D01*
X129365714Y-49612380D02*
X129365714Y-48612380D01*
X129841904Y-48612380D01*
X130651428Y-48945714D02*
X130651428Y-49612380D01*
X130413333Y-48564761D02*
X130175238Y-49279047D01*
X130794285Y-49279047D01*
%TO.C,REF1*%
X86532380Y-49612380D02*
X86199047Y-49136190D01*
X85960952Y-49612380D02*
X85960952Y-48612380D01*
X86341904Y-48612380D01*
X86437142Y-48660000D01*
X86484761Y-48707619D01*
X86532380Y-48802857D01*
X86532380Y-48945714D01*
X86484761Y-49040952D01*
X86437142Y-49088571D01*
X86341904Y-49136190D01*
X85960952Y-49136190D01*
X86960952Y-49088571D02*
X87294285Y-49088571D01*
X87437142Y-49612380D02*
X86960952Y-49612380D01*
X86960952Y-48612380D01*
X87437142Y-48612380D01*
X88199047Y-49088571D02*
X87865714Y-49088571D01*
X87865714Y-49612380D02*
X87865714Y-48612380D01*
X88341904Y-48612380D01*
X89246666Y-49612380D02*
X88675238Y-49612380D01*
X88960952Y-49612380D02*
X88960952Y-48612380D01*
X88865714Y-48755238D01*
X88770476Y-48850476D01*
X88675238Y-48898095D01*
D13*
%TO.C,TORICA-UART1*%
X111520000Y-51470000D02*
X111520000Y-45970000D01*
X111520000Y-45970000D02*
X111020000Y-45970000D01*
X108520000Y-51470000D02*
X109020000Y-51470000D01*
X101210000Y-57080000D02*
X102630000Y-57080000D01*
X113830000Y-45360000D02*
X113830000Y-57080000D01*
X113830000Y-57080000D02*
X112410000Y-57080000D01*
X103520000Y-51470000D02*
X104020000Y-51470000D01*
X112410000Y-52580000D02*
X107520000Y-52580000D01*
X102630000Y-57080000D02*
X102630000Y-52580000D01*
X101210000Y-45360000D02*
X101210000Y-57080000D01*
X111570000Y-56770000D02*
X110970000Y-56770000D01*
X104020000Y-51470000D02*
X104020000Y-45970000D01*
X106520000Y-45970000D02*
X106020000Y-45970000D01*
X111020000Y-51470000D02*
X111520000Y-51470000D01*
X110970000Y-56770000D02*
X111270000Y-56170000D01*
X106020000Y-45970000D02*
X106020000Y-51470000D01*
X107520000Y-45360000D02*
X101210000Y-45360000D01*
X102630000Y-52580000D02*
X107520000Y-52580000D01*
X106520000Y-51470000D02*
X106520000Y-45970000D01*
X104020000Y-45970000D02*
X103520000Y-45970000D01*
X107520000Y-45360000D02*
X113830000Y-45360000D01*
X111270000Y-56170000D02*
X111570000Y-56770000D01*
X112410000Y-57080000D02*
X112410000Y-52580000D01*
X108520000Y-45970000D02*
X108520000Y-51470000D01*
X109020000Y-51470000D02*
X109020000Y-45970000D01*
X106020000Y-51470000D02*
X106520000Y-51470000D01*
X111020000Y-45970000D02*
X111020000Y-51470000D01*
X109020000Y-45970000D02*
X108520000Y-45970000D01*
X103520000Y-45970000D02*
X103520000Y-51470000D01*
D14*
%TO.C,J1*%
X130730000Y-85090000D02*
X111170000Y-85090000D01*
X111170000Y-85090000D02*
X111170000Y-110490000D01*
X111170000Y-110490000D02*
X130730000Y-110490000D01*
X130730000Y-110490000D02*
X130730000Y-85090000D01*
D13*
%TO.C,U1*%
X107200000Y-106680000D02*
X87197927Y-106680000D01*
X87197927Y-106680000D02*
X87197927Y-66730000D01*
X87197927Y-66730000D02*
X107200000Y-66730000D01*
X107200000Y-66730000D02*
X107200000Y-106680000D01*
D15*
%TO.C,U3*%
X109517200Y-74731900D02*
X112057200Y-74731900D01*
X123230660Y-68127900D02*
X125900200Y-68127900D01*
X127297200Y-76763900D02*
X129964200Y-76763900D01*
D16*
X129880380Y-63337460D02*
X129209820Y-62666900D01*
D15*
X123230660Y-76763900D02*
X125900200Y-76763900D01*
X126662200Y-74096900D02*
X129202200Y-74096900D01*
X127297200Y-66349900D02*
X129964200Y-66349900D01*
D16*
X108882200Y-80464680D02*
X129880380Y-80464680D01*
X131305320Y-76060320D02*
X123952020Y-76060320D01*
D15*
X127297200Y-74985900D02*
X129964200Y-74985900D01*
X123230660Y-66349900D02*
X123230660Y-68127900D01*
D16*
X108882200Y-62666900D02*
X108882200Y-80464680D01*
D15*
X129964200Y-74985900D02*
X129964200Y-76763900D01*
X129964200Y-66349900D02*
X129964200Y-68127900D01*
X126662200Y-69016900D02*
X126662200Y-74096900D01*
X126662200Y-69016900D02*
X129202200Y-69016900D01*
X109517200Y-69016900D02*
X112057200Y-69016900D01*
X109517200Y-69016900D02*
X109517200Y-74731900D01*
X123230660Y-74985900D02*
X125900200Y-74985900D01*
X127297200Y-66349900D02*
X127297200Y-68127900D01*
X127297200Y-68127900D02*
X129964200Y-68127900D01*
D16*
X131305320Y-67066180D02*
X131305320Y-76060320D01*
D15*
X129202200Y-69016900D02*
X129202200Y-74096900D01*
D16*
X123952020Y-67061100D02*
X131305320Y-67061100D01*
X123952020Y-76060320D02*
X123952020Y-67061100D01*
D15*
X125900200Y-66349900D02*
X125900200Y-68127900D01*
D16*
X129880380Y-80464680D02*
X129880380Y-63337460D01*
D15*
X127297200Y-74985900D02*
X127297200Y-76763900D01*
D16*
X129209820Y-62666900D02*
X108882200Y-62666900D01*
D15*
X123230660Y-74985900D02*
X123230660Y-76763900D01*
X123230660Y-66349900D02*
X125900200Y-66349900D01*
X112057200Y-69016900D02*
X112057200Y-74731900D01*
X125900200Y-74985900D02*
X125900200Y-76763900D01*
D17*
X127170200Y-61777900D02*
G75*
G03*
X127170200Y-61777900I-127000J0D01*
G01*
%TO.C,G\u002A\u002A\u002A*%
G36*
X96821815Y-85136622D02*
G01*
X97127706Y-85146685D01*
X97443435Y-85161682D01*
X97737959Y-85180297D01*
X97980236Y-85201217D01*
X98139225Y-85223129D01*
X98164259Y-85229167D01*
X98250164Y-85302707D01*
X98280408Y-85472294D01*
X98280823Y-85511168D01*
X98274276Y-85684559D01*
X98242023Y-85802731D01*
X98162600Y-85875785D01*
X98014541Y-85913820D01*
X97776380Y-85926933D01*
X97426651Y-85925225D01*
X97401494Y-85924869D01*
X97070391Y-85914640D01*
X96768039Y-85895449D01*
X96532213Y-85870251D01*
X96417169Y-85847855D01*
X96280243Y-85794516D01*
X96217014Y-85714474D01*
X96199384Y-85561506D01*
X96198783Y-85488596D01*
X96214591Y-85299084D01*
X96254308Y-85171010D01*
X96273585Y-85149161D01*
X96363713Y-85136546D01*
X96556804Y-85132804D01*
X96821815Y-85136622D01*
G37*
G36*
X97798028Y-78480597D02*
G01*
X97980579Y-78523488D01*
X98176627Y-78632068D01*
X98193982Y-78643420D01*
X98440325Y-78860545D01*
X98645847Y-79141890D01*
X98656303Y-79160713D01*
X98732328Y-79307190D01*
X98782093Y-79435229D01*
X98809753Y-79576798D01*
X98819465Y-79763869D01*
X98815385Y-80028409D01*
X98805370Y-80307338D01*
X98789558Y-80658830D01*
X98769821Y-80908045D01*
X98739698Y-81087070D01*
X98692728Y-81227998D01*
X98622451Y-81362916D01*
X98578234Y-81435457D01*
X98348527Y-81746288D01*
X98106907Y-81944720D01*
X97824280Y-82051641D01*
X97688902Y-82073984D01*
X97281069Y-82065364D01*
X96933664Y-81941035D01*
X96652788Y-81708210D01*
X96444544Y-81374104D01*
X96315035Y-80945929D01*
X96270364Y-80430900D01*
X96270514Y-80397413D01*
X96279375Y-80221718D01*
X96815940Y-80221718D01*
X96829455Y-80518080D01*
X96866575Y-80640790D01*
X96958841Y-80799141D01*
X97100639Y-80966085D01*
X97118559Y-80983313D01*
X97273712Y-81099752D01*
X97441626Y-81142947D01*
X97607665Y-81141085D01*
X97814116Y-81111994D01*
X97948216Y-81035680D01*
X98061236Y-80893793D01*
X98179871Y-80613496D01*
X98214968Y-80287009D01*
X98161570Y-79977163D01*
X98138150Y-79918992D01*
X98026144Y-79777031D01*
X97854104Y-79653157D01*
X97832619Y-79642400D01*
X97550007Y-79570454D01*
X97287446Y-79612656D01*
X97064523Y-79748763D01*
X96900825Y-79958531D01*
X96815940Y-80221718D01*
X96279375Y-80221718D01*
X96285668Y-80096939D01*
X96320619Y-79797666D01*
X96361543Y-79590959D01*
X96526299Y-79190671D01*
X96775793Y-78863016D01*
X97090157Y-78626369D01*
X97449521Y-78499109D01*
X97550007Y-78486339D01*
X97556711Y-78485487D01*
X97798028Y-78480597D01*
G37*
G36*
X98260797Y-82462539D02*
G01*
X98381753Y-82490786D01*
X98451091Y-82528235D01*
X98488194Y-82575709D01*
X98510675Y-82695957D01*
X98516197Y-82915049D01*
X98507335Y-83198865D01*
X98486666Y-83513282D01*
X98456763Y-83824182D01*
X98420202Y-84097443D01*
X98379557Y-84298945D01*
X98352418Y-84374814D01*
X98204781Y-84559236D01*
X98001492Y-84707044D01*
X97796195Y-84781429D01*
X97755700Y-84784286D01*
X97592875Y-84738757D01*
X97420747Y-84627296D01*
X97400457Y-84608775D01*
X97217263Y-84433264D01*
X96859214Y-84604943D01*
X96580902Y-84732901D01*
X96399389Y-84793249D01*
X96292671Y-84781208D01*
X96238747Y-84691999D01*
X96215614Y-84520841D01*
X96212045Y-84464354D01*
X96207746Y-84249962D01*
X96232498Y-84133610D01*
X96295309Y-84080453D01*
X96312838Y-84074455D01*
X96445318Y-84023431D01*
X96636891Y-83937579D01*
X96719550Y-83897880D01*
X96894730Y-83801383D01*
X96978441Y-83708716D01*
X96998005Y-83604603D01*
X97549017Y-83604603D01*
X97572615Y-83798405D01*
X97643808Y-83956128D01*
X97695802Y-84004691D01*
X97819664Y-84030182D01*
X97902111Y-83929974D01*
X97941513Y-83706735D01*
X97944844Y-83597160D01*
X97919630Y-83380393D01*
X97838568Y-83283172D01*
X97696592Y-83300615D01*
X97656639Y-83319378D01*
X97576022Y-83427376D01*
X97549017Y-83604603D01*
X96998005Y-83604603D01*
X97003858Y-83573454D01*
X97005132Y-83498228D01*
X97005132Y-83238783D01*
X96682593Y-83238783D01*
X96474977Y-83222886D01*
X96319192Y-83182631D01*
X96279418Y-83158148D01*
X96230402Y-83045062D01*
X96204667Y-82860901D01*
X96202803Y-82656927D01*
X96225398Y-82484402D01*
X96270655Y-82395946D01*
X96359716Y-82383616D01*
X96557973Y-82378872D01*
X96840450Y-82381617D01*
X97182170Y-82391754D01*
X97381429Y-82400217D01*
X97781314Y-82420533D01*
X97838568Y-82424470D01*
X98067544Y-82440215D01*
X98260797Y-82462539D01*
G37*
G36*
X97363698Y-86110126D02*
G01*
X97660086Y-86210090D01*
X97891482Y-86407458D01*
X98050165Y-86678055D01*
X98128412Y-86997709D01*
X98118501Y-87342244D01*
X98012710Y-87687486D01*
X97920734Y-87853915D01*
X97790322Y-88002478D01*
X97630083Y-88118127D01*
X97479870Y-88178212D01*
X97380422Y-88160986D01*
X97335335Y-88033370D01*
X97351888Y-87842821D01*
X97420197Y-87640187D01*
X97509019Y-87499367D01*
X97617692Y-87359918D01*
X97674577Y-87261391D01*
X97677008Y-87249312D01*
X97636280Y-87119826D01*
X97539692Y-86958465D01*
X97426052Y-86828742D01*
X97414130Y-86819095D01*
X97229579Y-86745041D01*
X97004996Y-86740875D01*
X96802406Y-86802231D01*
X96717685Y-86868122D01*
X96626783Y-87047689D01*
X96607801Y-87252866D01*
X96662161Y-87426205D01*
X96702752Y-87472116D01*
X96772977Y-87599850D01*
X96801503Y-87790689D01*
X96782886Y-87978332D01*
X96750694Y-88055970D01*
X96658423Y-88095536D01*
X96517569Y-88050084D01*
X96362169Y-87940588D01*
X96226264Y-87788022D01*
X96176164Y-87701946D01*
X96084245Y-87365837D01*
X96096028Y-86991405D01*
X96158911Y-86752506D01*
X96336449Y-86445616D01*
X96603723Y-86230053D01*
X96944525Y-86114460D01*
X97342647Y-86107479D01*
X97363698Y-86110126D01*
G37*
G36*
X97240318Y-88650435D02*
G01*
X97538168Y-88799630D01*
X97727574Y-88933444D01*
X97829875Y-89071382D01*
X97865670Y-89222076D01*
X97857561Y-89489788D01*
X97785703Y-89646916D01*
X97676528Y-89689577D01*
X97551768Y-89718572D01*
X97512714Y-89750925D01*
X97427116Y-89801063D01*
X97263568Y-89847226D01*
X97221792Y-89855019D01*
X96981892Y-89906305D01*
X96858435Y-89970665D01*
X96833641Y-90067956D01*
X96889734Y-90218035D01*
X96892253Y-90223104D01*
X96963920Y-90436980D01*
X96940768Y-90573509D01*
X96841124Y-90627861D01*
X96683313Y-90595209D01*
X96485661Y-90470727D01*
X96366773Y-90361534D01*
X96160955Y-90172936D01*
X96022418Y-90096512D01*
X95952961Y-90132487D01*
X95954387Y-90281083D01*
X95960399Y-90311137D01*
X96002910Y-90530657D01*
X96043518Y-90774197D01*
X96046910Y-90796921D01*
X96116732Y-91091970D01*
X96234764Y-91423158D01*
X96377298Y-91731190D01*
X96500314Y-91930929D01*
X96636614Y-92055564D01*
X96779517Y-92108601D01*
X96781944Y-92108624D01*
X96906143Y-92061980D01*
X97076340Y-91943130D01*
X97258420Y-91783694D01*
X97418270Y-91615295D01*
X97521776Y-91469554D01*
X97542699Y-91403453D01*
X97578862Y-91313785D01*
X97609894Y-91302275D01*
X97673975Y-91250228D01*
X97677090Y-91227887D01*
X97703728Y-91133797D01*
X97773901Y-90955434D01*
X97872996Y-90729686D01*
X97883381Y-90707120D01*
X97994475Y-90466652D01*
X98090136Y-90259447D01*
X98150248Y-90129078D01*
X98151503Y-90126349D01*
X98218830Y-89962229D01*
X98317928Y-89697866D01*
X98439119Y-89360858D01*
X98572726Y-88978804D01*
X98709073Y-88579301D01*
X98838480Y-88189947D01*
X98929061Y-87908889D01*
X99028007Y-87603377D01*
X99118242Y-87337385D01*
X99189010Y-87141863D01*
X99226436Y-87053054D01*
X99281700Y-86883950D01*
X99289789Y-86805036D01*
X99314964Y-86679771D01*
X99345501Y-86639266D01*
X99389406Y-86559885D01*
X99446101Y-86389447D01*
X99491170Y-86215327D01*
X99547121Y-85994508D01*
X99598985Y-85825428D01*
X99627780Y-85758624D01*
X99676002Y-85648643D01*
X99722477Y-85489841D01*
X99792213Y-85259418D01*
X99876988Y-85064757D01*
X99963152Y-84924890D01*
X100037056Y-84858853D01*
X100085051Y-84885679D01*
X100095924Y-84969074D01*
X100078578Y-85099079D01*
X100029339Y-85342938D01*
X99952039Y-85684950D01*
X99850509Y-86109412D01*
X99728580Y-86600621D01*
X99590085Y-87142877D01*
X99438853Y-87720476D01*
X99280250Y-88312063D01*
X99204274Y-88593069D01*
X99131489Y-88863860D01*
X99081528Y-89051217D01*
X98940015Y-89563629D01*
X98790279Y-90066361D01*
X98641268Y-90531875D01*
X98501931Y-90932634D01*
X98381215Y-91241099D01*
X98340517Y-91331695D01*
X98262971Y-91508678D01*
X98218660Y-91636840D01*
X98214656Y-91661568D01*
X98176751Y-91745229D01*
X98077696Y-91899968D01*
X97948342Y-92079566D01*
X97662116Y-92394970D01*
X97371563Y-92579954D01*
X97063975Y-92638229D01*
X96726642Y-92573505D01*
X96534762Y-92492230D01*
X96338997Y-92368711D01*
X96172555Y-92196894D01*
X96029236Y-91961986D01*
X95902836Y-91649196D01*
X95787155Y-91243730D01*
X95675990Y-90730798D01*
X95585128Y-90227143D01*
X95542605Y-89962373D01*
X95510071Y-89734236D01*
X95493962Y-89588214D01*
X95493490Y-89579599D01*
X95448686Y-89441843D01*
X95343197Y-89263256D01*
X95288625Y-89190611D01*
X95121976Y-88983061D01*
X94935468Y-88748553D01*
X94867313Y-88662229D01*
X94720738Y-88476788D01*
X94594775Y-88318726D01*
X94548133Y-88260898D01*
X94470983Y-88139524D01*
X94451693Y-88076110D01*
X94410880Y-88011399D01*
X94398985Y-88009682D01*
X94331726Y-87957798D01*
X94241197Y-87832202D01*
X94236828Y-87824894D01*
X94111538Y-87638155D01*
X93970356Y-87457425D01*
X93802440Y-87217444D01*
X93619520Y-86882332D01*
X93437342Y-86487786D01*
X93271657Y-86069501D01*
X93138211Y-85663173D01*
X93080051Y-85439444D01*
X93032628Y-85298028D01*
X92969226Y-85271079D01*
X92873104Y-85360802D01*
X92788460Y-85477861D01*
X92631346Y-85681133D01*
X92452583Y-85876763D01*
X92438112Y-85890820D01*
X92302027Y-86007758D01*
X92212285Y-86036051D01*
X92129987Y-85990944D01*
X92089777Y-85941611D01*
X92061516Y-85857908D01*
X92043760Y-85720091D01*
X92035066Y-85508418D01*
X92033991Y-85203144D01*
X92039091Y-84784528D01*
X92039578Y-84754377D01*
X92042896Y-84365079D01*
X92041339Y-84160390D01*
X93247514Y-84160390D01*
X93261470Y-84241148D01*
X93300983Y-84398894D01*
X93340800Y-84551635D01*
X93414348Y-84787067D01*
X93513428Y-85043416D01*
X93623353Y-85289446D01*
X93729433Y-85493923D01*
X93816981Y-85625609D01*
X93860969Y-85657831D01*
X93912279Y-85709733D01*
X93914127Y-85728061D01*
X93949639Y-85812018D01*
X94044582Y-85976847D01*
X94181571Y-86193148D01*
X94250106Y-86296190D01*
X94399188Y-86520433D01*
X94514323Y-86699919D01*
X94578432Y-86807726D01*
X94586085Y-86825789D01*
X94621586Y-86901532D01*
X94714185Y-87052304D01*
X94843022Y-87247846D01*
X94987239Y-87457899D01*
X95125977Y-87652206D01*
X95238377Y-87800507D01*
X95303580Y-87872544D01*
X95309469Y-87875153D01*
X95318320Y-87809818D01*
X95327134Y-87621401D01*
X95335737Y-87321211D01*
X95343960Y-86920558D01*
X95351629Y-86430752D01*
X95358574Y-85863103D01*
X95364622Y-85228919D01*
X95369601Y-84539510D01*
X95373341Y-83806186D01*
X95374042Y-83622844D01*
X95377836Y-82839415D01*
X95383462Y-82065151D01*
X95390688Y-81315777D01*
X95399280Y-80607020D01*
X95409005Y-79954605D01*
X95419628Y-79374257D01*
X95430917Y-78881703D01*
X95442638Y-78492669D01*
X95454117Y-78230521D01*
X95472462Y-77851460D01*
X95482441Y-77519186D01*
X95483849Y-77256876D01*
X95476478Y-77087713D01*
X95464767Y-77035591D01*
X95377600Y-77012572D01*
X95190467Y-76995732D01*
X94937661Y-76985341D01*
X94653478Y-76981672D01*
X94372212Y-76984995D01*
X94128159Y-76995581D01*
X93955612Y-77013703D01*
X93913668Y-77023320D01*
X93859119Y-77049564D01*
X93821670Y-77102430D01*
X93798048Y-77204236D01*
X93784984Y-77377301D01*
X93779204Y-77643944D01*
X93777599Y-77951644D01*
X93774925Y-78310913D01*
X93767649Y-78552353D01*
X93753822Y-78692501D01*
X93731496Y-78747893D01*
X93698723Y-78735066D01*
X93686960Y-78720912D01*
X93600589Y-78646076D01*
X93554705Y-78648117D01*
X93522255Y-78745442D01*
X93511788Y-78910595D01*
X93521835Y-79085132D01*
X93550927Y-79210608D01*
X93569463Y-79235267D01*
X93631049Y-79201169D01*
X93736666Y-79077109D01*
X93863635Y-78889791D01*
X93865698Y-78886455D01*
X94089703Y-78571138D01*
X94350918Y-78278367D01*
X94625430Y-78028750D01*
X94889327Y-77842897D01*
X95118694Y-77741419D01*
X95208984Y-77728730D01*
X95215361Y-77767639D01*
X95137964Y-77865481D01*
X95088229Y-77914262D01*
X94844313Y-78168232D01*
X94603335Y-78464528D01*
X94410961Y-78746035D01*
X94379388Y-78800869D01*
X94267174Y-78994893D01*
X94169072Y-79152712D01*
X94075425Y-79337527D01*
X93962911Y-79623761D01*
X93840289Y-79981314D01*
X93716316Y-80380082D01*
X93599751Y-80789964D01*
X93499353Y-81180859D01*
X93423880Y-81522665D01*
X93382089Y-81785279D01*
X93376561Y-81876536D01*
X93399672Y-82041902D01*
X93447500Y-82140515D01*
X93473716Y-82225950D01*
X93477437Y-82414116D01*
X93458355Y-82714889D01*
X93416272Y-83137122D01*
X93376754Y-83475322D01*
X93338940Y-83763484D01*
X93306464Y-83976297D01*
X93282964Y-84088453D01*
X93278137Y-84098758D01*
X93254582Y-84123849D01*
X93247514Y-84160390D01*
X92041339Y-84160390D01*
X92040226Y-84014116D01*
X92032204Y-83727237D01*
X92019466Y-83530190D01*
X92007576Y-83457933D01*
X91999400Y-83318282D01*
X92093204Y-83182053D01*
X92120804Y-83155552D01*
X92240046Y-83000520D01*
X92354657Y-82781536D01*
X92397132Y-82672469D01*
X92591109Y-82204249D01*
X92814647Y-81849204D01*
X92858394Y-81797423D01*
X92924972Y-81713560D01*
X92972482Y-81619607D01*
X93005545Y-81490231D01*
X93028783Y-81300098D01*
X93046818Y-81023878D01*
X93062510Y-80678612D01*
X93081800Y-80368633D01*
X93110227Y-80097598D01*
X93143449Y-79900854D01*
X93167221Y-79826284D01*
X93198419Y-79699945D01*
X93222764Y-79465043D01*
X93238307Y-79147317D01*
X93243147Y-78825079D01*
X93253933Y-78323470D01*
X93285346Y-77948832D01*
X93337899Y-77695256D01*
X93342726Y-77680901D01*
X93409533Y-77411270D01*
X93382497Y-77230832D01*
X93253760Y-77125497D01*
X93015466Y-77081174D01*
X93008070Y-77080728D01*
X92720863Y-77022022D01*
X92505177Y-76894346D01*
X92385186Y-76715473D01*
X92368625Y-76610566D01*
X92425660Y-76347178D01*
X92577054Y-76082086D01*
X92793243Y-75865581D01*
X92816163Y-75849308D01*
X92945295Y-75771525D01*
X93079804Y-75723852D01*
X93256809Y-75699449D01*
X93513426Y-75691476D01*
X93672739Y-75691462D01*
X94049246Y-75713224D01*
X94437211Y-75769611D01*
X94653478Y-75818888D01*
X94800183Y-75852315D01*
X95101711Y-75953028D01*
X95305344Y-76063445D01*
X95305496Y-76063565D01*
X95417796Y-76099590D01*
X95494815Y-76015628D01*
X95526531Y-75823687D01*
X95526826Y-75798390D01*
X95538749Y-75597294D01*
X95569514Y-75332538D01*
X95599571Y-75138140D01*
X95644152Y-74910642D01*
X95686704Y-74789708D01*
X95741798Y-74748541D01*
X95807473Y-74755749D01*
X95866057Y-74779591D01*
X95903548Y-74830515D01*
X95923405Y-74932756D01*
X95929082Y-75110547D01*
X95924036Y-75388123D01*
X95919516Y-75541388D01*
X95910819Y-75869624D01*
X95912056Y-76093697D01*
X95928140Y-76243746D01*
X95963987Y-76349906D01*
X96024510Y-76442313D01*
X96076853Y-76506238D01*
X96205445Y-76640349D01*
X96307867Y-76715176D01*
X96328837Y-76720793D01*
X96368751Y-76657433D01*
X96394023Y-76481757D01*
X96401400Y-76267222D01*
X96410069Y-76022584D01*
X96431734Y-75825494D01*
X96460030Y-75722750D01*
X96502673Y-75688273D01*
X96590544Y-75669066D01*
X96743689Y-75665013D01*
X96982152Y-75675998D01*
X97325979Y-75701904D01*
X97500969Y-75716717D01*
X97850885Y-75743807D01*
X98152085Y-75761243D01*
X98379797Y-75768047D01*
X98509246Y-75763241D01*
X98528577Y-75757314D01*
X98552511Y-75673875D01*
X98577261Y-75490846D01*
X98598476Y-75242926D01*
X98603640Y-75158584D01*
X98627696Y-74821515D01*
X98663964Y-74596502D01*
X98725324Y-74461213D01*
X98824657Y-74393314D01*
X98974845Y-74370472D01*
X99059076Y-74368942D01*
X99284219Y-74390633D01*
X99392908Y-74453620D01*
X99397102Y-74462495D01*
X99401502Y-74554436D01*
X99393707Y-74759332D01*
X99375085Y-75056432D01*
X99347003Y-75424987D01*
X99310830Y-75844244D01*
X99294090Y-76024797D01*
X99250434Y-76487657D01*
X99208445Y-76935165D01*
X99170720Y-77339480D01*
X99139853Y-77672760D01*
X99118441Y-77907163D01*
X99114819Y-77947622D01*
X99079840Y-78225251D01*
X99020615Y-78392111D01*
X98914821Y-78471815D01*
X98740134Y-78487972D01*
X98612501Y-78478892D01*
X98335653Y-78452490D01*
X98382979Y-77791274D01*
X98404060Y-77528819D01*
X98411917Y-77339557D01*
X98388602Y-77210665D01*
X98316166Y-77129316D01*
X98176660Y-77082687D01*
X97952137Y-77057951D01*
X97624648Y-77042284D01*
X97316888Y-77029504D01*
X96985760Y-77008624D01*
X96707363Y-76979657D01*
X96510118Y-76946218D01*
X96426544Y-76916219D01*
X96351512Y-76877511D01*
X96333175Y-76947751D01*
X96291008Y-77026605D01*
X96148555Y-77055872D01*
X96101034Y-77056772D01*
X95941330Y-77070634D01*
X95867793Y-77138315D01*
X95836448Y-77275159D01*
X95813284Y-77496838D01*
X95791213Y-77834261D01*
X95770373Y-78273863D01*
X95750902Y-78802079D01*
X95732938Y-79405346D01*
X95716618Y-80070099D01*
X95702081Y-80782773D01*
X95689463Y-81529805D01*
X95678903Y-82297631D01*
X95670538Y-83072685D01*
X95664507Y-83841405D01*
X95660946Y-84590225D01*
X95659993Y-85305582D01*
X95661786Y-85973911D01*
X95666464Y-86581647D01*
X95674163Y-87115228D01*
X95685021Y-87561088D01*
X95699176Y-87905663D01*
X95716766Y-88135390D01*
X95725569Y-88196273D01*
X95797857Y-88470096D01*
X95895036Y-88695544D01*
X96001405Y-88842471D01*
X96083319Y-88883227D01*
X96121451Y-88911604D01*
X96111174Y-88926039D01*
X96114150Y-89003738D01*
X96181116Y-89125155D01*
X96277502Y-89244393D01*
X96368740Y-89315557D01*
X96405509Y-89316824D01*
X96438998Y-89264003D01*
X96870741Y-89264003D01*
X96909927Y-89392731D01*
X96992289Y-89420793D01*
X97144437Y-89382189D01*
X97237863Y-89330104D01*
X97310874Y-89264440D01*
X97291172Y-89212548D01*
X97164257Y-89140832D01*
X97153948Y-89135680D01*
X96985070Y-89068589D01*
X96899191Y-89092969D01*
X96871492Y-89220066D01*
X96870741Y-89264003D01*
X96438998Y-89264003D01*
X96471793Y-89212278D01*
X96437178Y-89071742D01*
X96314823Y-88930307D01*
X96241613Y-88879771D01*
X96079306Y-88752841D01*
X96030095Y-88620374D01*
X96031450Y-88596455D01*
X96048494Y-88418263D01*
X96055816Y-88328862D01*
X96106511Y-88234428D01*
X96243551Y-88223204D01*
X96474092Y-88295690D01*
X96639779Y-88369719D01*
X96891325Y-88488645D01*
X96985070Y-88532283D01*
X97145296Y-88606868D01*
X97240318Y-88650435D01*
G37*
%TD*%
M02*
