%TF.GenerationSoftware,KiCad,Pcbnew,(6.0.7)*%
%TF.CreationDate,2023-03-01T00:46:33+09:00*%
%TF.ProjectId,Underside,556e6465-7273-4696-9465-2e6b69636164,rev?*%
%TF.SameCoordinates,Original*%
%TF.FileFunction,Copper,L2,Bot*%
%TF.FilePolarity,Positive*%
%FSLAX46Y46*%
G04 Gerber Fmt 4.6, Leading zero omitted, Abs format (unit mm)*
G04 Created by KiCad (PCBNEW (6.0.7)) date 2023-03-01 00:46:33*
%MOMM*%
%LPD*%
G01*
G04 APERTURE LIST*
G04 Aperture macros list*
%AMRoundRect*
0 Rectangle with rounded corners*
0 $1 Rounding radius*
0 $2 $3 $4 $5 $6 $7 $8 $9 X,Y pos of 4 corners*
0 Add a 4 corners polygon primitive as box body*
4,1,4,$2,$3,$4,$5,$6,$7,$8,$9,$2,$3,0*
0 Add four circle primitives for the rounded corners*
1,1,$1+$1,$2,$3*
1,1,$1+$1,$4,$5*
1,1,$1+$1,$6,$7*
1,1,$1+$1,$8,$9*
0 Add four rect primitives between the rounded corners*
20,1,$1+$1,$2,$3,$4,$5,0*
20,1,$1+$1,$4,$5,$6,$7,0*
20,1,$1+$1,$6,$7,$8,$9,0*
20,1,$1+$1,$8,$9,$2,$3,0*%
G04 Aperture macros list end*
%TA.AperFunction,ComponentPad*%
%ADD10RoundRect,0.250000X0.600000X0.725000X-0.600000X0.725000X-0.600000X-0.725000X0.600000X-0.725000X0*%
%TD*%
%TA.AperFunction,ComponentPad*%
%ADD11O,1.700000X1.950000*%
%TD*%
%TA.AperFunction,ComponentPad*%
%ADD12C,1.400000*%
%TD*%
%TA.AperFunction,ComponentPad*%
%ADD13C,1.600000*%
%TD*%
%TA.AperFunction,ComponentPad*%
%ADD14R,2.000000X2.000000*%
%TD*%
%TA.AperFunction,ComponentPad*%
%ADD15C,2.000000*%
%TD*%
%TA.AperFunction,ViaPad*%
%ADD16C,0.800000*%
%TD*%
%TA.AperFunction,Conductor*%
%ADD17C,0.250000*%
%TD*%
G04 APERTURE END LIST*
D10*
%TO.P,TORICA-UART1,1,Pin_1*%
%TO.N,GND*%
X111270000Y-54670000D03*
D11*
%TO.P,TORICA-UART1,2,Pin_2*%
%TO.N,+5V*%
X108770000Y-54670000D03*
%TO.P,TORICA-UART1,3,Pin_3*%
%TO.N,/DTXR*%
X106270000Y-54670000D03*
%TO.P,TORICA-UART1,4,Pin_4*%
%TO.N,/DRXT*%
X103770000Y-54670000D03*
%TD*%
D12*
%TO.P,J1,1,DAT2*%
%TO.N,unconnected-(J1-Pad1)*%
X112440000Y-86360000D03*
%TO.P,J1,2,DAT3/CD*%
%TO.N,/CS*%
X112440000Y-88900000D03*
%TO.P,J1,3,CMD*%
%TO.N,Net-(J1-Pad3)*%
X112440000Y-91440000D03*
%TO.P,J1,4,VDD*%
%TO.N,+3.3V*%
X112440000Y-93980000D03*
%TO.P,J1,5,CLK*%
%TO.N,Net-(J1-Pad5)*%
X112440000Y-96520000D03*
%TO.P,J1,6,VSS*%
%TO.N,GND*%
X112440000Y-99060000D03*
%TO.P,J1,7,DAT0*%
%TO.N,Net-(J1-Pad7)*%
X112440000Y-101600000D03*
%TO.P,J1,8,DAT1*%
%TO.N,unconnected-(J1-Pad8)*%
X112440000Y-104140000D03*
%TO.P,J1,9,DET_B*%
%TO.N,unconnected-(J1-Pad9)*%
X112440000Y-106680000D03*
%TO.P,J1,10,DET_A*%
%TO.N,unconnected-(J1-Pad10)*%
X112440000Y-109220000D03*
%TO.P,J1,11,SHIELD*%
%TO.N,unconnected-(J1-Pad11)*%
X125140000Y-106680000D03*
%TO.P,J1,13*%
%TO.N,N/C*%
X125140000Y-88900000D03*
%TD*%
D13*
%TO.P,U1,1,VCC*%
%TO.N,+3.3V*%
X103550000Y-103290000D03*
%TO.P,U1,2,SDI*%
%TO.N,Net-(U1-Pad2)*%
X101010000Y-103290000D03*
%TO.P,U1,3,GND*%
%TO.N,GND*%
X98470000Y-103290000D03*
%TO.P,U1,4,SDO*%
%TO.N,unconnected-(U1-Pad4)*%
X95930000Y-103290000D03*
%TO.P,U1,5,CSK*%
%TO.N,Net-(U1-Pad5)*%
X93390000Y-103290000D03*
%TO.P,U1,6,CS*%
%TO.N,unconnected-(U1-Pad6)*%
X90850000Y-103290000D03*
%TD*%
D14*
%TO.P,U2,1,VCC*%
%TO.N,+3.3V*%
X98470000Y-115570000D03*
D15*
%TO.P,U2,2,GND*%
%TO.N,GND*%
X101010000Y-115570000D03*
%TO.P,U2,3,NRST*%
%TO.N,unconnected-(U2-Pad3)*%
X103550000Y-115570000D03*
%TO.P,U2,4,ECHO*%
%TO.N,Net-(U2-Pad4)*%
X106090000Y-115570000D03*
%TO.P,U2,5,SERVO*%
%TO.N,unconnected-(U2-Pad5)*%
X108630000Y-115570000D03*
%TO.P,U2,6,COMP/TRIG*%
%TO.N,Net-(U2-Pad6)*%
X111170000Y-115570000D03*
%TO.P,U2,7,DAC_OUT*%
%TO.N,unconnected-(U2-Pad7)*%
X113710000Y-115570000D03*
%TO.P,U2,8,RXD*%
%TO.N,unconnected-(U2-Pad8)*%
X116250000Y-115570000D03*
%TO.P,U2,9,TXD*%
%TO.N,unconnected-(U2-Pad9)*%
X118790000Y-115570000D03*
%TD*%
D16*
%TO.N,+5V*%
X122376500Y-66894598D03*
%TO.N,/DTXR*%
X111760000Y-76668800D03*
%TD*%
D17*
%TO.N,+5V*%
X121276098Y-66894598D02*
X109051500Y-54670000D01*
X122376500Y-66894598D02*
X121276098Y-66894598D01*
X109051500Y-54670000D02*
X108770000Y-54670000D01*
%TO.N,/DTXR*%
X107445100Y-72353900D02*
X111760000Y-76668800D01*
X107445100Y-56010100D02*
X107445100Y-72353900D01*
X106270000Y-54835000D02*
X107445100Y-56010100D01*
X106270000Y-54670000D02*
X106270000Y-54835000D01*
%TO.N,+3.3V*%
X103550000Y-109164900D02*
X103550000Y-103290000D01*
X98470000Y-114244900D02*
X103550000Y-109164900D01*
X103550000Y-103290000D02*
X103550000Y-102870000D01*
X103550000Y-102870000D02*
X112440000Y-93980000D01*
X98470000Y-115570000D02*
X98470000Y-114244900D01*
%TO.N,GND*%
X123137400Y-88362600D02*
X123137400Y-66537400D01*
X112440000Y-99060000D02*
X123137400Y-88362600D01*
X123137400Y-66537400D02*
X111270000Y-54670000D01*
%TD*%
%TA.AperFunction,Conductor*%
%TO.N,GND*%
G36*
X131513621Y-50888502D02*
G01*
X131560114Y-50942158D01*
X131571500Y-50994500D01*
X131571500Y-121725500D01*
X131551498Y-121793621D01*
X131497842Y-121840114D01*
X131445500Y-121851500D01*
X85214500Y-121851500D01*
X85146379Y-121831498D01*
X85099886Y-121777842D01*
X85088500Y-121725500D01*
X85088500Y-119492703D01*
X85470743Y-119492703D01*
X85508268Y-119777734D01*
X85584129Y-120055036D01*
X85696923Y-120319476D01*
X85844561Y-120566161D01*
X86024313Y-120790528D01*
X86232851Y-120988423D01*
X86466317Y-121156186D01*
X86470112Y-121158195D01*
X86470113Y-121158196D01*
X86491869Y-121169715D01*
X86720392Y-121290712D01*
X86990373Y-121389511D01*
X87271264Y-121450755D01*
X87299841Y-121453004D01*
X87494282Y-121468307D01*
X87494291Y-121468307D01*
X87496739Y-121468500D01*
X87652271Y-121468500D01*
X87654407Y-121468354D01*
X87654418Y-121468354D01*
X87862548Y-121454165D01*
X87862554Y-121454164D01*
X87866825Y-121453873D01*
X87871020Y-121453004D01*
X87871022Y-121453004D01*
X88007584Y-121424723D01*
X88148342Y-121395574D01*
X88419343Y-121299607D01*
X88674812Y-121167750D01*
X88678313Y-121165289D01*
X88678317Y-121165287D01*
X88792417Y-121085096D01*
X88910023Y-121002441D01*
X89120622Y-120806740D01*
X89302713Y-120584268D01*
X89452927Y-120339142D01*
X89568483Y-120075898D01*
X89647244Y-119799406D01*
X89687751Y-119514784D01*
X89687845Y-119496951D01*
X89687867Y-119492703D01*
X126970743Y-119492703D01*
X127008268Y-119777734D01*
X127084129Y-120055036D01*
X127196923Y-120319476D01*
X127344561Y-120566161D01*
X127524313Y-120790528D01*
X127732851Y-120988423D01*
X127966317Y-121156186D01*
X127970112Y-121158195D01*
X127970113Y-121158196D01*
X127991869Y-121169715D01*
X128220392Y-121290712D01*
X128490373Y-121389511D01*
X128771264Y-121450755D01*
X128799841Y-121453004D01*
X128994282Y-121468307D01*
X128994291Y-121468307D01*
X128996739Y-121468500D01*
X129152271Y-121468500D01*
X129154407Y-121468354D01*
X129154418Y-121468354D01*
X129362548Y-121454165D01*
X129362554Y-121454164D01*
X129366825Y-121453873D01*
X129371020Y-121453004D01*
X129371022Y-121453004D01*
X129507584Y-121424723D01*
X129648342Y-121395574D01*
X129919343Y-121299607D01*
X130174812Y-121167750D01*
X130178313Y-121165289D01*
X130178317Y-121165287D01*
X130292417Y-121085096D01*
X130410023Y-121002441D01*
X130620622Y-120806740D01*
X130802713Y-120584268D01*
X130952927Y-120339142D01*
X131068483Y-120075898D01*
X131147244Y-119799406D01*
X131187751Y-119514784D01*
X131187845Y-119496951D01*
X131189235Y-119231583D01*
X131189235Y-119231576D01*
X131189257Y-119227297D01*
X131151732Y-118942266D01*
X131075871Y-118664964D01*
X130963077Y-118400524D01*
X130815439Y-118153839D01*
X130635687Y-117929472D01*
X130427149Y-117731577D01*
X130193683Y-117563814D01*
X130171843Y-117552250D01*
X130148654Y-117539972D01*
X129939608Y-117429288D01*
X129669627Y-117330489D01*
X129388736Y-117269245D01*
X129357685Y-117266801D01*
X129165718Y-117251693D01*
X129165709Y-117251693D01*
X129163261Y-117251500D01*
X129007729Y-117251500D01*
X129005593Y-117251646D01*
X129005582Y-117251646D01*
X128797452Y-117265835D01*
X128797446Y-117265836D01*
X128793175Y-117266127D01*
X128788980Y-117266996D01*
X128788978Y-117266996D01*
X128652417Y-117295276D01*
X128511658Y-117324426D01*
X128240657Y-117420393D01*
X127985188Y-117552250D01*
X127981687Y-117554711D01*
X127981683Y-117554713D01*
X127971594Y-117561804D01*
X127749977Y-117717559D01*
X127539378Y-117913260D01*
X127357287Y-118135732D01*
X127207073Y-118380858D01*
X127091517Y-118644102D01*
X127012756Y-118920594D01*
X126972249Y-119205216D01*
X126972227Y-119209505D01*
X126972226Y-119209512D01*
X126970765Y-119488417D01*
X126970743Y-119492703D01*
X89687867Y-119492703D01*
X89689235Y-119231583D01*
X89689235Y-119231576D01*
X89689257Y-119227297D01*
X89651732Y-118942266D01*
X89575871Y-118664964D01*
X89463077Y-118400524D01*
X89315439Y-118153839D01*
X89135687Y-117929472D01*
X88927149Y-117731577D01*
X88693683Y-117563814D01*
X88671843Y-117552250D01*
X88648654Y-117539972D01*
X88439608Y-117429288D01*
X88169627Y-117330489D01*
X87888736Y-117269245D01*
X87857685Y-117266801D01*
X87665718Y-117251693D01*
X87665709Y-117251693D01*
X87663261Y-117251500D01*
X87507729Y-117251500D01*
X87505593Y-117251646D01*
X87505582Y-117251646D01*
X87297452Y-117265835D01*
X87297446Y-117265836D01*
X87293175Y-117266127D01*
X87288980Y-117266996D01*
X87288978Y-117266996D01*
X87152417Y-117295276D01*
X87011658Y-117324426D01*
X86740657Y-117420393D01*
X86485188Y-117552250D01*
X86481687Y-117554711D01*
X86481683Y-117554713D01*
X86471594Y-117561804D01*
X86249977Y-117717559D01*
X86039378Y-117913260D01*
X85857287Y-118135732D01*
X85707073Y-118380858D01*
X85591517Y-118644102D01*
X85512756Y-118920594D01*
X85472249Y-119205216D01*
X85472227Y-119209505D01*
X85472226Y-119209512D01*
X85470765Y-119488417D01*
X85470743Y-119492703D01*
X85088500Y-119492703D01*
X85088500Y-116618134D01*
X96961500Y-116618134D01*
X96968255Y-116680316D01*
X97019385Y-116816705D01*
X97106739Y-116933261D01*
X97223295Y-117020615D01*
X97359684Y-117071745D01*
X97421866Y-117078500D01*
X99518134Y-117078500D01*
X99580316Y-117071745D01*
X99716705Y-117020615D01*
X99833261Y-116933261D01*
X99915230Y-116823891D01*
X99915230Y-116823890D01*
X99920615Y-116816705D01*
X99920673Y-116816550D01*
X99967791Y-116769537D01*
X100037182Y-116754522D01*
X100103675Y-116779406D01*
X100109886Y-116784381D01*
X100117117Y-116790557D01*
X100125101Y-116796357D01*
X100319042Y-116915205D01*
X100327837Y-116919687D01*
X100537988Y-117006734D01*
X100547373Y-117009783D01*
X100768554Y-117062885D01*
X100778301Y-117064428D01*
X101005070Y-117082275D01*
X101014930Y-117082275D01*
X101241699Y-117064428D01*
X101251446Y-117062885D01*
X101472627Y-117009783D01*
X101482012Y-117006734D01*
X101692163Y-116919687D01*
X101700958Y-116915205D01*
X101868445Y-116812568D01*
X101877907Y-116802110D01*
X101874124Y-116793334D01*
X100739885Y-115659095D01*
X100705859Y-115596783D01*
X100707694Y-115571132D01*
X101374408Y-115571132D01*
X101374539Y-115572965D01*
X101378790Y-115579580D01*
X102230290Y-116431080D01*
X102247102Y-116440260D01*
X102310350Y-116454020D01*
X102345775Y-116482776D01*
X102458464Y-116614717D01*
X102480031Y-116639969D01*
X102660584Y-116794176D01*
X102664792Y-116796755D01*
X102664798Y-116796759D01*
X102858084Y-116915205D01*
X102863037Y-116918240D01*
X102867607Y-116920133D01*
X102867611Y-116920135D01*
X103077833Y-117007211D01*
X103082406Y-117009105D01*
X103130349Y-117020615D01*
X103308476Y-117063380D01*
X103308482Y-117063381D01*
X103313289Y-117064535D01*
X103550000Y-117083165D01*
X103786711Y-117064535D01*
X103791518Y-117063381D01*
X103791524Y-117063380D01*
X103969651Y-117020615D01*
X104017594Y-117009105D01*
X104022167Y-117007211D01*
X104232389Y-116920135D01*
X104232393Y-116920133D01*
X104236963Y-116918240D01*
X104241916Y-116915205D01*
X104435202Y-116796759D01*
X104435208Y-116796755D01*
X104439416Y-116794176D01*
X104619969Y-116639969D01*
X104623177Y-116636213D01*
X104623182Y-116636208D01*
X104724189Y-116517944D01*
X104783639Y-116479134D01*
X104854634Y-116478628D01*
X104915811Y-116517944D01*
X105016818Y-116636208D01*
X105016823Y-116636213D01*
X105020031Y-116639969D01*
X105200584Y-116794176D01*
X105204792Y-116796755D01*
X105204798Y-116796759D01*
X105398084Y-116915205D01*
X105403037Y-116918240D01*
X105407607Y-116920133D01*
X105407611Y-116920135D01*
X105617833Y-117007211D01*
X105622406Y-117009105D01*
X105670349Y-117020615D01*
X105848476Y-117063380D01*
X105848482Y-117063381D01*
X105853289Y-117064535D01*
X106090000Y-117083165D01*
X106326711Y-117064535D01*
X106331518Y-117063381D01*
X106331524Y-117063380D01*
X106509651Y-117020615D01*
X106557594Y-117009105D01*
X106562167Y-117007211D01*
X106772389Y-116920135D01*
X106772393Y-116920133D01*
X106776963Y-116918240D01*
X106781916Y-116915205D01*
X106975202Y-116796759D01*
X106975208Y-116796755D01*
X106979416Y-116794176D01*
X107159969Y-116639969D01*
X107163177Y-116636213D01*
X107163182Y-116636208D01*
X107264189Y-116517944D01*
X107323639Y-116479134D01*
X107394634Y-116478628D01*
X107455811Y-116517944D01*
X107556818Y-116636208D01*
X107556823Y-116636213D01*
X107560031Y-116639969D01*
X107740584Y-116794176D01*
X107744792Y-116796755D01*
X107744798Y-116796759D01*
X107938084Y-116915205D01*
X107943037Y-116918240D01*
X107947607Y-116920133D01*
X107947611Y-116920135D01*
X108157833Y-117007211D01*
X108162406Y-117009105D01*
X108210349Y-117020615D01*
X108388476Y-117063380D01*
X108388482Y-117063381D01*
X108393289Y-117064535D01*
X108630000Y-117083165D01*
X108866711Y-117064535D01*
X108871518Y-117063381D01*
X108871524Y-117063380D01*
X109049651Y-117020615D01*
X109097594Y-117009105D01*
X109102167Y-117007211D01*
X109312389Y-116920135D01*
X109312393Y-116920133D01*
X109316963Y-116918240D01*
X109321916Y-116915205D01*
X109515202Y-116796759D01*
X109515208Y-116796755D01*
X109519416Y-116794176D01*
X109699969Y-116639969D01*
X109703177Y-116636213D01*
X109703182Y-116636208D01*
X109804189Y-116517944D01*
X109863639Y-116479134D01*
X109934634Y-116478628D01*
X109995811Y-116517944D01*
X110096818Y-116636208D01*
X110096823Y-116636213D01*
X110100031Y-116639969D01*
X110280584Y-116794176D01*
X110284792Y-116796755D01*
X110284798Y-116796759D01*
X110478084Y-116915205D01*
X110483037Y-116918240D01*
X110487607Y-116920133D01*
X110487611Y-116920135D01*
X110697833Y-117007211D01*
X110702406Y-117009105D01*
X110750349Y-117020615D01*
X110928476Y-117063380D01*
X110928482Y-117063381D01*
X110933289Y-117064535D01*
X111170000Y-117083165D01*
X111406711Y-117064535D01*
X111411518Y-117063381D01*
X111411524Y-117063380D01*
X111589651Y-117020615D01*
X111637594Y-117009105D01*
X111642167Y-117007211D01*
X111852389Y-116920135D01*
X111852393Y-116920133D01*
X111856963Y-116918240D01*
X111861916Y-116915205D01*
X112055202Y-116796759D01*
X112055208Y-116796755D01*
X112059416Y-116794176D01*
X112239969Y-116639969D01*
X112243177Y-116636213D01*
X112243182Y-116636208D01*
X112344189Y-116517944D01*
X112403639Y-116479134D01*
X112474634Y-116478628D01*
X112535811Y-116517944D01*
X112636818Y-116636208D01*
X112636823Y-116636213D01*
X112640031Y-116639969D01*
X112820584Y-116794176D01*
X112824792Y-116796755D01*
X112824798Y-116796759D01*
X113018084Y-116915205D01*
X113023037Y-116918240D01*
X113027607Y-116920133D01*
X113027611Y-116920135D01*
X113237833Y-117007211D01*
X113242406Y-117009105D01*
X113290349Y-117020615D01*
X113468476Y-117063380D01*
X113468482Y-117063381D01*
X113473289Y-117064535D01*
X113710000Y-117083165D01*
X113946711Y-117064535D01*
X113951518Y-117063381D01*
X113951524Y-117063380D01*
X114129651Y-117020615D01*
X114177594Y-117009105D01*
X114182167Y-117007211D01*
X114392389Y-116920135D01*
X114392393Y-116920133D01*
X114396963Y-116918240D01*
X114401916Y-116915205D01*
X114595202Y-116796759D01*
X114595208Y-116796755D01*
X114599416Y-116794176D01*
X114779969Y-116639969D01*
X114783177Y-116636213D01*
X114783182Y-116636208D01*
X114884189Y-116517944D01*
X114943639Y-116479134D01*
X115014634Y-116478628D01*
X115075811Y-116517944D01*
X115176818Y-116636208D01*
X115176823Y-116636213D01*
X115180031Y-116639969D01*
X115360584Y-116794176D01*
X115364792Y-116796755D01*
X115364798Y-116796759D01*
X115558084Y-116915205D01*
X115563037Y-116918240D01*
X115567607Y-116920133D01*
X115567611Y-116920135D01*
X115777833Y-117007211D01*
X115782406Y-117009105D01*
X115830349Y-117020615D01*
X116008476Y-117063380D01*
X116008482Y-117063381D01*
X116013289Y-117064535D01*
X116250000Y-117083165D01*
X116486711Y-117064535D01*
X116491518Y-117063381D01*
X116491524Y-117063380D01*
X116669651Y-117020615D01*
X116717594Y-117009105D01*
X116722167Y-117007211D01*
X116932389Y-116920135D01*
X116932393Y-116920133D01*
X116936963Y-116918240D01*
X116941916Y-116915205D01*
X117135202Y-116796759D01*
X117135208Y-116796755D01*
X117139416Y-116794176D01*
X117319969Y-116639969D01*
X117323177Y-116636213D01*
X117323182Y-116636208D01*
X117424189Y-116517944D01*
X117483639Y-116479134D01*
X117554634Y-116478628D01*
X117615811Y-116517944D01*
X117716818Y-116636208D01*
X117716823Y-116636213D01*
X117720031Y-116639969D01*
X117900584Y-116794176D01*
X117904792Y-116796755D01*
X117904798Y-116796759D01*
X118098084Y-116915205D01*
X118103037Y-116918240D01*
X118107607Y-116920133D01*
X118107611Y-116920135D01*
X118317833Y-117007211D01*
X118322406Y-117009105D01*
X118370349Y-117020615D01*
X118548476Y-117063380D01*
X118548482Y-117063381D01*
X118553289Y-117064535D01*
X118790000Y-117083165D01*
X119026711Y-117064535D01*
X119031518Y-117063381D01*
X119031524Y-117063380D01*
X119209651Y-117020615D01*
X119257594Y-117009105D01*
X119262167Y-117007211D01*
X119472389Y-116920135D01*
X119472393Y-116920133D01*
X119476963Y-116918240D01*
X119481916Y-116915205D01*
X119675202Y-116796759D01*
X119675208Y-116796755D01*
X119679416Y-116794176D01*
X119859969Y-116639969D01*
X120014176Y-116459416D01*
X120016755Y-116455208D01*
X120016759Y-116455202D01*
X120135654Y-116261183D01*
X120138240Y-116256963D01*
X120229105Y-116037594D01*
X120284535Y-115806711D01*
X120303165Y-115570000D01*
X120284535Y-115333289D01*
X120229105Y-115102406D01*
X120138240Y-114883037D01*
X120135654Y-114878817D01*
X120016759Y-114684798D01*
X120016755Y-114684792D01*
X120014176Y-114680584D01*
X119859969Y-114500031D01*
X119679416Y-114345824D01*
X119675208Y-114343245D01*
X119675202Y-114343241D01*
X119481183Y-114224346D01*
X119476963Y-114221760D01*
X119472393Y-114219867D01*
X119472389Y-114219865D01*
X119262167Y-114132789D01*
X119262165Y-114132788D01*
X119257594Y-114130895D01*
X119177391Y-114111640D01*
X119031524Y-114076620D01*
X119031518Y-114076619D01*
X119026711Y-114075465D01*
X118790000Y-114056835D01*
X118553289Y-114075465D01*
X118548482Y-114076619D01*
X118548476Y-114076620D01*
X118402609Y-114111640D01*
X118322406Y-114130895D01*
X118317835Y-114132788D01*
X118317833Y-114132789D01*
X118107611Y-114219865D01*
X118107607Y-114219867D01*
X118103037Y-114221760D01*
X118098817Y-114224346D01*
X117904798Y-114343241D01*
X117904792Y-114343245D01*
X117900584Y-114345824D01*
X117720031Y-114500031D01*
X117716823Y-114503787D01*
X117716818Y-114503792D01*
X117615811Y-114622056D01*
X117556361Y-114660866D01*
X117485366Y-114661372D01*
X117424189Y-114622056D01*
X117323182Y-114503792D01*
X117323177Y-114503787D01*
X117319969Y-114500031D01*
X117139416Y-114345824D01*
X117135208Y-114343245D01*
X117135202Y-114343241D01*
X116941183Y-114224346D01*
X116936963Y-114221760D01*
X116932393Y-114219867D01*
X116932389Y-114219865D01*
X116722167Y-114132789D01*
X116722165Y-114132788D01*
X116717594Y-114130895D01*
X116637391Y-114111640D01*
X116491524Y-114076620D01*
X116491518Y-114076619D01*
X116486711Y-114075465D01*
X116250000Y-114056835D01*
X116013289Y-114075465D01*
X116008482Y-114076619D01*
X116008476Y-114076620D01*
X115862609Y-114111640D01*
X115782406Y-114130895D01*
X115777835Y-114132788D01*
X115777833Y-114132789D01*
X115567611Y-114219865D01*
X115567607Y-114219867D01*
X115563037Y-114221760D01*
X115558817Y-114224346D01*
X115364798Y-114343241D01*
X115364792Y-114343245D01*
X115360584Y-114345824D01*
X115180031Y-114500031D01*
X115176823Y-114503787D01*
X115176818Y-114503792D01*
X115075811Y-114622056D01*
X115016361Y-114660866D01*
X114945366Y-114661372D01*
X114884189Y-114622056D01*
X114783182Y-114503792D01*
X114783177Y-114503787D01*
X114779969Y-114500031D01*
X114599416Y-114345824D01*
X114595208Y-114343245D01*
X114595202Y-114343241D01*
X114401183Y-114224346D01*
X114396963Y-114221760D01*
X114392393Y-114219867D01*
X114392389Y-114219865D01*
X114182167Y-114132789D01*
X114182165Y-114132788D01*
X114177594Y-114130895D01*
X114097391Y-114111640D01*
X113951524Y-114076620D01*
X113951518Y-114076619D01*
X113946711Y-114075465D01*
X113710000Y-114056835D01*
X113473289Y-114075465D01*
X113468482Y-114076619D01*
X113468476Y-114076620D01*
X113322609Y-114111640D01*
X113242406Y-114130895D01*
X113237835Y-114132788D01*
X113237833Y-114132789D01*
X113027611Y-114219865D01*
X113027607Y-114219867D01*
X113023037Y-114221760D01*
X113018817Y-114224346D01*
X112824798Y-114343241D01*
X112824792Y-114343245D01*
X112820584Y-114345824D01*
X112640031Y-114500031D01*
X112636823Y-114503787D01*
X112636818Y-114503792D01*
X112535811Y-114622056D01*
X112476361Y-114660866D01*
X112405366Y-114661372D01*
X112344189Y-114622056D01*
X112243182Y-114503792D01*
X112243177Y-114503787D01*
X112239969Y-114500031D01*
X112059416Y-114345824D01*
X112055208Y-114343245D01*
X112055202Y-114343241D01*
X111861183Y-114224346D01*
X111856963Y-114221760D01*
X111852393Y-114219867D01*
X111852389Y-114219865D01*
X111642167Y-114132789D01*
X111642165Y-114132788D01*
X111637594Y-114130895D01*
X111557391Y-114111640D01*
X111411524Y-114076620D01*
X111411518Y-114076619D01*
X111406711Y-114075465D01*
X111170000Y-114056835D01*
X110933289Y-114075465D01*
X110928482Y-114076619D01*
X110928476Y-114076620D01*
X110782609Y-114111640D01*
X110702406Y-114130895D01*
X110697835Y-114132788D01*
X110697833Y-114132789D01*
X110487611Y-114219865D01*
X110487607Y-114219867D01*
X110483037Y-114221760D01*
X110478817Y-114224346D01*
X110284798Y-114343241D01*
X110284792Y-114343245D01*
X110280584Y-114345824D01*
X110100031Y-114500031D01*
X110096823Y-114503787D01*
X110096818Y-114503792D01*
X109995811Y-114622056D01*
X109936361Y-114660866D01*
X109865366Y-114661372D01*
X109804189Y-114622056D01*
X109703182Y-114503792D01*
X109703177Y-114503787D01*
X109699969Y-114500031D01*
X109519416Y-114345824D01*
X109515208Y-114343245D01*
X109515202Y-114343241D01*
X109321183Y-114224346D01*
X109316963Y-114221760D01*
X109312393Y-114219867D01*
X109312389Y-114219865D01*
X109102167Y-114132789D01*
X109102165Y-114132788D01*
X109097594Y-114130895D01*
X109017391Y-114111640D01*
X108871524Y-114076620D01*
X108871518Y-114076619D01*
X108866711Y-114075465D01*
X108630000Y-114056835D01*
X108393289Y-114075465D01*
X108388482Y-114076619D01*
X108388476Y-114076620D01*
X108242609Y-114111640D01*
X108162406Y-114130895D01*
X108157835Y-114132788D01*
X108157833Y-114132789D01*
X107947611Y-114219865D01*
X107947607Y-114219867D01*
X107943037Y-114221760D01*
X107938817Y-114224346D01*
X107744798Y-114343241D01*
X107744792Y-114343245D01*
X107740584Y-114345824D01*
X107560031Y-114500031D01*
X107556823Y-114503787D01*
X107556818Y-114503792D01*
X107455811Y-114622056D01*
X107396361Y-114660866D01*
X107325366Y-114661372D01*
X107264189Y-114622056D01*
X107163182Y-114503792D01*
X107163177Y-114503787D01*
X107159969Y-114500031D01*
X106979416Y-114345824D01*
X106975208Y-114343245D01*
X106975202Y-114343241D01*
X106781183Y-114224346D01*
X106776963Y-114221760D01*
X106772393Y-114219867D01*
X106772389Y-114219865D01*
X106562167Y-114132789D01*
X106562165Y-114132788D01*
X106557594Y-114130895D01*
X106477391Y-114111640D01*
X106331524Y-114076620D01*
X106331518Y-114076619D01*
X106326711Y-114075465D01*
X106090000Y-114056835D01*
X105853289Y-114075465D01*
X105848482Y-114076619D01*
X105848476Y-114076620D01*
X105702609Y-114111640D01*
X105622406Y-114130895D01*
X105617835Y-114132788D01*
X105617833Y-114132789D01*
X105407611Y-114219865D01*
X105407607Y-114219867D01*
X105403037Y-114221760D01*
X105398817Y-114224346D01*
X105204798Y-114343241D01*
X105204792Y-114343245D01*
X105200584Y-114345824D01*
X105020031Y-114500031D01*
X105016823Y-114503787D01*
X105016818Y-114503792D01*
X104915811Y-114622056D01*
X104856361Y-114660866D01*
X104785366Y-114661372D01*
X104724189Y-114622056D01*
X104623182Y-114503792D01*
X104623177Y-114503787D01*
X104619969Y-114500031D01*
X104439416Y-114345824D01*
X104435208Y-114343245D01*
X104435202Y-114343241D01*
X104241183Y-114224346D01*
X104236963Y-114221760D01*
X104232393Y-114219867D01*
X104232389Y-114219865D01*
X104022167Y-114132789D01*
X104022165Y-114132788D01*
X104017594Y-114130895D01*
X103937391Y-114111640D01*
X103791524Y-114076620D01*
X103791518Y-114076619D01*
X103786711Y-114075465D01*
X103550000Y-114056835D01*
X103313289Y-114075465D01*
X103308482Y-114076619D01*
X103308476Y-114076620D01*
X103162609Y-114111640D01*
X103082406Y-114130895D01*
X103077835Y-114132788D01*
X103077833Y-114132789D01*
X102867611Y-114219865D01*
X102867607Y-114219867D01*
X102863037Y-114221760D01*
X102858817Y-114224346D01*
X102664798Y-114343241D01*
X102664792Y-114343245D01*
X102660584Y-114345824D01*
X102480031Y-114500031D01*
X102476823Y-114503787D01*
X102476818Y-114503792D01*
X102346294Y-114656616D01*
X102286844Y-114695426D01*
X102252442Y-114697640D01*
X102233333Y-114705877D01*
X101382022Y-115557188D01*
X101374408Y-115571132D01*
X100707694Y-115571132D01*
X100710924Y-115525968D01*
X100739885Y-115480905D01*
X101871080Y-114349710D01*
X101877840Y-114337330D01*
X101872113Y-114329680D01*
X101700958Y-114224795D01*
X101692163Y-114220313D01*
X101482012Y-114133266D01*
X101472627Y-114130217D01*
X101251446Y-114077115D01*
X101241699Y-114075572D01*
X101014930Y-114057725D01*
X101005070Y-114057725D01*
X100778301Y-114075572D01*
X100768554Y-114077115D01*
X100547373Y-114130217D01*
X100537988Y-114133266D01*
X100327837Y-114220313D01*
X100319042Y-114224795D01*
X100125101Y-114343643D01*
X100117117Y-114349443D01*
X100109886Y-114355619D01*
X100045096Y-114384651D01*
X99974896Y-114374047D01*
X99922312Y-114327823D01*
X99920615Y-114323295D01*
X99915230Y-114316110D01*
X99915229Y-114316108D01*
X99838642Y-114213919D01*
X99833261Y-114206739D01*
X99809567Y-114188981D01*
X99723887Y-114124767D01*
X99723884Y-114124765D01*
X99716705Y-114119385D01*
X99715079Y-114118775D01*
X99667505Y-114071097D01*
X99652491Y-114001706D01*
X99677376Y-113935213D01*
X99689065Y-113921739D01*
X103942253Y-109668552D01*
X103950539Y-109661012D01*
X103957018Y-109656900D01*
X103972990Y-109639892D01*
X104003643Y-109607249D01*
X104006398Y-109604407D01*
X104026135Y-109584670D01*
X104028615Y-109581473D01*
X104036320Y-109572451D01*
X104061159Y-109546000D01*
X104066586Y-109540221D01*
X104070405Y-109533275D01*
X104070407Y-109533272D01*
X104076348Y-109522466D01*
X104087199Y-109505947D01*
X104094758Y-109496201D01*
X104099614Y-109489941D01*
X104102759Y-109482672D01*
X104102762Y-109482668D01*
X104117174Y-109449363D01*
X104122391Y-109438713D01*
X104143695Y-109399960D01*
X104148733Y-109380337D01*
X104155137Y-109361634D01*
X104160033Y-109350320D01*
X104160033Y-109350319D01*
X104163181Y-109343045D01*
X104164420Y-109335222D01*
X104164423Y-109335212D01*
X104170099Y-109299376D01*
X104172505Y-109287756D01*
X104181528Y-109252611D01*
X104181528Y-109252610D01*
X104183500Y-109244930D01*
X104183500Y-109224676D01*
X104183868Y-109220000D01*
X111226884Y-109220000D01*
X111245314Y-109430655D01*
X111246738Y-109435968D01*
X111246738Y-109435970D01*
X111292250Y-109605821D01*
X111300044Y-109634910D01*
X111302366Y-109639891D01*
X111302367Y-109639892D01*
X111315732Y-109668552D01*
X111389411Y-109826558D01*
X111510699Y-109999776D01*
X111660224Y-110149301D01*
X111833442Y-110270589D01*
X111838420Y-110272910D01*
X111838423Y-110272912D01*
X112020108Y-110357633D01*
X112025090Y-110359956D01*
X112030398Y-110361378D01*
X112030400Y-110361379D01*
X112224030Y-110413262D01*
X112224032Y-110413262D01*
X112229345Y-110414686D01*
X112440000Y-110433116D01*
X112650655Y-110414686D01*
X112655968Y-110413262D01*
X112655970Y-110413262D01*
X112849600Y-110361379D01*
X112849602Y-110361378D01*
X112854910Y-110359956D01*
X112859892Y-110357633D01*
X113041577Y-110272912D01*
X113041580Y-110272910D01*
X113046558Y-110270589D01*
X113219776Y-110149301D01*
X113369301Y-109999776D01*
X113490589Y-109826558D01*
X113564269Y-109668552D01*
X113577633Y-109639892D01*
X113577634Y-109639891D01*
X113579956Y-109634910D01*
X113587751Y-109605821D01*
X113633262Y-109435970D01*
X113633262Y-109435968D01*
X113634686Y-109430655D01*
X113653116Y-109220000D01*
X113634686Y-109009345D01*
X113579956Y-108805090D01*
X113490589Y-108613442D01*
X113369301Y-108440224D01*
X113219776Y-108290699D01*
X113046558Y-108169411D01*
X113041580Y-108167090D01*
X113041577Y-108167088D01*
X112859892Y-108082367D01*
X112859891Y-108082366D01*
X112854910Y-108080044D01*
X112849602Y-108078622D01*
X112849600Y-108078621D01*
X112823796Y-108071707D01*
X112763173Y-108034755D01*
X112732152Y-107970894D01*
X112740580Y-107900400D01*
X112785783Y-107845653D01*
X112823796Y-107828293D01*
X112849600Y-107821379D01*
X112849602Y-107821378D01*
X112854910Y-107819956D01*
X112859892Y-107817633D01*
X113041577Y-107732912D01*
X113041580Y-107732910D01*
X113046558Y-107730589D01*
X113219776Y-107609301D01*
X113369301Y-107459776D01*
X113490589Y-107286558D01*
X113579956Y-107094910D01*
X113634686Y-106890655D01*
X113653116Y-106680000D01*
X123926884Y-106680000D01*
X123945314Y-106890655D01*
X124000044Y-107094910D01*
X124089411Y-107286558D01*
X124210699Y-107459776D01*
X124360224Y-107609301D01*
X124533442Y-107730589D01*
X124538420Y-107732910D01*
X124538423Y-107732912D01*
X124720108Y-107817633D01*
X124725090Y-107819956D01*
X124730398Y-107821378D01*
X124730400Y-107821379D01*
X124924030Y-107873262D01*
X124924032Y-107873262D01*
X124929345Y-107874686D01*
X125140000Y-107893116D01*
X125350655Y-107874686D01*
X125355968Y-107873262D01*
X125355970Y-107873262D01*
X125549600Y-107821379D01*
X125549602Y-107821378D01*
X125554910Y-107819956D01*
X125559892Y-107817633D01*
X125741577Y-107732912D01*
X125741580Y-107732910D01*
X125746558Y-107730589D01*
X125919776Y-107609301D01*
X126069301Y-107459776D01*
X126190589Y-107286558D01*
X126279956Y-107094910D01*
X126334686Y-106890655D01*
X126353116Y-106680000D01*
X126334686Y-106469345D01*
X126279956Y-106265090D01*
X126190589Y-106073442D01*
X126069301Y-105900224D01*
X125919776Y-105750699D01*
X125746558Y-105629411D01*
X125741580Y-105627090D01*
X125741577Y-105627088D01*
X125559892Y-105542367D01*
X125559891Y-105542366D01*
X125554910Y-105540044D01*
X125549602Y-105538622D01*
X125549600Y-105538621D01*
X125355970Y-105486738D01*
X125355968Y-105486738D01*
X125350655Y-105485314D01*
X125140000Y-105466884D01*
X124929345Y-105485314D01*
X124924032Y-105486738D01*
X124924030Y-105486738D01*
X124730400Y-105538621D01*
X124730398Y-105538622D01*
X124725090Y-105540044D01*
X124720109Y-105542366D01*
X124720108Y-105542367D01*
X124538423Y-105627088D01*
X124538420Y-105627090D01*
X124533442Y-105629411D01*
X124360224Y-105750699D01*
X124210699Y-105900224D01*
X124089411Y-106073442D01*
X124000044Y-106265090D01*
X123945314Y-106469345D01*
X123926884Y-106680000D01*
X113653116Y-106680000D01*
X113634686Y-106469345D01*
X113579956Y-106265090D01*
X113490589Y-106073442D01*
X113369301Y-105900224D01*
X113219776Y-105750699D01*
X113046558Y-105629411D01*
X113041580Y-105627090D01*
X113041577Y-105627088D01*
X112859892Y-105542367D01*
X112859891Y-105542366D01*
X112854910Y-105540044D01*
X112849602Y-105538622D01*
X112849600Y-105538621D01*
X112823796Y-105531707D01*
X112763173Y-105494755D01*
X112732152Y-105430894D01*
X112740580Y-105360400D01*
X112785783Y-105305653D01*
X112823796Y-105288293D01*
X112849600Y-105281379D01*
X112849602Y-105281378D01*
X112854910Y-105279956D01*
X112859892Y-105277633D01*
X113041577Y-105192912D01*
X113041580Y-105192910D01*
X113046558Y-105190589D01*
X113219776Y-105069301D01*
X113369301Y-104919776D01*
X113490589Y-104746558D01*
X113557523Y-104603019D01*
X113577633Y-104559892D01*
X113577634Y-104559891D01*
X113579956Y-104554910D01*
X113611185Y-104438364D01*
X113633262Y-104355970D01*
X113633262Y-104355968D01*
X113634686Y-104350655D01*
X113653116Y-104140000D01*
X113634686Y-103929345D01*
X113614698Y-103854747D01*
X113581379Y-103730400D01*
X113581378Y-103730398D01*
X113579956Y-103725090D01*
X113547058Y-103654539D01*
X113492912Y-103538423D01*
X113492910Y-103538420D01*
X113490589Y-103533442D01*
X113369301Y-103360224D01*
X113219776Y-103210699D01*
X113046558Y-103089411D01*
X113041580Y-103087090D01*
X113041577Y-103087088D01*
X112859892Y-103002367D01*
X112859891Y-103002366D01*
X112854910Y-103000044D01*
X112849602Y-102998622D01*
X112849600Y-102998621D01*
X112823796Y-102991707D01*
X112763173Y-102954755D01*
X112732152Y-102890894D01*
X112740580Y-102820400D01*
X112785783Y-102765653D01*
X112823796Y-102748293D01*
X112849600Y-102741379D01*
X112849602Y-102741378D01*
X112854910Y-102739956D01*
X112859892Y-102737633D01*
X113041577Y-102652912D01*
X113041580Y-102652910D01*
X113046558Y-102650589D01*
X113219776Y-102529301D01*
X113369301Y-102379776D01*
X113490589Y-102206558D01*
X113497414Y-102191923D01*
X113577633Y-102019892D01*
X113577634Y-102019891D01*
X113579956Y-102014910D01*
X113584897Y-101996472D01*
X113633262Y-101815970D01*
X113633262Y-101815968D01*
X113634686Y-101810655D01*
X113653116Y-101600000D01*
X113634686Y-101389345D01*
X113579956Y-101185090D01*
X113490589Y-100993442D01*
X113369301Y-100820224D01*
X113219776Y-100670699D01*
X113046558Y-100549411D01*
X113041580Y-100547090D01*
X113041577Y-100547088D01*
X112859892Y-100462367D01*
X112859891Y-100462366D01*
X112854910Y-100460044D01*
X112849603Y-100458622D01*
X112849592Y-100458618D01*
X112822829Y-100451447D01*
X112762207Y-100414496D01*
X112731185Y-100350635D01*
X112739614Y-100280140D01*
X112784818Y-100225394D01*
X112822830Y-100208034D01*
X112849426Y-100200908D01*
X112859723Y-100197159D01*
X113041323Y-100112479D01*
X113050811Y-100107001D01*
X113081248Y-100085689D01*
X113089623Y-100075212D01*
X113082554Y-100061764D01*
X112452812Y-99432022D01*
X112438868Y-99424408D01*
X112437035Y-99424539D01*
X112430420Y-99428790D01*
X111796724Y-100062486D01*
X111790294Y-100074261D01*
X111799590Y-100086276D01*
X111829189Y-100107001D01*
X111838677Y-100112479D01*
X112020277Y-100197159D01*
X112030574Y-100200908D01*
X112057170Y-100208034D01*
X112117793Y-100244986D01*
X112148814Y-100308846D01*
X112140386Y-100379341D01*
X112095183Y-100434088D01*
X112057171Y-100451447D01*
X112030408Y-100458618D01*
X112030397Y-100458622D01*
X112025090Y-100460044D01*
X112020109Y-100462366D01*
X112020108Y-100462367D01*
X111838423Y-100547088D01*
X111838420Y-100547090D01*
X111833442Y-100549411D01*
X111660224Y-100670699D01*
X111510699Y-100820224D01*
X111389411Y-100993442D01*
X111300044Y-101185090D01*
X111245314Y-101389345D01*
X111226884Y-101600000D01*
X111245314Y-101810655D01*
X111246738Y-101815968D01*
X111246738Y-101815970D01*
X111295104Y-101996472D01*
X111300044Y-102014910D01*
X111302366Y-102019891D01*
X111302367Y-102019892D01*
X111382587Y-102191923D01*
X111389411Y-102206558D01*
X111510699Y-102379776D01*
X111660224Y-102529301D01*
X111833442Y-102650589D01*
X111838420Y-102652910D01*
X111838423Y-102652912D01*
X112020108Y-102737633D01*
X112025090Y-102739956D01*
X112030398Y-102741378D01*
X112030400Y-102741379D01*
X112056204Y-102748293D01*
X112116827Y-102785245D01*
X112147848Y-102849106D01*
X112139420Y-102919600D01*
X112094217Y-102974347D01*
X112056204Y-102991707D01*
X112030400Y-102998621D01*
X112030398Y-102998622D01*
X112025090Y-103000044D01*
X112020109Y-103002366D01*
X112020108Y-103002367D01*
X111838423Y-103087088D01*
X111838420Y-103087090D01*
X111833442Y-103089411D01*
X111660224Y-103210699D01*
X111510699Y-103360224D01*
X111389411Y-103533442D01*
X111387090Y-103538420D01*
X111387088Y-103538423D01*
X111332942Y-103654539D01*
X111300044Y-103725090D01*
X111298622Y-103730398D01*
X111298621Y-103730400D01*
X111265302Y-103854747D01*
X111245314Y-103929345D01*
X111226884Y-104140000D01*
X111245314Y-104350655D01*
X111246738Y-104355968D01*
X111246738Y-104355970D01*
X111268816Y-104438364D01*
X111300044Y-104554910D01*
X111302366Y-104559891D01*
X111302367Y-104559892D01*
X111322478Y-104603019D01*
X111389411Y-104746558D01*
X111510699Y-104919776D01*
X111660224Y-105069301D01*
X111833442Y-105190589D01*
X111838420Y-105192910D01*
X111838423Y-105192912D01*
X112020108Y-105277633D01*
X112025090Y-105279956D01*
X112030398Y-105281378D01*
X112030400Y-105281379D01*
X112056204Y-105288293D01*
X112116827Y-105325245D01*
X112147848Y-105389106D01*
X112139420Y-105459600D01*
X112094217Y-105514347D01*
X112056204Y-105531707D01*
X112030400Y-105538621D01*
X112030398Y-105538622D01*
X112025090Y-105540044D01*
X112020109Y-105542366D01*
X112020108Y-105542367D01*
X111838423Y-105627088D01*
X111838420Y-105627090D01*
X111833442Y-105629411D01*
X111660224Y-105750699D01*
X111510699Y-105900224D01*
X111389411Y-106073442D01*
X111300044Y-106265090D01*
X111245314Y-106469345D01*
X111226884Y-106680000D01*
X111245314Y-106890655D01*
X111300044Y-107094910D01*
X111389411Y-107286558D01*
X111510699Y-107459776D01*
X111660224Y-107609301D01*
X111833442Y-107730589D01*
X111838420Y-107732910D01*
X111838423Y-107732912D01*
X112020108Y-107817633D01*
X112025090Y-107819956D01*
X112030398Y-107821378D01*
X112030400Y-107821379D01*
X112056204Y-107828293D01*
X112116827Y-107865245D01*
X112147848Y-107929106D01*
X112139420Y-107999600D01*
X112094217Y-108054347D01*
X112056204Y-108071707D01*
X112030400Y-108078621D01*
X112030398Y-108078622D01*
X112025090Y-108080044D01*
X112020109Y-108082366D01*
X112020108Y-108082367D01*
X111838423Y-108167088D01*
X111838420Y-108167090D01*
X111833442Y-108169411D01*
X111660224Y-108290699D01*
X111510699Y-108440224D01*
X111389411Y-108613442D01*
X111300044Y-108805090D01*
X111245314Y-109009345D01*
X111226884Y-109220000D01*
X104183868Y-109220000D01*
X104185051Y-109204965D01*
X104186980Y-109192786D01*
X104188220Y-109184957D01*
X104184059Y-109140938D01*
X104183500Y-109129081D01*
X104183500Y-104509394D01*
X104203502Y-104441273D01*
X104237229Y-104406181D01*
X104389789Y-104299357D01*
X104389792Y-104299355D01*
X104394300Y-104296198D01*
X104556198Y-104134300D01*
X104687523Y-103946749D01*
X104689846Y-103941767D01*
X104689849Y-103941762D01*
X104781961Y-103744225D01*
X104781961Y-103744224D01*
X104784284Y-103739243D01*
X104786654Y-103730400D01*
X104842119Y-103523402D01*
X104842119Y-103523400D01*
X104843543Y-103518087D01*
X104863498Y-103290000D01*
X104843543Y-103061913D01*
X104806981Y-102925461D01*
X104785707Y-102846067D01*
X104785706Y-102846065D01*
X104784284Y-102840757D01*
X104781959Y-102835770D01*
X104723260Y-102709888D01*
X104712599Y-102639697D01*
X104741579Y-102574884D01*
X104748360Y-102567544D01*
X108250429Y-99065475D01*
X111227865Y-99065475D01*
X111245329Y-99265091D01*
X111247231Y-99275878D01*
X111299093Y-99469429D01*
X111302841Y-99479723D01*
X111387521Y-99661323D01*
X111392999Y-99670811D01*
X111414311Y-99701248D01*
X111424788Y-99709623D01*
X111438236Y-99702554D01*
X112067978Y-99072812D01*
X112074356Y-99061132D01*
X112804408Y-99061132D01*
X112804539Y-99062965D01*
X112808790Y-99069580D01*
X113442486Y-99703276D01*
X113454261Y-99709706D01*
X113466276Y-99700410D01*
X113487001Y-99670811D01*
X113492479Y-99661323D01*
X113577159Y-99479723D01*
X113580907Y-99469429D01*
X113632769Y-99275878D01*
X113634671Y-99265091D01*
X113652135Y-99065475D01*
X113652135Y-99054525D01*
X113634671Y-98854909D01*
X113632769Y-98844122D01*
X113580907Y-98650571D01*
X113577159Y-98640277D01*
X113492479Y-98458677D01*
X113487001Y-98449189D01*
X113465689Y-98418752D01*
X113455212Y-98410377D01*
X113441764Y-98417446D01*
X112812022Y-99047188D01*
X112804408Y-99061132D01*
X112074356Y-99061132D01*
X112075592Y-99058868D01*
X112075461Y-99057035D01*
X112071210Y-99050420D01*
X111437514Y-98416724D01*
X111425739Y-98410294D01*
X111413724Y-98419590D01*
X111392999Y-98449189D01*
X111387521Y-98458677D01*
X111302841Y-98640277D01*
X111299093Y-98650571D01*
X111247231Y-98844122D01*
X111245329Y-98854909D01*
X111227865Y-99054525D01*
X111227865Y-99065475D01*
X108250429Y-99065475D01*
X111023417Y-96292487D01*
X111085729Y-96258461D01*
X111156544Y-96263526D01*
X111213380Y-96306073D01*
X111238191Y-96372593D01*
X111238033Y-96392563D01*
X111226884Y-96520000D01*
X111245314Y-96730655D01*
X111300044Y-96934910D01*
X111389411Y-97126558D01*
X111510699Y-97299776D01*
X111660224Y-97449301D01*
X111833442Y-97570589D01*
X111838420Y-97572910D01*
X111838423Y-97572912D01*
X112020108Y-97657633D01*
X112025090Y-97659956D01*
X112030397Y-97661378D01*
X112030408Y-97661382D01*
X112057171Y-97668553D01*
X112117793Y-97705504D01*
X112148815Y-97769365D01*
X112140386Y-97839860D01*
X112095182Y-97894606D01*
X112057170Y-97911966D01*
X112030574Y-97919092D01*
X112020277Y-97922841D01*
X111838677Y-98007521D01*
X111829189Y-98012999D01*
X111798752Y-98034311D01*
X111790377Y-98044788D01*
X111797446Y-98058236D01*
X112427188Y-98687978D01*
X112441132Y-98695592D01*
X112442965Y-98695461D01*
X112449580Y-98691210D01*
X113083276Y-98057514D01*
X113089706Y-98045739D01*
X113080410Y-98033724D01*
X113050811Y-98012999D01*
X113041323Y-98007521D01*
X112859723Y-97922841D01*
X112849426Y-97919092D01*
X112822830Y-97911966D01*
X112762207Y-97875014D01*
X112731186Y-97811154D01*
X112739614Y-97740659D01*
X112784817Y-97685912D01*
X112822829Y-97668553D01*
X112849592Y-97661382D01*
X112849603Y-97661378D01*
X112854910Y-97659956D01*
X112859892Y-97657633D01*
X113041577Y-97572912D01*
X113041580Y-97572910D01*
X113046558Y-97570589D01*
X113219776Y-97449301D01*
X113369301Y-97299776D01*
X113490589Y-97126558D01*
X113579956Y-96934910D01*
X113634686Y-96730655D01*
X113653116Y-96520000D01*
X113634686Y-96309345D01*
X113579956Y-96105090D01*
X113490589Y-95913442D01*
X113369301Y-95740224D01*
X113219776Y-95590699D01*
X113046558Y-95469411D01*
X113041580Y-95467090D01*
X113041577Y-95467088D01*
X112859892Y-95382367D01*
X112859891Y-95382366D01*
X112854910Y-95380044D01*
X112849602Y-95378622D01*
X112849600Y-95378621D01*
X112823796Y-95371707D01*
X112763173Y-95334755D01*
X112732152Y-95270894D01*
X112740580Y-95200400D01*
X112785783Y-95145653D01*
X112823796Y-95128293D01*
X112849600Y-95121379D01*
X112849602Y-95121378D01*
X112854910Y-95119956D01*
X112859892Y-95117633D01*
X113041577Y-95032912D01*
X113041580Y-95032910D01*
X113046558Y-95030589D01*
X113219776Y-94909301D01*
X113369301Y-94759776D01*
X113490589Y-94586558D01*
X113579956Y-94394910D01*
X113602296Y-94311538D01*
X113633262Y-94195970D01*
X113633262Y-94195968D01*
X113634686Y-94190655D01*
X113653116Y-93980000D01*
X113634686Y-93769345D01*
X113579956Y-93565090D01*
X113490589Y-93373442D01*
X113369301Y-93200224D01*
X113219776Y-93050699D01*
X113046558Y-92929411D01*
X113041580Y-92927090D01*
X113041577Y-92927088D01*
X112859892Y-92842367D01*
X112859891Y-92842366D01*
X112854910Y-92840044D01*
X112849602Y-92838622D01*
X112849600Y-92838621D01*
X112823796Y-92831707D01*
X112763173Y-92794755D01*
X112732152Y-92730894D01*
X112740580Y-92660400D01*
X112785783Y-92605653D01*
X112823796Y-92588293D01*
X112849600Y-92581379D01*
X112849602Y-92581378D01*
X112854910Y-92579956D01*
X112859892Y-92577633D01*
X113041577Y-92492912D01*
X113041580Y-92492910D01*
X113046558Y-92490589D01*
X113219776Y-92369301D01*
X113369301Y-92219776D01*
X113490589Y-92046558D01*
X113579956Y-91854910D01*
X113634686Y-91650655D01*
X113653116Y-91440000D01*
X113634686Y-91229345D01*
X113579956Y-91025090D01*
X113490589Y-90833442D01*
X113369301Y-90660224D01*
X113219776Y-90510699D01*
X113046558Y-90389411D01*
X113041580Y-90387090D01*
X113041577Y-90387088D01*
X112859892Y-90302367D01*
X112859891Y-90302366D01*
X112854910Y-90300044D01*
X112849602Y-90298622D01*
X112849600Y-90298621D01*
X112823796Y-90291707D01*
X112763173Y-90254755D01*
X112732152Y-90190894D01*
X112740580Y-90120400D01*
X112785783Y-90065653D01*
X112823796Y-90048293D01*
X112849600Y-90041379D01*
X112849602Y-90041378D01*
X112854910Y-90039956D01*
X112859892Y-90037633D01*
X113041577Y-89952912D01*
X113041580Y-89952910D01*
X113046558Y-89950589D01*
X113219776Y-89829301D01*
X113369301Y-89679776D01*
X113490589Y-89506558D01*
X113579956Y-89314910D01*
X113634686Y-89110655D01*
X113653116Y-88900000D01*
X123926884Y-88900000D01*
X123945314Y-89110655D01*
X124000044Y-89314910D01*
X124089411Y-89506558D01*
X124210699Y-89679776D01*
X124360224Y-89829301D01*
X124533442Y-89950589D01*
X124538420Y-89952910D01*
X124538423Y-89952912D01*
X124720108Y-90037633D01*
X124725090Y-90039956D01*
X124730398Y-90041378D01*
X124730400Y-90041379D01*
X124924030Y-90093262D01*
X124924032Y-90093262D01*
X124929345Y-90094686D01*
X125140000Y-90113116D01*
X125350655Y-90094686D01*
X125355968Y-90093262D01*
X125355970Y-90093262D01*
X125549600Y-90041379D01*
X125549602Y-90041378D01*
X125554910Y-90039956D01*
X125559892Y-90037633D01*
X125741577Y-89952912D01*
X125741580Y-89952910D01*
X125746558Y-89950589D01*
X125919776Y-89829301D01*
X126069301Y-89679776D01*
X126190589Y-89506558D01*
X126279956Y-89314910D01*
X126334686Y-89110655D01*
X126353116Y-88900000D01*
X126334686Y-88689345D01*
X126279956Y-88485090D01*
X126190589Y-88293442D01*
X126069301Y-88120224D01*
X125919776Y-87970699D01*
X125746558Y-87849411D01*
X125741580Y-87847090D01*
X125741577Y-87847088D01*
X125559892Y-87762367D01*
X125559891Y-87762366D01*
X125554910Y-87760044D01*
X125549602Y-87758622D01*
X125549600Y-87758621D01*
X125355970Y-87706738D01*
X125355968Y-87706738D01*
X125350655Y-87705314D01*
X125140000Y-87686884D01*
X124929345Y-87705314D01*
X124924032Y-87706738D01*
X124924030Y-87706738D01*
X124730400Y-87758621D01*
X124730398Y-87758622D01*
X124725090Y-87760044D01*
X124720109Y-87762366D01*
X124720108Y-87762367D01*
X124538423Y-87847088D01*
X124538420Y-87847090D01*
X124533442Y-87849411D01*
X124360224Y-87970699D01*
X124210699Y-88120224D01*
X124089411Y-88293442D01*
X124000044Y-88485090D01*
X123945314Y-88689345D01*
X123926884Y-88900000D01*
X113653116Y-88900000D01*
X113634686Y-88689345D01*
X113579956Y-88485090D01*
X113490589Y-88293442D01*
X113369301Y-88120224D01*
X113219776Y-87970699D01*
X113046558Y-87849411D01*
X113041580Y-87847090D01*
X113041577Y-87847088D01*
X112859892Y-87762367D01*
X112859891Y-87762366D01*
X112854910Y-87760044D01*
X112849602Y-87758622D01*
X112849600Y-87758621D01*
X112823796Y-87751707D01*
X112763173Y-87714755D01*
X112732152Y-87650894D01*
X112740580Y-87580400D01*
X112785783Y-87525653D01*
X112823796Y-87508293D01*
X112849600Y-87501379D01*
X112849602Y-87501378D01*
X112854910Y-87499956D01*
X112859892Y-87497633D01*
X113041577Y-87412912D01*
X113041580Y-87412910D01*
X113046558Y-87410589D01*
X113219776Y-87289301D01*
X113369301Y-87139776D01*
X113490589Y-86966558D01*
X113579956Y-86774910D01*
X113634686Y-86570655D01*
X113653116Y-86360000D01*
X113634686Y-86149345D01*
X113579956Y-85945090D01*
X113490589Y-85753442D01*
X113369301Y-85580224D01*
X113219776Y-85430699D01*
X113046558Y-85309411D01*
X113041580Y-85307090D01*
X113041577Y-85307088D01*
X112859892Y-85222367D01*
X112859891Y-85222366D01*
X112854910Y-85220044D01*
X112849602Y-85218622D01*
X112849600Y-85218621D01*
X112655970Y-85166738D01*
X112655968Y-85166738D01*
X112650655Y-85165314D01*
X112440000Y-85146884D01*
X112229345Y-85165314D01*
X112224032Y-85166738D01*
X112224030Y-85166738D01*
X112030400Y-85218621D01*
X112030398Y-85218622D01*
X112025090Y-85220044D01*
X112020109Y-85222366D01*
X112020108Y-85222367D01*
X111838423Y-85307088D01*
X111838420Y-85307090D01*
X111833442Y-85309411D01*
X111660224Y-85430699D01*
X111510699Y-85580224D01*
X111389411Y-85753442D01*
X111300044Y-85945090D01*
X111245314Y-86149345D01*
X111226884Y-86360000D01*
X111245314Y-86570655D01*
X111300044Y-86774910D01*
X111389411Y-86966558D01*
X111510699Y-87139776D01*
X111660224Y-87289301D01*
X111833442Y-87410589D01*
X111838420Y-87412910D01*
X111838423Y-87412912D01*
X112020108Y-87497633D01*
X112025090Y-87499956D01*
X112030398Y-87501378D01*
X112030400Y-87501379D01*
X112056204Y-87508293D01*
X112116827Y-87545245D01*
X112147848Y-87609106D01*
X112139420Y-87679600D01*
X112094217Y-87734347D01*
X112056204Y-87751707D01*
X112030400Y-87758621D01*
X112030398Y-87758622D01*
X112025090Y-87760044D01*
X112020109Y-87762366D01*
X112020108Y-87762367D01*
X111838423Y-87847088D01*
X111838420Y-87847090D01*
X111833442Y-87849411D01*
X111660224Y-87970699D01*
X111510699Y-88120224D01*
X111389411Y-88293442D01*
X111300044Y-88485090D01*
X111245314Y-88689345D01*
X111226884Y-88900000D01*
X111245314Y-89110655D01*
X111300044Y-89314910D01*
X111389411Y-89506558D01*
X111510699Y-89679776D01*
X111660224Y-89829301D01*
X111833442Y-89950589D01*
X111838420Y-89952910D01*
X111838423Y-89952912D01*
X112020108Y-90037633D01*
X112025090Y-90039956D01*
X112030398Y-90041378D01*
X112030400Y-90041379D01*
X112056204Y-90048293D01*
X112116827Y-90085245D01*
X112147848Y-90149106D01*
X112139420Y-90219600D01*
X112094217Y-90274347D01*
X112056204Y-90291707D01*
X112030400Y-90298621D01*
X112030398Y-90298622D01*
X112025090Y-90300044D01*
X112020109Y-90302366D01*
X112020108Y-90302367D01*
X111838423Y-90387088D01*
X111838420Y-90387090D01*
X111833442Y-90389411D01*
X111660224Y-90510699D01*
X111510699Y-90660224D01*
X111389411Y-90833442D01*
X111300044Y-91025090D01*
X111245314Y-91229345D01*
X111226884Y-91440000D01*
X111245314Y-91650655D01*
X111300044Y-91854910D01*
X111389411Y-92046558D01*
X111510699Y-92219776D01*
X111660224Y-92369301D01*
X111833442Y-92490589D01*
X111838420Y-92492910D01*
X111838423Y-92492912D01*
X112020108Y-92577633D01*
X112025090Y-92579956D01*
X112030398Y-92581378D01*
X112030400Y-92581379D01*
X112056204Y-92588293D01*
X112116827Y-92625245D01*
X112147848Y-92689106D01*
X112139420Y-92759600D01*
X112094217Y-92814347D01*
X112056204Y-92831707D01*
X112030400Y-92838621D01*
X112030398Y-92838622D01*
X112025090Y-92840044D01*
X112020109Y-92842366D01*
X112020108Y-92842367D01*
X111838423Y-92927088D01*
X111838420Y-92927090D01*
X111833442Y-92929411D01*
X111660224Y-93050699D01*
X111510699Y-93200224D01*
X111389411Y-93373442D01*
X111300044Y-93565090D01*
X111245314Y-93769345D01*
X111226884Y-93980000D01*
X111227363Y-93985475D01*
X111244835Y-94185175D01*
X111245314Y-94190655D01*
X111246736Y-94195961D01*
X111247547Y-94200561D01*
X111239679Y-94271121D01*
X111212557Y-94311538D01*
X103579791Y-101944304D01*
X103517479Y-101978330D01*
X103501679Y-101980730D01*
X103321913Y-101996457D01*
X103174141Y-102036053D01*
X103106067Y-102054293D01*
X103106065Y-102054294D01*
X103100757Y-102055716D01*
X103095776Y-102058039D01*
X103095775Y-102058039D01*
X102898238Y-102150151D01*
X102898233Y-102150154D01*
X102893251Y-102152477D01*
X102836080Y-102192509D01*
X102710211Y-102280643D01*
X102710208Y-102280645D01*
X102705700Y-102283802D01*
X102543802Y-102445700D01*
X102412477Y-102633251D01*
X102410154Y-102638233D01*
X102410151Y-102638238D01*
X102394195Y-102672457D01*
X102347278Y-102725742D01*
X102279001Y-102745203D01*
X102211041Y-102724661D01*
X102165805Y-102672457D01*
X102149849Y-102638238D01*
X102149846Y-102638233D01*
X102147523Y-102633251D01*
X102016198Y-102445700D01*
X101854300Y-102283802D01*
X101849792Y-102280645D01*
X101849789Y-102280643D01*
X101723920Y-102192509D01*
X101666749Y-102152477D01*
X101661767Y-102150154D01*
X101661762Y-102150151D01*
X101464225Y-102058039D01*
X101464224Y-102058039D01*
X101459243Y-102055716D01*
X101453935Y-102054294D01*
X101453933Y-102054293D01*
X101243402Y-101997881D01*
X101243400Y-101997881D01*
X101238087Y-101996457D01*
X101010000Y-101976502D01*
X100781913Y-101996457D01*
X100776600Y-101997881D01*
X100776598Y-101997881D01*
X100566067Y-102054293D01*
X100566065Y-102054294D01*
X100560757Y-102055716D01*
X100555776Y-102058039D01*
X100555775Y-102058039D01*
X100358238Y-102150151D01*
X100358233Y-102150154D01*
X100353251Y-102152477D01*
X100296080Y-102192509D01*
X100170211Y-102280643D01*
X100170208Y-102280645D01*
X100165700Y-102283802D01*
X100003802Y-102445700D01*
X99872477Y-102633251D01*
X99870154Y-102638233D01*
X99870151Y-102638238D01*
X99853919Y-102673049D01*
X99807002Y-102726334D01*
X99738725Y-102745795D01*
X99670765Y-102725253D01*
X99625529Y-102673049D01*
X99609414Y-102638489D01*
X99603931Y-102628994D01*
X99567491Y-102576952D01*
X99557012Y-102568576D01*
X99543566Y-102575644D01*
X98842022Y-103277188D01*
X98834408Y-103291132D01*
X98834539Y-103292965D01*
X98838790Y-103299580D01*
X99544287Y-104005077D01*
X99556062Y-104011507D01*
X99568077Y-104002211D01*
X99603931Y-103951006D01*
X99609414Y-103941511D01*
X99625529Y-103906951D01*
X99672446Y-103853666D01*
X99740723Y-103834205D01*
X99808683Y-103854747D01*
X99853919Y-103906951D01*
X99870151Y-103941762D01*
X99870154Y-103941767D01*
X99872477Y-103946749D01*
X100003802Y-104134300D01*
X100165700Y-104296198D01*
X100170208Y-104299355D01*
X100170211Y-104299357D01*
X100235646Y-104345175D01*
X100353251Y-104427523D01*
X100358233Y-104429846D01*
X100358238Y-104429849D01*
X100528825Y-104509394D01*
X100560757Y-104524284D01*
X100566065Y-104525706D01*
X100566067Y-104525707D01*
X100776598Y-104582119D01*
X100776600Y-104582119D01*
X100781913Y-104583543D01*
X101010000Y-104603498D01*
X101238087Y-104583543D01*
X101243400Y-104582119D01*
X101243402Y-104582119D01*
X101453933Y-104525707D01*
X101453935Y-104525706D01*
X101459243Y-104524284D01*
X101491175Y-104509394D01*
X101661762Y-104429849D01*
X101661767Y-104429846D01*
X101666749Y-104427523D01*
X101784354Y-104345175D01*
X101849789Y-104299357D01*
X101849792Y-104299355D01*
X101854300Y-104296198D01*
X102016198Y-104134300D01*
X102147523Y-103946749D01*
X102149846Y-103941767D01*
X102149849Y-103941762D01*
X102165805Y-103907543D01*
X102212722Y-103854258D01*
X102280999Y-103834797D01*
X102348959Y-103855339D01*
X102394195Y-103907543D01*
X102410151Y-103941762D01*
X102410154Y-103941767D01*
X102412477Y-103946749D01*
X102543802Y-104134300D01*
X102705700Y-104296198D01*
X102710208Y-104299355D01*
X102710211Y-104299357D01*
X102862771Y-104406181D01*
X102907099Y-104461638D01*
X102916500Y-104509394D01*
X102916500Y-108850306D01*
X102896498Y-108918427D01*
X102879595Y-108939401D01*
X98077747Y-113741248D01*
X98069461Y-113748788D01*
X98062982Y-113752900D01*
X98057557Y-113758677D01*
X98016357Y-113802551D01*
X98013602Y-113805393D01*
X97993865Y-113825130D01*
X97991385Y-113828327D01*
X97983682Y-113837347D01*
X97953414Y-113869579D01*
X97949595Y-113876525D01*
X97949593Y-113876528D01*
X97943652Y-113887334D01*
X97932801Y-113903853D01*
X97920386Y-113919859D01*
X97917241Y-113927128D01*
X97917238Y-113927132D01*
X97902826Y-113960437D01*
X97897609Y-113971087D01*
X97883803Y-113996201D01*
X97833460Y-114046259D01*
X97773389Y-114061500D01*
X97421866Y-114061500D01*
X97359684Y-114068255D01*
X97223295Y-114119385D01*
X97106739Y-114206739D01*
X97019385Y-114323295D01*
X96968255Y-114459684D01*
X96961500Y-114521866D01*
X96961500Y-116618134D01*
X85088500Y-116618134D01*
X85088500Y-103290000D01*
X89536502Y-103290000D01*
X89556457Y-103518087D01*
X89557881Y-103523400D01*
X89557881Y-103523402D01*
X89613347Y-103730400D01*
X89615716Y-103739243D01*
X89618039Y-103744224D01*
X89618039Y-103744225D01*
X89710151Y-103941762D01*
X89710154Y-103941767D01*
X89712477Y-103946749D01*
X89843802Y-104134300D01*
X90005700Y-104296198D01*
X90010208Y-104299355D01*
X90010211Y-104299357D01*
X90075646Y-104345175D01*
X90193251Y-104427523D01*
X90198233Y-104429846D01*
X90198238Y-104429849D01*
X90368825Y-104509394D01*
X90400757Y-104524284D01*
X90406065Y-104525706D01*
X90406067Y-104525707D01*
X90616598Y-104582119D01*
X90616600Y-104582119D01*
X90621913Y-104583543D01*
X90850000Y-104603498D01*
X91078087Y-104583543D01*
X91083400Y-104582119D01*
X91083402Y-104582119D01*
X91293933Y-104525707D01*
X91293935Y-104525706D01*
X91299243Y-104524284D01*
X91331175Y-104509394D01*
X91501762Y-104429849D01*
X91501767Y-104429846D01*
X91506749Y-104427523D01*
X91624354Y-104345175D01*
X91689789Y-104299357D01*
X91689792Y-104299355D01*
X91694300Y-104296198D01*
X91856198Y-104134300D01*
X91987523Y-103946749D01*
X91989846Y-103941767D01*
X91989849Y-103941762D01*
X92005805Y-103907543D01*
X92052722Y-103854258D01*
X92120999Y-103834797D01*
X92188959Y-103855339D01*
X92234195Y-103907543D01*
X92250151Y-103941762D01*
X92250154Y-103941767D01*
X92252477Y-103946749D01*
X92383802Y-104134300D01*
X92545700Y-104296198D01*
X92550208Y-104299355D01*
X92550211Y-104299357D01*
X92615646Y-104345175D01*
X92733251Y-104427523D01*
X92738233Y-104429846D01*
X92738238Y-104429849D01*
X92908825Y-104509394D01*
X92940757Y-104524284D01*
X92946065Y-104525706D01*
X92946067Y-104525707D01*
X93156598Y-104582119D01*
X93156600Y-104582119D01*
X93161913Y-104583543D01*
X93390000Y-104603498D01*
X93618087Y-104583543D01*
X93623400Y-104582119D01*
X93623402Y-104582119D01*
X93833933Y-104525707D01*
X93833935Y-104525706D01*
X93839243Y-104524284D01*
X93871175Y-104509394D01*
X94041762Y-104429849D01*
X94041767Y-104429846D01*
X94046749Y-104427523D01*
X94164354Y-104345175D01*
X94229789Y-104299357D01*
X94229792Y-104299355D01*
X94234300Y-104296198D01*
X94396198Y-104134300D01*
X94527523Y-103946749D01*
X94529846Y-103941767D01*
X94529849Y-103941762D01*
X94545805Y-103907543D01*
X94592722Y-103854258D01*
X94660999Y-103834797D01*
X94728959Y-103855339D01*
X94774195Y-103907543D01*
X94790151Y-103941762D01*
X94790154Y-103941767D01*
X94792477Y-103946749D01*
X94923802Y-104134300D01*
X95085700Y-104296198D01*
X95090208Y-104299355D01*
X95090211Y-104299357D01*
X95155646Y-104345175D01*
X95273251Y-104427523D01*
X95278233Y-104429846D01*
X95278238Y-104429849D01*
X95448825Y-104509394D01*
X95480757Y-104524284D01*
X95486065Y-104525706D01*
X95486067Y-104525707D01*
X95696598Y-104582119D01*
X95696600Y-104582119D01*
X95701913Y-104583543D01*
X95930000Y-104603498D01*
X96158087Y-104583543D01*
X96163400Y-104582119D01*
X96163402Y-104582119D01*
X96373933Y-104525707D01*
X96373935Y-104525706D01*
X96379243Y-104524284D01*
X96411175Y-104509394D01*
X96581762Y-104429849D01*
X96581767Y-104429846D01*
X96586749Y-104427523D01*
X96660243Y-104376062D01*
X97748493Y-104376062D01*
X97757789Y-104388077D01*
X97808994Y-104423931D01*
X97818489Y-104429414D01*
X98015947Y-104521490D01*
X98026239Y-104525236D01*
X98236688Y-104581625D01*
X98247481Y-104583528D01*
X98464525Y-104602517D01*
X98475475Y-104602517D01*
X98692519Y-104583528D01*
X98703312Y-104581625D01*
X98913761Y-104525236D01*
X98924053Y-104521490D01*
X99121511Y-104429414D01*
X99131006Y-104423931D01*
X99183048Y-104387491D01*
X99191424Y-104377012D01*
X99184356Y-104363566D01*
X98482812Y-103662022D01*
X98468868Y-103654408D01*
X98467035Y-103654539D01*
X98460420Y-103658790D01*
X97754923Y-104364287D01*
X97748493Y-104376062D01*
X96660243Y-104376062D01*
X96704354Y-104345175D01*
X96769789Y-104299357D01*
X96769792Y-104299355D01*
X96774300Y-104296198D01*
X96936198Y-104134300D01*
X97067523Y-103946749D01*
X97069846Y-103941767D01*
X97069849Y-103941762D01*
X97086081Y-103906951D01*
X97132998Y-103853666D01*
X97201275Y-103834205D01*
X97269235Y-103854747D01*
X97314471Y-103906951D01*
X97330586Y-103941511D01*
X97336069Y-103951006D01*
X97372509Y-104003048D01*
X97382988Y-104011424D01*
X97396434Y-104004356D01*
X98097978Y-103302812D01*
X98105592Y-103288868D01*
X98105461Y-103287035D01*
X98101210Y-103280420D01*
X97395713Y-102574923D01*
X97383938Y-102568493D01*
X97371923Y-102577789D01*
X97336069Y-102628994D01*
X97330586Y-102638489D01*
X97314471Y-102673049D01*
X97267554Y-102726334D01*
X97199277Y-102745795D01*
X97131317Y-102725253D01*
X97086081Y-102673049D01*
X97069849Y-102638238D01*
X97069846Y-102638233D01*
X97067523Y-102633251D01*
X96936198Y-102445700D01*
X96774300Y-102283802D01*
X96769792Y-102280645D01*
X96769789Y-102280643D01*
X96658886Y-102202988D01*
X97748576Y-102202988D01*
X97755644Y-102216434D01*
X98457188Y-102917978D01*
X98471132Y-102925592D01*
X98472965Y-102925461D01*
X98479580Y-102921210D01*
X99185077Y-102215713D01*
X99191507Y-102203938D01*
X99182211Y-102191923D01*
X99131006Y-102156069D01*
X99121511Y-102150586D01*
X98924053Y-102058510D01*
X98913761Y-102054764D01*
X98703312Y-101998375D01*
X98692519Y-101996472D01*
X98475475Y-101977483D01*
X98464525Y-101977483D01*
X98247481Y-101996472D01*
X98236688Y-101998375D01*
X98026239Y-102054764D01*
X98015947Y-102058510D01*
X97818489Y-102150586D01*
X97808994Y-102156069D01*
X97756952Y-102192509D01*
X97748576Y-102202988D01*
X96658886Y-102202988D01*
X96643920Y-102192509D01*
X96586749Y-102152477D01*
X96581767Y-102150154D01*
X96581762Y-102150151D01*
X96384225Y-102058039D01*
X96384224Y-102058039D01*
X96379243Y-102055716D01*
X96373935Y-102054294D01*
X96373933Y-102054293D01*
X96163402Y-101997881D01*
X96163400Y-101997881D01*
X96158087Y-101996457D01*
X95930000Y-101976502D01*
X95701913Y-101996457D01*
X95696600Y-101997881D01*
X95696598Y-101997881D01*
X95486067Y-102054293D01*
X95486065Y-102054294D01*
X95480757Y-102055716D01*
X95475776Y-102058039D01*
X95475775Y-102058039D01*
X95278238Y-102150151D01*
X95278233Y-102150154D01*
X95273251Y-102152477D01*
X95216080Y-102192509D01*
X95090211Y-102280643D01*
X95090208Y-102280645D01*
X95085700Y-102283802D01*
X94923802Y-102445700D01*
X94792477Y-102633251D01*
X94790154Y-102638233D01*
X94790151Y-102638238D01*
X94774195Y-102672457D01*
X94727278Y-102725742D01*
X94659001Y-102745203D01*
X94591041Y-102724661D01*
X94545805Y-102672457D01*
X94529849Y-102638238D01*
X94529846Y-102638233D01*
X94527523Y-102633251D01*
X94396198Y-102445700D01*
X94234300Y-102283802D01*
X94229792Y-102280645D01*
X94229789Y-102280643D01*
X94103920Y-102192509D01*
X94046749Y-102152477D01*
X94041767Y-102150154D01*
X94041762Y-102150151D01*
X93844225Y-102058039D01*
X93844224Y-102058039D01*
X93839243Y-102055716D01*
X93833935Y-102054294D01*
X93833933Y-102054293D01*
X93623402Y-101997881D01*
X93623400Y-101997881D01*
X93618087Y-101996457D01*
X93390000Y-101976502D01*
X93161913Y-101996457D01*
X93156600Y-101997881D01*
X93156598Y-101997881D01*
X92946067Y-102054293D01*
X92946065Y-102054294D01*
X92940757Y-102055716D01*
X92935776Y-102058039D01*
X92935775Y-102058039D01*
X92738238Y-102150151D01*
X92738233Y-102150154D01*
X92733251Y-102152477D01*
X92676080Y-102192509D01*
X92550211Y-102280643D01*
X92550208Y-102280645D01*
X92545700Y-102283802D01*
X92383802Y-102445700D01*
X92252477Y-102633251D01*
X92250154Y-102638233D01*
X92250151Y-102638238D01*
X92234195Y-102672457D01*
X92187278Y-102725742D01*
X92119001Y-102745203D01*
X92051041Y-102724661D01*
X92005805Y-102672457D01*
X91989849Y-102638238D01*
X91989846Y-102638233D01*
X91987523Y-102633251D01*
X91856198Y-102445700D01*
X91694300Y-102283802D01*
X91689792Y-102280645D01*
X91689789Y-102280643D01*
X91563920Y-102192509D01*
X91506749Y-102152477D01*
X91501767Y-102150154D01*
X91501762Y-102150151D01*
X91304225Y-102058039D01*
X91304224Y-102058039D01*
X91299243Y-102055716D01*
X91293935Y-102054294D01*
X91293933Y-102054293D01*
X91083402Y-101997881D01*
X91083400Y-101997881D01*
X91078087Y-101996457D01*
X90850000Y-101976502D01*
X90621913Y-101996457D01*
X90616600Y-101997881D01*
X90616598Y-101997881D01*
X90406067Y-102054293D01*
X90406065Y-102054294D01*
X90400757Y-102055716D01*
X90395776Y-102058039D01*
X90395775Y-102058039D01*
X90198238Y-102150151D01*
X90198233Y-102150154D01*
X90193251Y-102152477D01*
X90136080Y-102192509D01*
X90010211Y-102280643D01*
X90010208Y-102280645D01*
X90005700Y-102283802D01*
X89843802Y-102445700D01*
X89712477Y-102633251D01*
X89710154Y-102638233D01*
X89710151Y-102638238D01*
X89618041Y-102835770D01*
X89615716Y-102840757D01*
X89614294Y-102846065D01*
X89614293Y-102846067D01*
X89593019Y-102925461D01*
X89556457Y-103061913D01*
X89536502Y-103290000D01*
X85088500Y-103290000D01*
X85088500Y-53492703D01*
X85470743Y-53492703D01*
X85471302Y-53496947D01*
X85471302Y-53496951D01*
X85475353Y-53527722D01*
X85508268Y-53777734D01*
X85584129Y-54055036D01*
X85696923Y-54319476D01*
X85844561Y-54566161D01*
X86024313Y-54790528D01*
X86143886Y-54903998D01*
X86184053Y-54942115D01*
X86232851Y-54988423D01*
X86466317Y-55156186D01*
X86470112Y-55158195D01*
X86470113Y-55158196D01*
X86491869Y-55169715D01*
X86720392Y-55290712D01*
X86990373Y-55389511D01*
X87271264Y-55450755D01*
X87299841Y-55453004D01*
X87494282Y-55468307D01*
X87494291Y-55468307D01*
X87496739Y-55468500D01*
X87652271Y-55468500D01*
X87654407Y-55468354D01*
X87654418Y-55468354D01*
X87862548Y-55454165D01*
X87862554Y-55454164D01*
X87866825Y-55453873D01*
X87871020Y-55453004D01*
X87871022Y-55453004D01*
X88007584Y-55424723D01*
X88148342Y-55395574D01*
X88419343Y-55299607D01*
X88674812Y-55167750D01*
X88678313Y-55165289D01*
X88678317Y-55165287D01*
X88792418Y-55085095D01*
X88910023Y-55002441D01*
X89070959Y-54852890D01*
X102411500Y-54852890D01*
X102411725Y-54855539D01*
X102424399Y-55004904D01*
X102426080Y-55024720D01*
X102427418Y-55029875D01*
X102427419Y-55029881D01*
X102462564Y-55165287D01*
X102483999Y-55247872D01*
X102578688Y-55458075D01*
X102707441Y-55649319D01*
X102866576Y-55816135D01*
X103051542Y-55953754D01*
X103056293Y-55956170D01*
X103056297Y-55956172D01*
X103083975Y-55970244D01*
X103257051Y-56058240D01*
X103262145Y-56059822D01*
X103262148Y-56059823D01*
X103405471Y-56104326D01*
X103477227Y-56126607D01*
X103482516Y-56127308D01*
X103700489Y-56156198D01*
X103700494Y-56156198D01*
X103705774Y-56156898D01*
X103711103Y-56156698D01*
X103711105Y-56156698D01*
X103820966Y-56152574D01*
X103936158Y-56148249D01*
X104161791Y-56100907D01*
X104166750Y-56098949D01*
X104166752Y-56098948D01*
X104371256Y-56018185D01*
X104371258Y-56018184D01*
X104376221Y-56016224D01*
X104475184Y-55956172D01*
X104568757Y-55899390D01*
X104568756Y-55899390D01*
X104573317Y-55896623D01*
X104613493Y-55861760D01*
X104743412Y-55749023D01*
X104743414Y-55749021D01*
X104747445Y-55745523D01*
X104781516Y-55703970D01*
X104890240Y-55571373D01*
X104890244Y-55571367D01*
X104893624Y-55567245D01*
X104911552Y-55535750D01*
X104962632Y-55486445D01*
X105032262Y-55472583D01*
X105098333Y-55498566D01*
X105125573Y-55527716D01*
X105207441Y-55649319D01*
X105366576Y-55816135D01*
X105551542Y-55953754D01*
X105556293Y-55956170D01*
X105556297Y-55956172D01*
X105583975Y-55970244D01*
X105757051Y-56058240D01*
X105762145Y-56059822D01*
X105762148Y-56059823D01*
X105905471Y-56104326D01*
X105977227Y-56126607D01*
X105982516Y-56127308D01*
X106200489Y-56156198D01*
X106200494Y-56156198D01*
X106205774Y-56156898D01*
X106211103Y-56156698D01*
X106211105Y-56156698D01*
X106320966Y-56152574D01*
X106436158Y-56148249D01*
X106577038Y-56118690D01*
X106647814Y-56124278D01*
X106692006Y-56152910D01*
X106774695Y-56235599D01*
X106808721Y-56297911D01*
X106811600Y-56324694D01*
X106811600Y-72275133D01*
X106811073Y-72286316D01*
X106809398Y-72293809D01*
X106809647Y-72301735D01*
X106809647Y-72301736D01*
X106811538Y-72361886D01*
X106811600Y-72365845D01*
X106811600Y-72393756D01*
X106812097Y-72397690D01*
X106812097Y-72397691D01*
X106812105Y-72397756D01*
X106813038Y-72409593D01*
X106814427Y-72453789D01*
X106820078Y-72473239D01*
X106824087Y-72492600D01*
X106826626Y-72512697D01*
X106829545Y-72520068D01*
X106829545Y-72520070D01*
X106842904Y-72553812D01*
X106846749Y-72565042D01*
X106859082Y-72607493D01*
X106863115Y-72614312D01*
X106863117Y-72614317D01*
X106869393Y-72624928D01*
X106878088Y-72642676D01*
X106885548Y-72661517D01*
X106890210Y-72667933D01*
X106890210Y-72667934D01*
X106911536Y-72697287D01*
X106918052Y-72707207D01*
X106940558Y-72745262D01*
X106954879Y-72759583D01*
X106967719Y-72774616D01*
X106979628Y-72791007D01*
X106985734Y-72796058D01*
X107013705Y-72819198D01*
X107022484Y-72827188D01*
X110812878Y-76617583D01*
X110846904Y-76679895D01*
X110849093Y-76693506D01*
X110866458Y-76858728D01*
X110925473Y-77040356D01*
X111020960Y-77205744D01*
X111148747Y-77347666D01*
X111303248Y-77459918D01*
X111309276Y-77462602D01*
X111309278Y-77462603D01*
X111471681Y-77534909D01*
X111477712Y-77537594D01*
X111571113Y-77557447D01*
X111658056Y-77575928D01*
X111658061Y-77575928D01*
X111664513Y-77577300D01*
X111855487Y-77577300D01*
X111861939Y-77575928D01*
X111861944Y-77575928D01*
X111948887Y-77557447D01*
X112042288Y-77537594D01*
X112048319Y-77534909D01*
X112210722Y-77462603D01*
X112210724Y-77462602D01*
X112216752Y-77459918D01*
X112371253Y-77347666D01*
X112499040Y-77205744D01*
X112594527Y-77040356D01*
X112653542Y-76858728D01*
X112673504Y-76668800D01*
X112653542Y-76478872D01*
X112594527Y-76297244D01*
X112499040Y-76131856D01*
X112371253Y-75989934D01*
X112216752Y-75877682D01*
X112210724Y-75874998D01*
X112210722Y-75874997D01*
X112048319Y-75802691D01*
X112048318Y-75802691D01*
X112042288Y-75800006D01*
X111948888Y-75780153D01*
X111861944Y-75761672D01*
X111861939Y-75761672D01*
X111855487Y-75760300D01*
X111799594Y-75760300D01*
X111731473Y-75740298D01*
X111710499Y-75723395D01*
X108115505Y-72128400D01*
X108081479Y-72066088D01*
X108078600Y-72039305D01*
X108078600Y-56172447D01*
X108098602Y-56104326D01*
X108152258Y-56057833D01*
X108222532Y-56047729D01*
X108251999Y-56055702D01*
X108252295Y-56055822D01*
X108257051Y-56058240D01*
X108477227Y-56126607D01*
X108482516Y-56127308D01*
X108700489Y-56156198D01*
X108700494Y-56156198D01*
X108705774Y-56156898D01*
X108711103Y-56156698D01*
X108711105Y-56156698D01*
X108820966Y-56152574D01*
X108936158Y-56148249D01*
X109161791Y-56100907D01*
X109166750Y-56098949D01*
X109166752Y-56098948D01*
X109371255Y-56018185D01*
X109376221Y-56016224D01*
X109379251Y-56014385D01*
X109448631Y-56002106D01*
X109514132Y-56029494D01*
X109523840Y-56038244D01*
X120772441Y-67286845D01*
X120779985Y-67295135D01*
X120784098Y-67301616D01*
X120789875Y-67307041D01*
X120833765Y-67348256D01*
X120836607Y-67351011D01*
X120856328Y-67370732D01*
X120859523Y-67373210D01*
X120868545Y-67380916D01*
X120900777Y-67411184D01*
X120907726Y-67415004D01*
X120918530Y-67420944D01*
X120935054Y-67431797D01*
X120951057Y-67444211D01*
X120991641Y-67461774D01*
X121002271Y-67466981D01*
X121041038Y-67488293D01*
X121048715Y-67490264D01*
X121048720Y-67490266D01*
X121060656Y-67493330D01*
X121079364Y-67499735D01*
X121097953Y-67507779D01*
X121105781Y-67509019D01*
X121105788Y-67509021D01*
X121141622Y-67514697D01*
X121153242Y-67517103D01*
X121188387Y-67526126D01*
X121196068Y-67528098D01*
X121216322Y-67528098D01*
X121236032Y-67529649D01*
X121256041Y-67532818D01*
X121263933Y-67532072D01*
X121300059Y-67528657D01*
X121311917Y-67528098D01*
X121668300Y-67528098D01*
X121736421Y-67548100D01*
X121755647Y-67564441D01*
X121755920Y-67564138D01*
X121760832Y-67568561D01*
X121765247Y-67573464D01*
X121919748Y-67685716D01*
X121925776Y-67688400D01*
X121925778Y-67688401D01*
X122088181Y-67760707D01*
X122094212Y-67763392D01*
X122187613Y-67783245D01*
X122274556Y-67801726D01*
X122274561Y-67801726D01*
X122281013Y-67803098D01*
X122471987Y-67803098D01*
X122478439Y-67801726D01*
X122478444Y-67801726D01*
X122565387Y-67783245D01*
X122658788Y-67763392D01*
X122664819Y-67760707D01*
X122827222Y-67688401D01*
X122827224Y-67688400D01*
X122833252Y-67685716D01*
X122987753Y-67573464D01*
X123024351Y-67532818D01*
X123111121Y-67436450D01*
X123111122Y-67436449D01*
X123115540Y-67431542D01*
X123190553Y-67301616D01*
X123207723Y-67271877D01*
X123207724Y-67271876D01*
X123211027Y-67266154D01*
X123270042Y-67084526D01*
X123290004Y-66894598D01*
X123270042Y-66704670D01*
X123211027Y-66523042D01*
X123115540Y-66357654D01*
X122987753Y-66215732D01*
X122833252Y-66103480D01*
X122827224Y-66100796D01*
X122827222Y-66100795D01*
X122664819Y-66028489D01*
X122664818Y-66028489D01*
X122658788Y-66025804D01*
X122565388Y-66005951D01*
X122478444Y-65987470D01*
X122478439Y-65987470D01*
X122471987Y-65986098D01*
X122281013Y-65986098D01*
X122274561Y-65987470D01*
X122274556Y-65987470D01*
X122187612Y-66005951D01*
X122094212Y-66025804D01*
X122088182Y-66028489D01*
X122088181Y-66028489D01*
X121925778Y-66100795D01*
X121925776Y-66100796D01*
X121919748Y-66103480D01*
X121765247Y-66215732D01*
X121760832Y-66220635D01*
X121755920Y-66225058D01*
X121754795Y-66223809D01*
X121701486Y-66256649D01*
X121668300Y-66261098D01*
X121590693Y-66261098D01*
X121522572Y-66241096D01*
X121501598Y-66224193D01*
X111645499Y-56368094D01*
X111611473Y-56305782D01*
X111616538Y-56234967D01*
X111659085Y-56178131D01*
X111725605Y-56153320D01*
X111734594Y-56152999D01*
X111917095Y-56152999D01*
X111923614Y-56152662D01*
X112019206Y-56142743D01*
X112032600Y-56139851D01*
X112186784Y-56088412D01*
X112199962Y-56082239D01*
X112337807Y-55996937D01*
X112349208Y-55987901D01*
X112463739Y-55873171D01*
X112472751Y-55861760D01*
X112557816Y-55723757D01*
X112563963Y-55710576D01*
X112615138Y-55556290D01*
X112618005Y-55542914D01*
X112627672Y-55448562D01*
X112628000Y-55442146D01*
X112628000Y-54942115D01*
X112623525Y-54926876D01*
X112622135Y-54925671D01*
X112614452Y-54924000D01*
X111142000Y-54924000D01*
X111073879Y-54903998D01*
X111027386Y-54850342D01*
X111016000Y-54798000D01*
X111016000Y-54397885D01*
X111524000Y-54397885D01*
X111528475Y-54413124D01*
X111529865Y-54414329D01*
X111537548Y-54416000D01*
X112609884Y-54416000D01*
X112625123Y-54411525D01*
X112626328Y-54410135D01*
X112627999Y-54402452D01*
X112627999Y-53897905D01*
X112627662Y-53891386D01*
X112617743Y-53795794D01*
X112614851Y-53782400D01*
X112563412Y-53628216D01*
X112557239Y-53615038D01*
X112481535Y-53492703D01*
X126970743Y-53492703D01*
X126971302Y-53496947D01*
X126971302Y-53496951D01*
X126975353Y-53527722D01*
X127008268Y-53777734D01*
X127084129Y-54055036D01*
X127196923Y-54319476D01*
X127344561Y-54566161D01*
X127524313Y-54790528D01*
X127643886Y-54903998D01*
X127684053Y-54942115D01*
X127732851Y-54988423D01*
X127966317Y-55156186D01*
X127970112Y-55158195D01*
X127970113Y-55158196D01*
X127991869Y-55169715D01*
X128220392Y-55290712D01*
X128490373Y-55389511D01*
X128771264Y-55450755D01*
X128799841Y-55453004D01*
X128994282Y-55468307D01*
X128994291Y-55468307D01*
X128996739Y-55468500D01*
X129152271Y-55468500D01*
X129154407Y-55468354D01*
X129154418Y-55468354D01*
X129362548Y-55454165D01*
X129362554Y-55454164D01*
X129366825Y-55453873D01*
X129371020Y-55453004D01*
X129371022Y-55453004D01*
X129507584Y-55424723D01*
X129648342Y-55395574D01*
X129919343Y-55299607D01*
X130174812Y-55167750D01*
X130178313Y-55165289D01*
X130178317Y-55165287D01*
X130292418Y-55085095D01*
X130410023Y-55002441D01*
X130570959Y-54852890D01*
X130617479Y-54809661D01*
X130617481Y-54809658D01*
X130620622Y-54806740D01*
X130802713Y-54584268D01*
X130952927Y-54339142D01*
X131068483Y-54075898D01*
X131147244Y-53799406D01*
X131187751Y-53514784D01*
X131187845Y-53496951D01*
X131189235Y-53231583D01*
X131189235Y-53231576D01*
X131189257Y-53227297D01*
X131185736Y-53200548D01*
X131152292Y-52946522D01*
X131151732Y-52942266D01*
X131075871Y-52664964D01*
X130963077Y-52400524D01*
X130815439Y-52153839D01*
X130635687Y-51929472D01*
X130427149Y-51731577D01*
X130193683Y-51563814D01*
X130171843Y-51552250D01*
X130148654Y-51539972D01*
X129939608Y-51429288D01*
X129669627Y-51330489D01*
X129388736Y-51269245D01*
X129357685Y-51266801D01*
X129165718Y-51251693D01*
X129165709Y-51251693D01*
X129163261Y-51251500D01*
X129007729Y-51251500D01*
X129005593Y-51251646D01*
X129005582Y-51251646D01*
X128797452Y-51265835D01*
X128797446Y-51265836D01*
X128793175Y-51266127D01*
X128788980Y-51266996D01*
X128788978Y-51266996D01*
X128652417Y-51295276D01*
X128511658Y-51324426D01*
X128240657Y-51420393D01*
X127985188Y-51552250D01*
X127981687Y-51554711D01*
X127981683Y-51554713D01*
X127971594Y-51561804D01*
X127749977Y-51717559D01*
X127539378Y-51913260D01*
X127357287Y-52135732D01*
X127207073Y-52380858D01*
X127091517Y-52644102D01*
X127012756Y-52920594D01*
X127009672Y-52942266D01*
X126974205Y-53191475D01*
X126972249Y-53205216D01*
X126972227Y-53209505D01*
X126972226Y-53209512D01*
X126970765Y-53488417D01*
X126970743Y-53492703D01*
X112481535Y-53492703D01*
X112471937Y-53477193D01*
X112462901Y-53465792D01*
X112348171Y-53351261D01*
X112336760Y-53342249D01*
X112198757Y-53257184D01*
X112185576Y-53251037D01*
X112031290Y-53199862D01*
X112017914Y-53196995D01*
X111923562Y-53187328D01*
X111917145Y-53187000D01*
X111542115Y-53187000D01*
X111526876Y-53191475D01*
X111525671Y-53192865D01*
X111524000Y-53200548D01*
X111524000Y-54397885D01*
X111016000Y-54397885D01*
X111016000Y-53205116D01*
X111011525Y-53189877D01*
X111010135Y-53188672D01*
X111002452Y-53187001D01*
X110622905Y-53187001D01*
X110616386Y-53187338D01*
X110520794Y-53197257D01*
X110507400Y-53200149D01*
X110353216Y-53251588D01*
X110340038Y-53257761D01*
X110202193Y-53343063D01*
X110190792Y-53352099D01*
X110076261Y-53466829D01*
X110067247Y-53478243D01*
X109981277Y-53617713D01*
X109928505Y-53665207D01*
X109858434Y-53676631D01*
X109793310Y-53648357D01*
X109782847Y-53638570D01*
X109762951Y-53617713D01*
X109673424Y-53523865D01*
X109488458Y-53386246D01*
X109483707Y-53383830D01*
X109483703Y-53383828D01*
X109361731Y-53321815D01*
X109282949Y-53281760D01*
X109277855Y-53280178D01*
X109277852Y-53280177D01*
X109067871Y-53214976D01*
X109062773Y-53213393D01*
X109033491Y-53209512D01*
X108839511Y-53183802D01*
X108839506Y-53183802D01*
X108834226Y-53183102D01*
X108828897Y-53183302D01*
X108828895Y-53183302D01*
X108730368Y-53187001D01*
X108603842Y-53191751D01*
X108598623Y-53192846D01*
X108519193Y-53209512D01*
X108378209Y-53239093D01*
X108373250Y-53241051D01*
X108373248Y-53241052D01*
X108168744Y-53321815D01*
X108168742Y-53321816D01*
X108163779Y-53323776D01*
X108159220Y-53326543D01*
X108159217Y-53326544D01*
X108060832Y-53386246D01*
X107966683Y-53443377D01*
X107962653Y-53446874D01*
X107869484Y-53527722D01*
X107792555Y-53594477D01*
X107789168Y-53598608D01*
X107649760Y-53768627D01*
X107649756Y-53768633D01*
X107646376Y-53772755D01*
X107628448Y-53804250D01*
X107577368Y-53853555D01*
X107507738Y-53867417D01*
X107441667Y-53841434D01*
X107414427Y-53812284D01*
X107393955Y-53781876D01*
X107332559Y-53690681D01*
X107282848Y-53638570D01*
X107177103Y-53527722D01*
X107173424Y-53523865D01*
X106988458Y-53386246D01*
X106983707Y-53383830D01*
X106983703Y-53383828D01*
X106861731Y-53321815D01*
X106782949Y-53281760D01*
X106777855Y-53280178D01*
X106777852Y-53280177D01*
X106567871Y-53214976D01*
X106562773Y-53213393D01*
X106533491Y-53209512D01*
X106339511Y-53183802D01*
X106339506Y-53183802D01*
X106334226Y-53183102D01*
X106328897Y-53183302D01*
X106328895Y-53183302D01*
X106230368Y-53187001D01*
X106103842Y-53191751D01*
X106098623Y-53192846D01*
X106019193Y-53209512D01*
X105878209Y-53239093D01*
X105873250Y-53241051D01*
X105873248Y-53241052D01*
X105668744Y-53321815D01*
X105668742Y-53321816D01*
X105663779Y-53323776D01*
X105659220Y-53326543D01*
X105659217Y-53326544D01*
X105560832Y-53386246D01*
X105466683Y-53443377D01*
X105462653Y-53446874D01*
X105369484Y-53527722D01*
X105292555Y-53594477D01*
X105289168Y-53598608D01*
X105149760Y-53768627D01*
X105149756Y-53768633D01*
X105146376Y-53772755D01*
X105128448Y-53804250D01*
X105077368Y-53853555D01*
X105007738Y-53867417D01*
X104941667Y-53841434D01*
X104914427Y-53812284D01*
X104893955Y-53781876D01*
X104832559Y-53690681D01*
X104782848Y-53638570D01*
X104677103Y-53527722D01*
X104673424Y-53523865D01*
X104488458Y-53386246D01*
X104483707Y-53383830D01*
X104483703Y-53383828D01*
X104361731Y-53321815D01*
X104282949Y-53281760D01*
X104277855Y-53280178D01*
X104277852Y-53280177D01*
X104067871Y-53214976D01*
X104062773Y-53213393D01*
X104033491Y-53209512D01*
X103839511Y-53183802D01*
X103839506Y-53183802D01*
X103834226Y-53183102D01*
X103828897Y-53183302D01*
X103828895Y-53183302D01*
X103730368Y-53187001D01*
X103603842Y-53191751D01*
X103598623Y-53192846D01*
X103519193Y-53209512D01*
X103378209Y-53239093D01*
X103373250Y-53241051D01*
X103373248Y-53241052D01*
X103168744Y-53321815D01*
X103168742Y-53321816D01*
X103163779Y-53323776D01*
X103159220Y-53326543D01*
X103159217Y-53326544D01*
X103060832Y-53386246D01*
X102966683Y-53443377D01*
X102962653Y-53446874D01*
X102869484Y-53527722D01*
X102792555Y-53594477D01*
X102789168Y-53598608D01*
X102649760Y-53768627D01*
X102649756Y-53768633D01*
X102646376Y-53772755D01*
X102643738Y-53777390D01*
X102643735Y-53777394D01*
X102600382Y-53853555D01*
X102532325Y-53973114D01*
X102453663Y-54189825D01*
X102452714Y-54195074D01*
X102452713Y-54195077D01*
X102413377Y-54412608D01*
X102413376Y-54412615D01*
X102412639Y-54416692D01*
X102411500Y-54440844D01*
X102411500Y-54852890D01*
X89070959Y-54852890D01*
X89117479Y-54809661D01*
X89117481Y-54809658D01*
X89120622Y-54806740D01*
X89302713Y-54584268D01*
X89452927Y-54339142D01*
X89568483Y-54075898D01*
X89647244Y-53799406D01*
X89687751Y-53514784D01*
X89687845Y-53496951D01*
X89689235Y-53231583D01*
X89689235Y-53231576D01*
X89689257Y-53227297D01*
X89685736Y-53200548D01*
X89652292Y-52946522D01*
X89651732Y-52942266D01*
X89575871Y-52664964D01*
X89463077Y-52400524D01*
X89315439Y-52153839D01*
X89135687Y-51929472D01*
X88927149Y-51731577D01*
X88693683Y-51563814D01*
X88671843Y-51552250D01*
X88648654Y-51539972D01*
X88439608Y-51429288D01*
X88169627Y-51330489D01*
X87888736Y-51269245D01*
X87857685Y-51266801D01*
X87665718Y-51251693D01*
X87665709Y-51251693D01*
X87663261Y-51251500D01*
X87507729Y-51251500D01*
X87505593Y-51251646D01*
X87505582Y-51251646D01*
X87297452Y-51265835D01*
X87297446Y-51265836D01*
X87293175Y-51266127D01*
X87288980Y-51266996D01*
X87288978Y-51266996D01*
X87152417Y-51295276D01*
X87011658Y-51324426D01*
X86740657Y-51420393D01*
X86485188Y-51552250D01*
X86481687Y-51554711D01*
X86481683Y-51554713D01*
X86471594Y-51561804D01*
X86249977Y-51717559D01*
X86039378Y-51913260D01*
X85857287Y-52135732D01*
X85707073Y-52380858D01*
X85591517Y-52644102D01*
X85512756Y-52920594D01*
X85509672Y-52942266D01*
X85474205Y-53191475D01*
X85472249Y-53205216D01*
X85472227Y-53209505D01*
X85472226Y-53209512D01*
X85470765Y-53488417D01*
X85470743Y-53492703D01*
X85088500Y-53492703D01*
X85088500Y-50994500D01*
X85108502Y-50926379D01*
X85162158Y-50879886D01*
X85214500Y-50868500D01*
X131445500Y-50868500D01*
X131513621Y-50888502D01*
G37*
%TD.AperFunction*%
%TD*%
M02*
