%TF.GenerationSoftware,KiCad,Pcbnew,(6.0.11)*%
%TF.CreationDate,2023-02-24T20:03:43+09:00*%
%TF.ProjectId,Underside,556e6465-7273-4696-9465-2e6b69636164,rev?*%
%TF.SameCoordinates,Original*%
%TF.FileFunction,Copper,L1,Top*%
%TF.FilePolarity,Positive*%
%FSLAX46Y46*%
G04 Gerber Fmt 4.6, Leading zero omitted, Abs format (unit mm)*
G04 Created by KiCad (PCBNEW (6.0.11)) date 2023-02-24 20:03:43*
%MOMM*%
%LPD*%
G01*
G04 APERTURE LIST*
G04 Aperture macros list*
%AMRoundRect*
0 Rectangle with rounded corners*
0 $1 Rounding radius*
0 $2 $3 $4 $5 $6 $7 $8 $9 X,Y pos of 4 corners*
0 Add a 4 corners polygon primitive as box body*
4,1,4,$2,$3,$4,$5,$6,$7,$8,$9,$2,$3,0*
0 Add four circle primitives for the rounded corners*
1,1,$1+$1,$2,$3*
1,1,$1+$1,$4,$5*
1,1,$1+$1,$6,$7*
1,1,$1+$1,$8,$9*
0 Add four rect primitives between the rounded corners*
20,1,$1+$1,$2,$3,$4,$5,0*
20,1,$1+$1,$4,$5,$6,$7,0*
20,1,$1+$1,$6,$7,$8,$9,0*
20,1,$1+$1,$8,$9,$2,$3,0*%
G04 Aperture macros list end*
%TA.AperFunction,ComponentPad*%
%ADD10RoundRect,0.250000X0.600000X0.725000X-0.600000X0.725000X-0.600000X-0.725000X0.600000X-0.725000X0*%
%TD*%
%TA.AperFunction,ComponentPad*%
%ADD11O,1.700000X1.950000*%
%TD*%
%TA.AperFunction,ComponentPad*%
%ADD12C,1.400000*%
%TD*%
%TA.AperFunction,ComponentPad*%
%ADD13C,1.600000*%
%TD*%
%TA.AperFunction,SMDPad,CuDef*%
%ADD14O,1.998980X2.748280*%
%TD*%
%TA.AperFunction,SMDPad,CuDef*%
%ADD15O,2.032000X1.016000*%
%TD*%
%TA.AperFunction,SMDPad,CuDef*%
%ADD16C,1.143000*%
%TD*%
%TA.AperFunction,ComponentPad*%
%ADD17R,2.000000X2.000000*%
%TD*%
%TA.AperFunction,ComponentPad*%
%ADD18C,2.000000*%
%TD*%
%TA.AperFunction,ViaPad*%
%ADD19C,0.800000*%
%TD*%
%TA.AperFunction,Conductor*%
%ADD20C,0.250000*%
%TD*%
G04 APERTURE END LIST*
D10*
%TO.P,TORICA-UART1,1,Pin_1*%
%TO.N,GND*%
X111270000Y-54670000D03*
D11*
%TO.P,TORICA-UART1,2,Pin_2*%
%TO.N,+5V*%
X108770000Y-54670000D03*
%TO.P,TORICA-UART1,3,Pin_3*%
%TO.N,/DTXR*%
X106270000Y-54670000D03*
%TO.P,TORICA-UART1,4,Pin_4*%
%TO.N,/DRXT*%
X103770000Y-54670000D03*
%TD*%
D12*
%TO.P,J1,1,DAT2*%
%TO.N,unconnected-(J1-Pad1)*%
X112440000Y-86360000D03*
%TO.P,J1,2,DAT3/CD*%
%TO.N,/CS*%
X112440000Y-88900000D03*
%TO.P,J1,3,CMD*%
%TO.N,Net-(J1-Pad3)*%
X112440000Y-91440000D03*
%TO.P,J1,4,VDD*%
%TO.N,+3.3V*%
X112440000Y-93980000D03*
%TO.P,J1,5,CLK*%
%TO.N,Net-(J1-Pad5)*%
X112440000Y-96520000D03*
%TO.P,J1,6,VSS*%
%TO.N,GND*%
X112440000Y-99060000D03*
%TO.P,J1,7,DAT0*%
%TO.N,Net-(J1-Pad7)*%
X112440000Y-101600000D03*
%TO.P,J1,8,DAT1*%
%TO.N,unconnected-(J1-Pad8)*%
X112440000Y-104140000D03*
%TO.P,J1,9,DET_B*%
%TO.N,unconnected-(J1-Pad9)*%
X112440000Y-106680000D03*
%TO.P,J1,10,DET_A*%
%TO.N,unconnected-(J1-Pad10)*%
X112440000Y-109220000D03*
%TO.P,J1,11,SHIELD*%
%TO.N,unconnected-(J1-Pad11)*%
X125140000Y-106680000D03*
%TO.P,J1,13*%
%TO.N,N/C*%
X125140000Y-88900000D03*
%TD*%
D13*
%TO.P,U1,1,VCC*%
%TO.N,+3.3V*%
X103550000Y-103290000D03*
%TO.P,U1,2,SDI*%
%TO.N,Net-(U1-Pad2)*%
X101010000Y-103290000D03*
%TO.P,U1,3,GND*%
%TO.N,GND*%
X98470000Y-103290000D03*
%TO.P,U1,4,SDO*%
%TO.N,unconnected-(U1-Pad4)*%
X95930000Y-103290000D03*
%TO.P,U1,5,CSK*%
%TO.N,Net-(U1-Pad5)*%
X93390000Y-103290000D03*
%TO.P,U1,6,CS*%
%TO.N,unconnected-(U1-Pad6)*%
X90850000Y-103290000D03*
%TD*%
D14*
%TO.P,U3,1,PA02_A0_D0*%
%TO.N,Net-(U2-Pad4)*%
X127000020Y-63500020D03*
%TO.P,U3,2,PA4_A1_D1*%
%TO.N,Net-(U2-Pad6)*%
X124460020Y-63500020D03*
%TO.P,U3,3,PA10_A2_D2*%
%TO.N,/CS*%
X121920020Y-63500020D03*
%TO.P,U3,4,PA11_A3_D3*%
%TO.N,unconnected-(U3-Pad4)*%
X119380020Y-63500020D03*
%TO.P,U3,5,PA8_A4_D4_SDA*%
%TO.N,Net-(U1-Pad2)*%
X116840020Y-63500020D03*
%TO.P,U3,6,PA9_A5_D5_SCL*%
%TO.N,Net-(U1-Pad5)*%
X114300020Y-63500020D03*
%TO.P,U3,7,PB08_A6_D6_TX*%
%TO.N,/DRXT*%
X111760020Y-63500020D03*
%TO.P,U3,8,PB09_A7_D7_RX*%
%TO.N,/DTXR*%
X111760020Y-79664580D03*
%TO.P,U3,9,PA7_A8_D8_SCK*%
%TO.N,Net-(J1-Pad5)*%
X114300020Y-79664580D03*
%TO.P,U3,10,PA5_A9_D9_MISO*%
%TO.N,Net-(J1-Pad7)*%
X116840020Y-79664580D03*
%TO.P,U3,11,PA6_A10_D10_MOSI*%
%TO.N,Net-(J1-Pad3)*%
X119380020Y-79664580D03*
%TO.P,U3,12,3V3*%
%TO.N,+3.3V*%
X121920020Y-79664580D03*
%TO.P,U3,13,GND*%
%TO.N,GND*%
X124460020Y-79664580D03*
%TO.P,U3,14,5V*%
%TO.N,+5V*%
X127000020Y-79664580D03*
D15*
%TO.P,U3,15,5V*%
%TO.N,unconnected-(U3-Pad15)*%
X110682200Y-70366900D03*
%TO.P,U3,16,GND*%
%TO.N,unconnected-(U3-Pad16)*%
X110682200Y-72916900D03*
D16*
%TO.P,U3,17,PA31_SWDIO*%
%TO.N,unconnected-(U3-Pad17)*%
X127686387Y-70365703D03*
%TO.P,U3,18,PA30_SWCLK*%
%TO.N,unconnected-(U3-Pad18)*%
X127686387Y-72905703D03*
%TO.P,U3,19,RESET*%
%TO.N,unconnected-(U3-Pad19)*%
X125146387Y-70365703D03*
%TO.P,U3,20,GND*%
%TO.N,unconnected-(U3-Pad20)*%
X125146387Y-72905703D03*
%TD*%
D17*
%TO.P,U2,1,VCC*%
%TO.N,+3.3V*%
X98470000Y-115570000D03*
D18*
%TO.P,U2,2,GND*%
%TO.N,GND*%
X101010000Y-115570000D03*
%TO.P,U2,3,NRST*%
%TO.N,unconnected-(U2-Pad3)*%
X103550000Y-115570000D03*
%TO.P,U2,4,ECHO*%
%TO.N,Net-(U2-Pad4)*%
X106090000Y-115570000D03*
%TO.P,U2,5,SERVO*%
%TO.N,unconnected-(U2-Pad5)*%
X108630000Y-115570000D03*
%TO.P,U2,6,COMP/TRIG*%
%TO.N,Net-(U2-Pad6)*%
X111170000Y-115570000D03*
%TO.P,U2,7,DAC_OUT*%
%TO.N,unconnected-(U2-Pad7)*%
X113710000Y-115570000D03*
%TO.P,U2,8,RXD*%
%TO.N,unconnected-(U2-Pad8)*%
X116250000Y-115570000D03*
%TO.P,U2,9,TXD*%
%TO.N,unconnected-(U2-Pad9)*%
X118790000Y-115570000D03*
%TD*%
D19*
%TO.N,/DTXR*%
X111760000Y-76668800D03*
%TO.N,+5V*%
X122378700Y-66904800D03*
%TD*%
D20*
%TO.N,Net-(U2-Pad4)*%
X127000000Y-63500000D02*
X128324600Y-63500000D01*
X128855700Y-64031100D02*
X128324600Y-63500000D01*
X128855700Y-86659600D02*
X128855700Y-64031100D01*
X112645300Y-102870000D02*
X128855700Y-86659600D01*
X112228000Y-102870000D02*
X112645300Y-102870000D01*
X106090000Y-109008000D02*
X112228000Y-102870000D01*
X106090000Y-115570000D02*
X106090000Y-109008000D01*
%TO.N,Net-(U2-Pad6)*%
X126179300Y-61780700D02*
X124460000Y-63500000D01*
X127603200Y-61780700D02*
X126179300Y-61780700D01*
X129321700Y-63499200D02*
X127603200Y-61780700D01*
X129321700Y-97418300D02*
X129321700Y-63499200D01*
X111170000Y-115570000D02*
X129321700Y-97418300D01*
%TO.N,Net-(U1-Pad5)*%
X93390000Y-84410000D02*
X93390000Y-103290000D01*
X114300000Y-63500000D02*
X93390000Y-84410000D01*
%TO.N,Net-(U1-Pad2)*%
X101010000Y-84804100D02*
X101010000Y-103290000D01*
X116840000Y-68974100D02*
X101010000Y-84804100D01*
X116840000Y-63500000D02*
X116840000Y-68974100D01*
%TO.N,/DRXT*%
X104945100Y-58009700D02*
X104945100Y-54670000D01*
X110435400Y-63500000D02*
X104945100Y-58009700D01*
X111760000Y-63500000D02*
X110435400Y-63500000D01*
X103770000Y-54670000D02*
X104945100Y-54670000D01*
%TO.N,/DTXR*%
X111760000Y-79664600D02*
X111760000Y-77965300D01*
X111760000Y-77965300D02*
X111760000Y-76668800D01*
%TO.N,+5V*%
X127000000Y-79664600D02*
X127000000Y-77965300D01*
X122378700Y-73344000D02*
X127000000Y-77965300D01*
X122378700Y-66904800D02*
X122378700Y-73344000D01*
%TO.N,Net-(J1-Pad7)*%
X113954800Y-100085200D02*
X112440000Y-101600000D01*
X113954800Y-98181800D02*
X113954800Y-100085200D01*
X128378300Y-83758300D02*
X113954800Y-98181800D01*
X128378300Y-78340100D02*
X128378300Y-83758300D01*
X126789700Y-76751500D02*
X128378300Y-78340100D01*
X126789700Y-70283200D02*
X126789700Y-76751500D01*
X122664000Y-66157500D02*
X126789700Y-70283200D01*
X122089000Y-66157500D02*
X122664000Y-66157500D01*
X116840000Y-71406500D02*
X122089000Y-66157500D01*
X116840000Y-79664600D02*
X116840000Y-71406500D01*
%TO.N,GND*%
X105670000Y-105830000D02*
X112440000Y-99060000D01*
X101010000Y-105830000D02*
X105670000Y-105830000D01*
X101010000Y-115570000D02*
X101010000Y-105830000D01*
X101010000Y-105830000D02*
X98470000Y-103290000D01*
X124460000Y-87040000D02*
X112440000Y-99060000D01*
X124460000Y-79664600D02*
X124460000Y-87040000D01*
%TO.N,Net-(J1-Pad5)*%
X111396300Y-95476300D02*
X112440000Y-96520000D01*
X111396300Y-91024300D02*
X111396300Y-95476300D01*
X112250600Y-90170000D02*
X111396300Y-91024300D01*
X112630600Y-90170000D02*
X112250600Y-90170000D01*
X114300000Y-88500600D02*
X112630600Y-90170000D01*
X114300000Y-81363900D02*
X114300000Y-88500600D01*
X114300000Y-79664600D02*
X114300000Y-81363900D01*
%TO.N,+3.3V*%
X121920000Y-84500000D02*
X112440000Y-93980000D01*
X121920000Y-79664600D02*
X121920000Y-84500000D01*
%TO.N,Net-(J1-Pad3)*%
X119380000Y-84500000D02*
X119380000Y-79664600D01*
X112440000Y-91440000D02*
X119380000Y-84500000D01*
%TO.N,/CS*%
X121920000Y-63500000D02*
X121920000Y-65199300D01*
X110425400Y-76693900D02*
X121920000Y-65199300D01*
X110425400Y-86885400D02*
X110425400Y-76693900D01*
X112440000Y-88900000D02*
X110425400Y-86885400D01*
%TD*%
M02*
