M48
; DRILL file {KiCad (6.0.7)} date Wed Mar  1 00:46:22 2023
; FORMAT={-:-/ absolute / inch / decimal}
; #@! TF.CreationDate,2023-03-01T00:46:22+09:00
; #@! TF.GenerationSoftware,Kicad,Pcbnew,(6.0.7)
; #@! TF.FileFunction,Plated,1,2,PTH
FMAT,2
INCH
; #@! TA.AperFunction,Plated,PTH,ViaDrill
T1C0.0157
; #@! TA.AperFunction,Plated,PTH,ComponentDrill
T2C0.0315
; #@! TA.AperFunction,Plated,PTH,ComponentDrill
T3C0.0374
; #@! TA.AperFunction,Plated,PTH,ComponentDrill
T4C0.0394
%
G90
G05
T1
X4.4Y-3.0185
X4.818Y-2.6336
T2
X4.4268Y-3.4
X4.4268Y-3.5
X4.4268Y-3.6
X4.4268Y-3.7
X4.4268Y-3.8
X4.4268Y-3.9
X4.4268Y-4.0
X4.4268Y-4.1
X4.4268Y-4.2
X4.4268Y-4.3
X4.9268Y-3.5
X4.9268Y-4.2
T3
X4.0854Y-2.1524
X4.1839Y-2.1524
X4.2823Y-2.1524
X4.3807Y-2.1524
T4
X3.5768Y-4.0665
X3.6768Y-4.0665
X3.7768Y-4.0665
X3.8768Y-4.0665
X3.8768Y-4.55
X3.9768Y-4.0665
X3.9768Y-4.55
X4.0768Y-4.0665
X4.0768Y-4.55
X4.1768Y-4.55
X4.2768Y-4.55
X4.3768Y-4.55
X4.4768Y-4.55
X4.5768Y-4.55
X4.6768Y-4.55
T0
M30
